<!-- Generator: Adobe Illustrator 19.2.1, SVG Export Plug-In . SVG Version: 6.00 Build 0)  --><svg version="1.1" id="layer" xmlns="http://www.w3.org/2000/svg" xmlns:xlink="http://www.w3.org/1999/xlink" x="0px" y="0px" viewBox="0 0 652 652" style="enable-background:new 0 0 652 652;" xml:space="preserve" height="100" width="100"><style type="text/css">	.st0{clip-path:url(#SVGID_2_);fill:url(#SVGID_3_);}	.st1{clip-path:url(#SVGID_5_);fill:url(#SVGID_6_);}	.st2{fill:#2566AF;}</style><g>	<g>		<defs>			<path id="SVGID_1_" d="M102.9,212.9c-6,3-65.6,31.8-72.1,35c-8.2,4.1-5.6,7.4,0.7,11.3c6.3,3.9,70,43.2,74.2,45.9     c4.2,2.6,8.5,3.6,14.5,0c5.9-3.6,16.3-9.8,20.3-12.3c4.1-2.5,8-5.2,8-14.2v-41.3c0-6.1-0.7-10.8-10.5-15.6     c-9.9-4.7-14.9-7-19.2-9.2c-2.8-1.4-5.2-2.1-7.5-2.1C108.6,210.5,106,211.3,102.9,212.9" />		</defs>		<clipPath id="SVGID_2_">			<use xlink:href="#SVGID_1_" style="overflow:visible;" />		</clipPath>					<linearGradient id="SVGID_3_" gradientUnits="userSpaceOnUse" x1="93.7126" y1="623.7711" x2="103.1796" y2="623.7711" gradientTransform="matrix(13.8477 0 0 -13.8477 -1300.1876 8897.3027)">			<stop offset="0" style="stop-color:#DBDCDD" />			<stop offset="1" style="stop-color:#C6C7C9" />		</linearGradient>		<rect x="22.6" y="210.5" class="st0" width="125.9" height="98.1" />	</g>	<g>		<defs>			<path id="SVGID_4_" d="M21,286.6v75.7c0,14,3.8,17.2,9.5,20.8c5.8,3.6,61.6,38.9,71.1,44.9c9.5,6,13.7,3.4,19.3,0     c5.6-3.4,8.6-5.2,17.9-10.8c9.3-5.6,9.7-9.4,9.7-19.4v-83.5c0-9.7-1.8-13-10-8c-8.2,4.9-7,4.2-15.8,9.5c-8.7,5.3-13.1,4-19.7,0     c-6.6-4-62.2-37.7-71.9-43.3c-2-1.1-3.6-1.7-4.8-1.7C22,270.9,21,276.6,21,286.6" />		</defs>		<clipPath id="SVGID_5_">			<use xlink:href="#SVGID_4_" style="overflow:visible;" />		</clipPath>					<linearGradient id="SVGID_6_" gradientUnits="userSpaceOnUse" x1="94.6302" y1="617.6176" x2="104.0973" y2="617.6176" gradientTransform="matrix(13.469 0 0 -13.469 -1252.9559 8671.1309)">			<stop offset="0" style="stop-color:#D0D1D3" />			<stop offset="0.4545" style="stop-color:#BBBCBF" />			<stop offset="0.5781" style="stop-color:#B9BABD" />			<stop offset="0.6368" style="stop-color:#B1B3B5" />			<stop offset="0.6817" style="stop-color:#A4A6A8" />			<stop offset="0.7195" style="stop-color:#929496" />			<stop offset="0.7199" style="stop-color:#929496" />			<stop offset="1" style="stop-color:#929496" />		</linearGradient>		<rect x="21" y="270.9" class="st1" width="127.5" height="163.2" />	</g>	<g>		<path class="st2" d="M293.9,354.2h-16.3c-7.7,0-35.5-3.5-35.5-37.2c0-33.7,21.8-38.7,36.7-38.7c10.4,0,22.6-1.8,22.6-14.7    c0-10.1-9.9-15.1-23.8-15.1h-1h-1.3c-41.1,0-65.1,28.5-65.1,68.1c0,39.6,27.7,66.6,65.1,66.6h17.1c15.3,0,23-4.4,23-14.6    C315.4,358.2,307,354.2,293.9,354.2" />		<path class="st2" d="M509.7,308.2c0,0,16.7-5.4,16.7-25.4c0-29.3-25.2-34.5-40.8-34.5h-25.5c-14.6,0-20,6.2-20,13.5    c0,8.4,6.3,12.4,20.6,12.4h20.9c12.3,0,16,7.5,16,13.1c0,5.5-2.8,13.3-16.4,13.3h-21c-11.8,0-20.1,3.8-20.1,12.8    c0,9.1,9.1,12.2,19.7,12.2h23.6c13,0,22,3.6,22,14.8c0,11.2-7.3,15.3-21.1,15.3h-22.1c-14.1,0-22.1,3.7-22.1,13.2    c0,9.6,9.2,12.7,21.6,12.7h27.5c21.8,0,47.2-8.7,47.2-39.4S509.7,308.2,509.7,308.2" />		<path class="st2" d="M170,275.4c5.7-3.3,14.2-8.6,22.2-13.4c7.9-4.8,6.5-12.3,0-15.5c-6.5-3.1-13.6-6.6-21.9-10.6    c-8.3-4-13,1.5-13,10v14.4C157.3,277.8,162,280,170,275.4" />		<path class="st2" d="M185.3,276.5c-5.6,3.4-9.6,6.1-15.2,9.5c-12.3,7.5-11.2,21.4-11.2,21.4v75.1c0,14.2,6.8,17.5,15.5,12.2    c2.7-1.6,4.2-2.6,6.9-4.3c18.5-11,18.5-18.6,18.5-26.2v-76.1C199.8,274.3,194.7,270.9,185.3,276.5" />		<path class="st2" d="M347,321.4v-51.6c0-13.8-3.8-21.5-15-21.5c-13.6,0-14.8,12.1-14.8,22.1v58.2c0,19.1,5.7,30.8,13.1,38.4    c7.4,7.5,16.6,4.8,21.3,0.8c4.6-4,5.5-10.9,0-20.8C346.1,337.3,347,328,347,321.4" />		<path class="st2" d="M414.7,248.4c0,0-15-2.1-15,22.7v53.3c0,19.4-9.6,31.6-22.5,31.6c-13,0-19.1,6-19.1,15.2    c0,9.2,7.9,13.7,19.6,13.7c29.3,0,51.8-20.9,51.8-64.5V271C429.5,258.2,426.5,248.4,414.7,248.4" />	</g>	<g>		<path class="st2" d="M281.2,278.3C281.1,278.3,281.1,278.3,281.2,278.3c-0.8,0-1.6,0-2.3,0H281.2z" />		<path class="st2" d="M599.5,276.7c17,0,21.5-7,21.5-14.3c0,0,0,0,0-0.1c0,0,0,0,0,0c0-7.3-4.3-14-21.8-14h-33.8    c-8.3,0-14.6,1.8-17.7,6.3c-2.6,3.2-4.3,8.7-4.3,17.5v84.6c0,11.9,2.2,22.6,14,24.5c0.2,0,0.4,0.1,0.6,0.1c2.1,0.4,4.4,0.6,7,0.6    h34.6c17,0,21.5-7.1,21.5-14.3c0-7.3-4.3-14-21.8-14h-27.6v-24.9H596c17,0,21.5-7,21.5-14.3c0-7.3-4.3-14-21.8-14h-24.1v-23.5    H599.5z" />	</g></g></svg>