<?xml version="1.0" encoding="UTF-8" standalone="no"?>
<svg
   xmlns:dc="http://purl.org/dc/elements/1.1/"
   xmlns:cc="http://creativecommons.org/ns#"
   xmlns:rdf="http://www.w3.org/1999/02/22-rdf-syntax-ns#"
   xmlns:svg="http://www.w3.org/2000/svg"
   xmlns="http://www.w3.org/2000/svg"
   xmlns:sodipodi="http://sodipodi.sourceforge.net/DTD/sodipodi-0.dtd"
   xmlns:inkscape="http://www.inkscape.org/namespaces/inkscape"
   inkscape:version="1.0 (4035a4fb49, 2020-05-01)"
   height="558.5"
   width="321.29999"
   sodipodi:docname="logo_polytechnique.svg"
   id="svg104"
   xml:space="preserve"
   viewBox="0 0 321.29999 558.49998"
   y="0px"
   x="0px"
   version="1.1"><metadata
   id="metadata110"><rdf:RDF><cc:Work
       rdf:about=""><dc:format>image/svg+xml</dc:format><dc:type
         rdf:resource="http://purl.org/dc/dcmitype/StillImage" /><dc:title></dc:title></cc:Work></rdf:RDF></metadata><defs
   id="defs108" /><sodipodi:namedview
   inkscape:current-layer="svg104"
   inkscape:window-maximized="0"
   inkscape:window-y="0"
   inkscape:window-x="0"
   inkscape:cy="279.25001"
   inkscape:cx="160.64999"
   inkscape:zoom="1.1972918"
   fit-margin-bottom="0"
   fit-margin-right="0"
   fit-margin-left="0"
   fit-margin-top="0"
   showgrid="false"
   id="namedview106"
   inkscape:window-height="1419"
   inkscape:window-width="2407"
   inkscape:pageshadow="2"
   inkscape:pageopacity="0"
   guidetolerance="10"
   gridtolerance="10"
   objecttolerance="10"
   borderopacity="1"
   bordercolor="#666666"
   pagecolor="#ffffff" />
<style
   id="style2"
   type="text/css">
	.st0{fill:#02426A;}
	.st1{fill-rule:evenodd;clip-rule:evenodd;fill:#02426A;}
</style>
<g
   transform="translate(-137,-141.7)"
   id="Calque_1">
	<g
   id="g100">
		<path
   id="path4"
   d="m 335.3,246 c -13.2,15.6 -30.2,35.7 -45.4,54.5 -59.1,-73 -114,-131.6 -150.4,-158.8 19,43.6 65.7,110.7 127,188.7 -31.8,41.2 -95,123.1 -127.1,192.7 43.8,-34.6 102.7,-102.9 150.5,-163.3 58.9,73.2 115,135.8 151.2,162.9 -18.9,-43.3 -66.9,-115 -127.8,-192.8 23.9,-30.7 32.6,-41.6 56.1,-74.7 25.5,-36 66.8,-87.5 88.9,-76.7 -33.1,-18.8 -80.2,17.1 -123,67.5"
   class="st0" />
		<path
   id="path6"
   d="m 217.1,309.5 c -0.7,-0.5 -1.5,-0.7 -2.6,-0.7 -1.3,0 -2.8,0.4 -4.4,1.3 -1.6,0.9 -3.3,2.2 -5,3.8 -1.7,1.6 -3.5,3.5 -5.3,5.7 -1.8,2.2 -3.5,4.6 -5.2,7.2 -1.6,2.6 -3.2,5.3 -4.7,8.1 -1.5,2.9 -2.7,5.7 -3.8,8.7 -1.1,2.9 -1.9,5.8 -2.6,8.7 -0.4,2.1 -0.7,4.1 -0.9,6 -1.7,1.6 -3.2,2.9 -4.5,4.1 -1.8,1.5 -3.3,2.8 -4.6,3.8 -1.4,1 -2.2,1.6 -3.3,2.2 l 0.6,2.4 c 1.1,-0.5 2.6,-1.6 4,-2.7 1.3,-1 2.8,-2.3 4.6,-3.9 0.9,-0.8 1.9,-1.7 3.1,-2.7 0.1,1.7 0.3,3.2 0.7,4.5 0.5,1.5 1.2,2.8 2,3.7 0.8,1 1.8,1.7 2.9,2.1 1.1,0.5 2.2,0.7 3.4,0.7 1.4,0 2.8,-0.4 4.2,-1.1 1.4,-0.7 2.7,-1.6 3.9,-2.8 1,-0.9 2,-2 2.9,-3.1 l -1.5,-1.6 c -0.2,0.2 -0.4,0.5 -0.6,0.7 -0.9,1 -1.9,2 -2.9,2.8 -1,0.8 -2,1.5 -3,2 -1,0.5 -2,0.8 -3,0.8 -1.5,0 -2.6,-0.6 -3.5,-1.8 -0.8,-1.2 -1.3,-3.1 -1.4,-5.6 0,-0.8 0,-1.8 0,-2.7 0,-1 0.2,-1.9 0.4,-2.9 0.8,-0.7 1.5,-1.6 2.3,-2.4 0.3,-0.3 0.6,-0.6 0.9,-0.9 0.6,-0.6 1.3,-1.2 2,-2 0.8,-0.8 1.7,-1.8 2.8,-3 1.1,-1.2 2.4,-2.7 4,-4.5 1.5,-1.8 3.3,-4 5.4,-6.6 1,-1.3 2.1,-2.7 3.2,-4.2 1.1,-1.5 2.1,-3.1 3.1,-4.7 1,-1.6 1.9,-3.2 2.7,-4.8 0.8,-1.6 1.6,-3.2 2.2,-4.6 0.6,-1.5 1.1,-2.8 1.5,-4.1 0.4,-1.3 0.5,-2.3 0.5,-3.2 0.6,-1.3 0.2,-2.2 -0.5,-2.7 m -2.3,7.6 c -0.7,1.8 -1.6,3.7 -2.8,5.9 -1.2,2.2 -2.6,4.5 -4.3,6.9 -1.7,2.4 -3.5,4.9 -5.6,7.5 -2,2.6 -4.2,5.2 -6.5,7.8 -2.3,2.6 -4.7,5.2 -7.2,7.8 v 0 0 c 0.6,-3.2 1.6,-6.4 2.8,-9.7 1.3,-3.3 2.7,-6.5 4.4,-9.6 1.6,-3.1 3.4,-6 5.2,-8.8 1.8,-2.7 3.6,-5.1 5.4,-7.2 1.7,-2.1 3.3,-3.7 4.8,-4.9 1.5,-1.2 2.7,-1.8 3.6,-1.8 0.3,0 0.7,0.1 0.9,0.5 0.2,0.4 0.3,0.8 0.3,1 0,1.3 -0.3,2.9 -1,4.6 m 18.9,-0.1 c 0.1,1 -0.2,2.1 -0.7,3.1 -0.5,0.9 -1.3,1.8 -2.1,2.7 -0.8,0.8 -1.8,1.6 -2.9,2.3 -1.1,0.7 -2.1,1.2 -3.2,1.7 l -0.9,-1.5 c 1.2,-0.6 2.4,-1.4 3.5,-2.2 1.1,-0.9 1.9,-1.7 2.3,-2.5 -1,-0.2 -1.7,-0.6 -2.1,-1.3 -0.4,-0.6 -0.7,-1.3 -0.7,-2 0,-1 0.3,-1.8 1,-2.4 0.7,-0.6 1.5,-1 2.4,-1 1,0 1.8,0.3 2.4,1 0.7,0.5 0.9,1.2 1,2.1"
   class="st0" />
		<path
   id="path8"
   d="m 242.9,497.4 h 12.4 v 2.2 h -9.9 v 7.8 h 9.9 v 2.2 h -9.9 v 8 h 9.9 v 2.2 h -12.4 z m 9.4,-6.9 0.8,1.6 -7.3,3.9 -0.7,-1.5 z m 28.2,23.2 c -1.5,3.4 -5.4,6.4 -10.3,6.4 -6.6,0 -11.7,-5.1 -11.7,-11.6 0,-6.4 4.9,-11.6 11.6,-11.6 5.5,0 9,3.7 10.3,6.5 h -2.7 c -0.8,-1.3 -3.3,-4.3 -7.6,-4.3 -5.2,0 -9.2,4.1 -9.2,9.3 0,5.3 4,9.4 9.2,9.4 4.7,0 7.1,-3.4 7.6,-4.2 h 2.8 z m 2.3,-5.1 c 0,-6.9 5.4,-11.6 11.7,-11.6 6.6,0 11.7,5 11.7,11.6 0,6.6 -5.1,11.6 -11.7,11.6 -6.6,-0.1 -11.7,-5.2 -11.7,-11.6 z m 2.5,-0.1 c 0,5.3 4,9.4 9.2,9.4 5.3,0 9.2,-4.3 9.2,-9.4 0,-5.1 -3.9,-9.4 -9.2,-9.4 -5.3,0.1 -9.2,4.2 -9.2,9.4 z m 25.1,-11.1 h 2.5 v 20.2 h 9.6 v 2.2 h -12.1 z m 15.2,0 H 338 v 2.2 h -9.9 v 7.8 h 9.9 v 2.2 h -9.9 v 8 h 9.9 v 2.2 h -12.4 z"
   class="st0" />
		<path
   id="path10"
   d="m 166.8,528.2 c 3.8,0 5.3,0.5 6.6,1.5 1.6,1.3 2.5,3.5 2.5,5.7 0,2.2 -0.9,4.5 -2.4,5.7 -1.5,1.2 -3,1.8 -6.3,1.8 h -2.8 v 7.7 H 160 v -22.4 z m -2.3,10.8 h 2.7 c 1,0 2,-0.1 2.9,-0.6 0.8,-0.4 1.5,-1.4 1.5,-2.8 0,-1.4 -0.7,-2.4 -1.5,-2.8 -0.9,-0.5 -1.9,-0.6 -3.1,-0.6 h -2.5 z m 13.8,0.6 c 0,-7.2 5.5,-11.8 11.7,-11.8 6.8,0 11.8,5.3 11.8,11.6 0,6.3 -5,11.6 -11.8,11.6 -6.9,0 -11.7,-5.4 -11.7,-11.4 z m 4.5,-0.2 c 0,4.1 2.9,7.6 7.3,7.6 4.5,0 7.2,-3.9 7.2,-7.6 0,-3.8 -2.7,-7.7 -7.2,-7.7 -4.5,0.1 -7.3,3.8 -7.3,7.7 z M 206,528.2 h 4.5 v 18.4 h 7.3 v 4 H 206 Z m 19.3,14.4 -6.9,-14.4 h 4.9 l 4.2,10.2 4.3,-10.2 h 4.8 l -6.8,14.4 v 8 h -4.5 z M 244,532.2 h -4.8 v -4 h 14.1 v 4 h -4.8 v 18.4 H 244 Z m 14.1,-4 h 12.5 v 4 h -8 v 5.1 h 7.9 v 4 h -7.9 v 5.4 h 8 v 4 h -12.5 z m 38.7,14.9 c -1.4,4.6 -5.7,7.9 -10.9,7.9 -6.8,0 -11.7,-5.4 -11.7,-11.6 0,-6 4.6,-11.6 11.7,-11.6 6.4,0 10.1,4.8 11,8 h -4.7 c -0.7,-1.5 -2.7,-4.1 -6.3,-4.1 -4.3,0 -7.2,3.7 -7.2,7.6 0,4.1 2.9,7.7 7.2,7.7 4,0 5.8,-3.1 6.2,-4 h 4.7 z m 3.7,7.5 v -22.4 h 4.5 v 9 h 8.6 v -9 h 4.5 v 22.4 h -4.5 v -9.4 H 305 v 9.4 z m 38.3,-6.8 -0.1,-15.5 h 4.3 v 22.4 h -4 l -10.3,-15.5 0.1,15.5 h -4.3 v -22.4 h 4 z m 10.6,-15.6 h 4.5 v 22.4 h -4.5 z m 41.9,0 V 542 c 0,1.1 0,2.3 0.6,3.4 0.5,1 1.5,1.7 3,1.7 1.5,0 2.5,-0.7 3,-1.6 0.6,-1.1 0.6,-2.3 0.6,-3.5 V 528.2 H 403 V 542 c 0,3.3 -0.6,5.3 -2.4,6.9 -1.4,1.3 -3.3,2.1 -5.7,2.1 -1.6,0 -4.2,-0.4 -5.8,-2.1 -2.1,-2 -2.4,-3.9 -2.4,-6.9 v -13.8 z m 17,0 h 12.5 v 4 h -8 v 5.1 h 7.9 v 4 h -7.9 v 5.4 h 8 v 4 h -12.5 z m -26.6,19 c -0.3,0 -1.4,-0.1 -2.2,-0.7 1.5,-2 2.4,-4.5 2.4,-7.2 0,-6.3 -5,-11.6 -11.8,-11.6 -6.2,0 -11.7,4.6 -11.7,11.8 v 0 c 0,4.2 2.4,8.1 6.2,10.1 0,0 0,0 0,0 0.2,0.1 0.5,0.2 0.8,0.4 1.5,0.7 3.1,1 4.8,1 2,0 3.9,-0.5 5.6,-1.4 0.2,-0.1 0.5,-0.3 0.7,-0.4 1,0.7 2.7,1.8 5.3,1.8 h 0.6 v -3.9 h -0.7 z M 363,539.4 v 0 c 0,-4 2.8,-7.6 7.3,-7.6 4.6,0 7.2,3.9 7.2,7.7 0,1.4 -0.4,2.9 -1.2,4.2 l -2.4,-2.4 -2.7,2.8 2.3,2.3 c -0.9,0.5 -2,0.8 -3.2,0.8 -4.4,-0.1 -7.3,-3.7 -7.3,-7.8"
   class="st0" />
		<path
   id="path12"
   d="m 307.3,176.5 c 0.1,-0.1 2.2,-2.4 2.4,-2.7 0.3,-0.3 1.6,-1.7 1.8,-1.5 0.1,0.3 -0.4,0.8 -0.4,1 -0.1,0.2 -1.2,2.2 -1.6,2.5 -0.4,0.3 -1,0.7 -1.2,0.8 0,0.1 0.2,0.1 0.2,0.2 0,0.3 -0.5,0.4 -0.7,0.5 0,0 -0.6,0 -0.6,0 0.1,-0.4 0.1,-0.8 0.1,-0.8 m -2.2,8.8 c 0.1,-0.2 0.2,-0.4 0.4,-0.6 0.1,-0.2 0.2,-0.5 0.4,-0.6 0.1,-0.1 4.1,-2.3 4.9,-2.8 0.1,-0.1 0.3,-0.2 0.4,-0.4 -0.1,0 -2.6,1.1 -2.8,1.2 -0.3,0.2 -2.2,1 -2.3,0.5 -0.1,-0.3 0.5,-1.1 0.7,-1.2 0.2,-0.1 3.3,-0.8 5.6,-1.9 0.2,-0.1 0.4,-0.3 0.6,-0.1 0,1 -3.3,4.2 -7.9,5.9 m -4.7,0.9 c -0.4,0.1 -1.1,-0.2 -1.2,-0.5 0,-0.2 4.1,-1.8 4.6,-2.4 -0.3,0.1 -3.8,1.2 -3.9,1 0,-0.4 0,-0.6 0.2,-0.7 1.7,-0.2 5.2,-1.8 5.4,-1.6 0.2,0.3 -3.4,3.9 -5.1,4.2 m 4.3,-15.8 c -0.1,0.6 -0.3,1.1 -0.7,1.3 -0.2,-0.1 -0.4,0 -0.5,0 -0.1,0 -0.6,0 -0.8,0 -0.1,0 -0.5,-0.1 -0.6,0 -0.2,0 -0.4,0 -0.5,-0.2 0,-0.1 0,-0.2 0,-0.3 0,-0.4 0.1,-1 0.2,-1.2 0.1,-0.4 2.6,0.3 2.9,0.4 m 0.2,8.7 c 0,0.1 0.2,0.3 0.1,0.4 -0.3,-0.2 -0.3,-0.7 -0.5,-1.1 0,-0.1 0.1,-0.1 0.1,-0.1 0.2,0.2 0.2,0.6 0.3,0.8 m -1,-5.2 c -0.3,0 -2.4,-0.3 -2.4,-0.3 0,0 -0.3,-1.9 0.6,-1.7 0.1,0 2,0 2.2,0.3 -0.1,0.3 -0.2,1.5 -0.4,1.7 m 0.1,0.5 c -0.1,0.2 0,1.2 -0.1,1.3 -0.1,0.1 -1.7,0 -1.9,0 -0.7,0.2 -0.5,-0.9 -0.6,-1.5 0.1,-0.1 2.4,-0.1 2.6,0.2 m -1.7,3.4 c -0.9,0.2 -0.6,-1 -0.8,-1.6 0,0 2,-0.2 2.2,0 0.2,0.1 0.5,1.9 0,1.8 -0.3,-0.1 -1.4,-0.2 -1.4,-0.2 m 1.4,0.5 c 0.6,0 0.4,0.9 0.6,1.2 -0.2,-0.1 -1.8,0 -1.8,0 -0.1,0 -0.3,0 -0.4,0 0,-0.2 -0.1,-0.4 -0.2,-0.6 -0.1,-0.2 -0.1,-0.5 0.3,-0.6 0.4,-0.2 0.9,0 1.5,0 m -3.5,1.5 c 0.3,0.1 0.6,0 0.6,0.3 -0.1,0.2 -0.4,0.1 -0.7,0.1 -0.2,0 -0.4,0 -0.6,0 -0.2,0 -0.9,0 -0.9,-0.2 0,-0.1 0.3,-0.4 0.4,-0.4 0.4,0 0.8,0.1 1.2,0.2 m 0,0.8 c 0.3,0 0.5,0 0.5,0.2 0,0.3 -0.9,0.2 -1.1,0.2 -0.2,0 -2.2,0.1 -2.2,-0.2 0,-0.1 0.5,-0.6 0.6,-0.6 0.7,0.1 1.6,0.4 2.2,0.4 m 10.7,-5.2 c 0,-0.1 0,-0.2 0.1,-0.3 0.1,-0.3 0.3,-0.6 0.4,-0.9 0,-0.1 0.3,-1 0.5,-1.3 0.4,-0.2 3.2,-2.7 3.3,-3.1 -0.1,0.1 -2.4,2.1 -2.9,2 -0.1,-0.3 1.1,-2.2 1.4,-2.5 0.2,-0.2 0.4,-0.4 0.7,-0.4 0.1,0.1 0,0.3 -0.1,0.5 0.8,-0.3 0.8,-1.8 1.5,-1.8 0.2,0 0.2,0.4 0.2,0.4 0.3,-0.3 0.3,-0.9 0.6,-1.2 0.1,-0.2 0.5,-0.3 0.7,-0.2 0.1,0.1 -0.3,0.8 -0.4,1.3 -0.3,0.8 -0.5,1.7 -0.9,2.5 -0.1,0.4 -4.7,4.9 -5.1,5 m -3.7,2.7 v 0 c 0,0 0.9,-0.3 1.1,-0.4 0.2,-0.1 0.3,-0.5 0.6,-0.5 0.1,0.3 -1.6,2.9 -2.3,3.4 -1.3,1 -5,2.3 -5.1,2.4 -0.5,0.1 -0.8,0.1 -0.8,-0.4 0,-0.2 0,-0.3 0.1,-0.4 0.1,0 3.3,-1.1 3.9,-1.6 0,0 -3.2,0.6 -3.4,0.6 -0.1,-0.4 0.1,-0.9 0.5,-1 0.1,0 1.9,0 2.5,0 0,0 2,0.1 2.4,-0.4 0.5,-0.5 0.5,-1.4 0.5,-1.7 m -1.8,1.5 c 0,-0.3 0.3,-0.6 0.4,-0.8 0.2,-0.3 0.4,-0.5 0.6,-0.8 0.1,0 0.1,0 0.2,0 -0.1,0.5 -0.6,0.8 -0.8,1.2 -0.1,0.2 -0.2,0.4 -0.4,0.4 m 0.9,-7 c -0.1,0.4 -0.9,1.4 -1.1,1.6 0,0.2 -0.1,0.5 0.1,0.5 0.2,0 0.2,-0.2 0.3,-0.3 0.1,-0.1 0.6,-1 0.8,-1 0.3,0.1 -1,1.7 -1.1,2 -0.1,0.1 0,0.6 0.1,0.6 0.1,0 1,-1.4 1.2,-1.3 0,0 0,0 0,0 0,0.3 -1.2,1.9 -1.3,2 0,0.2 0.1,0.6 0.2,0.6 0.1,0 0.8,-1.2 1,-1.3 0.2,0.2 0,0.4 -0.1,0.5 -0.2,0.3 -1,1.4 -0.9,1.8 -0.2,0 -0.2,-0.1 -0.3,-0.1 0,-0.2 -0.2,-1.1 -0.2,-1.3 0,-0.1 -0.2,-2.2 -0.2,-2.4 0,-0.2 0,-0.6 0,-1 0.1,-0.1 0.9,-0.9 1.1,-1 0.2,0 0.3,0.1 0.4,0.1 m -0.3,-0.8 c -0.1,0.3 -1.1,1.5 -1.2,1.5 0,-0.3 0.2,-0.8 0.2,-0.9 0,-0.1 0.6,-0.7 0.8,-0.9 0.2,0 0.3,0.2 0.2,0.3 m -0.5,-1 c 0.3,0.1 -0.1,0.6 -0.3,0.8 -0.1,0.1 -0.3,0.3 -0.4,0.2 0.1,-0.4 0.4,-0.7 0.7,-1 m 1.1,-11.6 c 0.2,0 2.5,1.8 3.6,2.6 -0.1,0.1 -0.1,0.2 -0.1,0.3 -0.2,0 -0.4,-0.2 -0.6,-0.3 -1,-0.7 -3.1,-2.2 -3.1,-2.4 -0.1,-0.1 0.1,-0.2 0.2,-0.2 m 3,3.3 c 0.8,0.5 0.6,1.2 0.4,1.2 -0.2,0 -0.3,-0.3 -0.5,-0.4 -0.3,-0.2 -0.5,-0.3 -0.7,-0.5 0.4,0.5 0.6,0.9 1.2,1.2 -0.1,0.4 -1.4,1.7 -1.6,1.8 -0.2,0.1 -0.3,0.2 -0.5,0.2 -0.2,0 -3.4,-2.3 -3.6,-2.4 -0.1,-0.1 -0.5,-0.3 -0.5,-0.4 -0.1,-0.1 0.5,-1.5 0.7,-1.8 0.1,-0.3 1,-1.6 1.2,-1.7 0.3,0 0.8,0.4 0.9,0.5 0.1,0.1 3,2.3 3,2.3 m -6.9,1.1 c 0,-0.2 0.3,-0.2 0.5,-0.2 0.3,0.1 0.9,0.5 1.2,0.8 0.7,0.5 2.5,1.8 2.9,2 0.2,0.2 0.6,0.4 0.3,0.7 -0.4,-0.4 -1.2,-0.8 -1.4,-0.9 0.1,0.2 0.3,0.4 0.6,0.6 0.2,0.2 0.5,0.3 0.6,0.5 -0.3,0.1 -0.5,-0.2 -0.7,-0.3 -1.2,-0.9 -1.9,-1.4 -3.1,-2.2 -0.3,-0.2 -1.1,-0.5 -0.9,-1 m 4.1,3.8 c -0.1,0.2 -0.2,0.3 -0.3,0.5 -0.1,-0.2 -0.5,-0.6 -0.7,-0.7 -0.1,-0.1 -0.4,-0.3 -0.5,-0.1 0,0.2 0.2,0.4 0.3,0.5 0.2,0.2 0.4,0.3 0.7,0.4 -0.4,0.7 -0.8,1.3 -1.3,2.1 -0.2,-0.1 -4.5,-1.5 -4.6,-1.6 -0.1,-0.1 0,-0.4 0.1,-0.5 0.1,-0.1 0.8,-1.3 1,-1.6 0.2,-0.3 1.1,-1.8 1.2,-1.8 0.2,0 0.3,0.1 0.5,0.2 0.8,0.6 3.2,2.2 3.6,2.6 m -15,3.9 c 0.3,0 1.4,-0.2 1.6,0 0,0.2 -0.3,0.2 -0.5,0.2 -0.2,0 -1,0 -1.1,-0.1 z m -4.9,0.1 c 0.3,0 1.4,-0.2 1.6,0 0,0.2 -0.3,0.2 -0.5,0.2 -0.2,0 -1,0 -1.1,-0.1 z m 5.3,0.9 c 0.1,0 0.9,-0.2 1,0.1 -0.1,0.2 -0.7,0.1 -0.9,0.1 -0.1,0 -0.5,0.1 -0.6,-0.1 0.1,-0.2 0.4,-0.1 0.5,-0.1 m 0.4,0.9 v 0.1 c -0.2,0 -0.6,0.1 -0.8,0 0,-0.1 0.6,-0.1 0.8,-0.1 m 4.4,-6.9 c -0.4,-0.1 -1.8,-0.8 -2.6,-1.5 -0.5,-0.4 -0.9,-0.9 -1.3,-1.4 -0.3,-0.5 -1.1,-1.4 -1.1,-1.6 0,-0.2 0.1,-0.3 0.2,-0.2 0.3,0.1 0.4,0.5 0.6,0.8 0.9,1.3 2,2.5 3.4,3.2 0.4,0.2 0.9,0.4 1.4,0.6 0.1,0 0.4,0.1 0.4,0.3 -0.2,0 -0.6,-0.2 -1,-0.2 m -1.4,-1.7 c 0.6,-0.1 1.4,0.1 1.9,0.2 0.1,0.1 0.1,0.3 0.2,0.4 -0.3,0.1 -0.7,0.1 -1,0.1 -0.3,0 -0.5,-0.2 -0.7,-0.3 -0.2,-0.1 -0.4,-0.2 -0.4,-0.4 m -1.2,-4.5 c -0.7,0 -1.3,-0.1 -1.4,0 -0.2,-0.1 -0.2,-0.4 -0.3,-0.6 0,-0.2 -0.3,-1.4 -1.8,-1.3 -0.8,0.1 -1.5,0.5 -1.9,1.1 -0.2,0 -1.7,-0.1 -3.2,-0.6 -1.3,-0.4 -2.4,-1.2 -2.9,-1.5 -0.9,-0.8 -0.7,-0.5 -0.7,-0.9 0,-0.3 2.1,-4.9 6.9,-4.9 1.1,0 2.4,0.3 2.8,0.5 -0.1,0.2 -1.4,0.1 -1.6,0.1 v 0.2 c 0.3,0.1 2.4,0.1 2.9,0.3 0.2,0.1 0.4,0.2 0.4,0.4 -0.1,0.1 -1.2,0 -1.6,0 -0.1,0 -0.3,-0.1 -0.2,0.1 0.9,0.3 2.7,0 2.8,0.7 0.1,0.3 -0.5,0.1 -0.7,0.1 -0.1,0 0,0.1 -0.1,0.2 0.6,0.2 1.6,0.1 1.5,0.6 0,0.3 -0.9,-0.1 -1,0.2 0,0.3 0.8,0.2 1.3,0.3 0.1,0 0.4,0.3 0.4,0.5 -0.1,0.2 -1.2,0 -1.5,0 0,0 0.1,0.2 0.1,0.2 0,0 1.9,0.1 2,0.7 -0.3,0.2 -2,0 -2.5,0 0,0.1 0,0.1 0,0.2 0.6,0.1 1.4,0.1 2,0.2 0.1,0 0.5,0.1 0.6,0.1 0.1,0 0.3,0.3 0.2,0.5 -0.1,0.1 -1.2,0 -1.7,0 0,0.1 -0.1,0.2 -0.1,0.2 0.1,0 1.9,0.2 2,0.4 0.1,0.1 0.1,0.3 0,0.4 -0.1,0.1 -1.6,-0.1 -2,-0.1 -0.1,0 -0.4,-0.1 -0.3,0.1 0.3,0.1 2.2,0.3 2.4,0.4 0.2,0.1 0.3,0.5 0,0.6 -0.6,0 -1.1,-0.2 -1.7,-0.2 0,0.1 -0.1,0.2 -0.1,0.2 0.3,0.2 1.5,0.1 1.8,0.3 0.1,0.1 0.2,0.3 0,0.4 -0.4,0 -1.1,0 -2,-0.1 v 0.2 c 0.7,0.1 2.1,0.1 2.1,0.4 0,0.2 -0.2,0.3 -0.4,0.3 -0.6,0 -2.2,-0.1 -2.2,-0.1 0,0 0,0.1 0,0.2 0.3,0 2.3,0.1 2.4,0.3 0,0.1 0,0.3 -0.1,0.5 -0.5,0 -1,0 -1.5,-0.1 0,0 0,0.2 0,0.2 0.6,0 1.1,0 1.6,0.1 v 0.6 c -0.4,0 -0.9,0 -1.3,-0.1 0,0.1 -0.1,0.2 -0.1,0.2 0,0 1,0.1 1.4,0.1 0,0.2 0,0.4 0,0.6 -0.7,0 -1.3,-0.1 -2,-0.1 v 0.2 c 0.6,0.1 1.3,0.2 2,0.2 0.1,0.1 0.1,0.3 0.1,0.4 -0.3,0.1 -2,0.1 -2.4,-0.1 -0.1,-0.1 -1.2,-1.1 -1.3,-1.4 0,-0.1 0.2,-0.1 0.3,-0.1 v -0.1 c -0.2,-0.1 -0.4,0 -0.6,-0.1 -0.2,-0.1 -0.4,-0.4 -0.4,-0.5 0.1,-0.2 0.5,-0.1 0.8,-0.2 0,-0.2 -1,-0.1 -1.2,-0.4 -0.1,-0.1 -0.2,-0.2 -0.1,-0.3 0.1,-0.3 0.9,0 1.2,0 0,-0.1 0,-0.1 0,-0.2 -0.3,-0.1 -0.9,0.1 -1.1,-0.2 0,-0.2 0,-0.5 0.2,-0.6 0.2,0 0.7,0 1.4,0.1 z m -13,-3.4 c 0.1,-0.2 0.3,-0.5 0.4,-0.5 0.1,0 0.1,0.1 0.2,0.3 1.1,1.5 2.7,1.9 2.9,2.1 0,0.1 -0.2,0 -0.3,0.1 -0.1,0.1 0,0.1 0,0.1 0,0.1 1,0.2 1.3,0.2 0.3,0 1.4,0.4 2.1,0.5 v 0.1 c -0.1,0.1 -0.9,0 -1.1,0.1 v 0.2 c 0.6,0 1.5,0.1 1.8,0 0.1,0 0.2,0.1 0.1,0.1 -0.1,0.3 -1.7,0.9 -3.9,0.8 -1.5,-0.1 -2.4,-0.3 -3.8,-0.5 -1.2,-0.4 0.2,-3.4 0.3,-3.6 m -0.5,3.9 c 1.3,0.1 2.8,0.6 4.4,0.5 1,0 2.1,-0.1 3.2,-0.1 0.2,0 0.4,0 0.5,0.1 0,0.3 -1.2,0.4 -1.3,0.4 0,0.1 0.1,0.1 0,0.2 0.5,-0.1 1,-0.1 1.5,-0.2 -0.2,0.1 -0.4,0.4 -0.7,0.6 -0.3,0.2 -1.1,0.6 -1.9,1 -1,0.5 -4,1 -4.9,1 -1,0.1 -1.7,0.1 -2.6,0 0.1,0.1 1.3,-2.7 1.8,-3.5 m 0.1,4.5 c -0.6,0 -1.2,0 -1.9,-0.2 0,-0.4 0.4,-0.3 0.6,-0.2 2.5,0.2 4.8,-0.2 7,-0.9 1,-0.3 2.1,-1.1 3,-1.6 0,0 0.1,-0.1 0.2,0 0.1,0.3 -1.1,1 -1.6,1.3 -1.5,0.8 -5,1.6 -7.3,1.6 m 6.7,7.3 c 0.2,0 0.7,-0.2 0.8,0 0,0.2 -0.5,0.2 -0.8,0.1 z m -13,11.3 c -0.3,-0.3 -1.1,-1.2 -1,-1.4 0.1,-0.2 0.4,0 0.7,0.1 0.3,0.1 0.9,0.6 1.8,0.9 0.8,0.4 2.7,0.4 2.9,0.5 0.2,0.1 0.2,0.3 0.2,0.7 -0.1,0.1 -0.4,0.2 -0.8,0.2 -0.4,-0.1 -3,-1.1 -3,-1.2 0.5,0.6 1.3,1 1.9,1.3 0.6,0.3 1.8,0.7 2.2,0.7 0.4,0 0.7,0.2 0.5,0.5 -0.1,0.1 -0.5,0.4 -0.8,0.3 -2.3,-0.3 -4.7,-2.5 -4.6,-2.6 m -8.4,-3.8 c 0.2,-0.2 0.5,0 0.7,0.1 0.2,0.1 0.9,0.4 1,0.4 0.1,0 4.7,1.7 5,2.1 0.1,0.2 0.5,0.7 0.1,0.8 -0.5,0.1 -4.8,-1.9 -4.9,-1.9 0.2,0.4 0.7,0.5 1.2,0.8 0.6,0.3 4,2.3 4.1,2.3 0.1,0.1 0.2,0.4 0.4,0.6 0.1,0.2 0.3,0.4 0.4,0.6 -1.5,-0.1 -8,-4.4 -8,-5.8 m 5.5,-2.9 c 0.1,0.6 -0.8,0.1 -1.1,-0.2 -0.3,-0.3 -0.6,-0.4 -1,-0.9 -0.4,-0.5 -1.5,-2.2 -1.6,-2.5 -0.1,-0.1 -0.4,-0.7 -0.4,-0.9 0.1,-0.6 1.5,1 1.8,1.5 0.4,0.5 1.3,1.3 1.7,1.9 0.4,0.6 0.6,1 0.6,1.1 m 0.3,2.9 c -0.2,0 -1,-0.8 -1.2,-1.3 -0.2,-0.3 -0.6,-0.8 -0.5,-1 0,0 0,0 0,0 0.4,-0.1 1.3,0.9 1.3,0.9 0.2,0.1 0.2,0.4 0.1,0.7 0.1,0.2 0.5,0.4 0.3,0.7 m 5.3,-9.9 c 0.5,0.1 0.4,1.4 0.3,1.7 0,0.3 -2.3,0.5 -2.5,0.4 -0.3,-0.2 -0.5,-1 -0.4,-1.4 0.2,-0.4 2.2,-0.8 2.6,-0.7 m 0.4,3.6 c 0,0.4 -2.4,0.5 -2.5,0.1 -0.1,-0.4 -0.1,-1 0,-1.2 0.1,-0.2 2.4,-0.3 2.5,0 0.2,0.2 0,0.7 0,1.1 m 1.4,-4.3 c 0.4,-0.1 0.7,1.4 0.7,1.4 1,3.6 0,7.7 -0.2,7.7 -0.3,0.1 -0.8,0 -1,-0.1 -0.2,-0.1 1.6,-3.8 0.4,-8.1 -0.1,-0.2 -0.3,-0.8 0.1,-0.9 m 20.9,1 c -1.2,4.2 0.6,8 0.4,8.1 -0.2,0.1 -0.7,0.1 -1,0.1 -0.2,0 -1.2,-4.1 -0.2,-7.7 0,0 0.3,-1.5 0.7,-1.4 0.4,0 0.1,0.6 0.1,0.9 m -20.6,8.4 c 0.1,0 0,0.1 0,0.2 0.1,0.2 0.4,0.3 0.5,0.5 -0.5,0 -1.1,0 -1.6,0.1 0,0 0,-0.6 0.2,-0.7 0.3,-0.1 0.7,-0.1 0.9,-0.1 m 21,0 c 0.2,0.1 0.2,0.6 0.2,0.7 -0.5,-0.1 -1.1,0 -1.6,-0.1 0.1,-0.2 0.4,-0.3 0.5,-0.5 0,-0.1 -0.1,-0.2 0,-0.2 0.2,0.1 0.6,0.1 0.9,0.1 m -23.2,-2.8 c -0.4,0.1 -2,0.2 -2.1,-0.1 -0.1,-0.3 -0.1,-1.4 0.4,-1.5 0.5,-0.1 1.8,-0.2 2.1,0.1 0.2,0.4 0,1.3 -0.4,1.5 m -1.9,0.4 c 0.5,0 2.1,-0.1 2.1,0.3 0.1,0.3 -0.2,1.3 -0.7,1.4 -0.5,0.1 -1.2,0.1 -1.8,0 -0.5,-0.1 -0.1,-1.7 0.4,-1.7 m -1.2,3.5 c 0,-0.3 0.5,-1.3 0.8,-1.5 0.3,-0.2 1.3,-0.1 1.7,0 0.5,0.2 -0.2,1.5 -0.5,1.6 -0.4,0.1 -2,0.2 -2,-0.1 m 3.4,0.7 c 0.3,0.1 0.5,0.9 0.3,0.9 -0.2,0.1 -3.4,-0.6 -3.4,-0.6 0.4,0.4 1,0.6 1.6,0.8 0.6,0.2 2.2,0.8 2.3,0.8 0.1,0.1 0.1,0.2 0.1,0.4 0,0.4 -0.2,0.5 -0.7,0.4 -0.4,-0.1 -2.1,-0.5 -2.8,-0.8 -0.7,-0.3 -2.3,-1.4 -2.2,-1.7 0.2,-0.5 4.6,-0.3 4.8,-0.2 m 1,-8.6 c -0.5,0 -0.5,-0.5 -0.4,-0.7 0.1,-0.2 0.8,-0.1 0.8,0 0,0.1 0,0.3 0,0.4 0,0.3 -0.4,0.3 -0.4,0.3 m -0.3,-0.9 c -0.3,-0.1 -0.3,-0.9 0.4,-0.7 0.2,0 0.3,0.4 0.2,0.5 -0.2,0.1 -0.5,0.2 -0.6,0.2 m -0.3,-1.1 c 0,-0.3 0.7,-0.4 0.7,-0.1 0,0.2 -0.6,0.3 -0.7,0.1 m 22.2,1.8 c 0,-0.1 0,-0.3 0,-0.4 0,-0.1 0.7,-0.2 0.8,0 0.1,0.2 0,0.7 -0.4,0.7 0,-0.1 -0.4,-0.1 -0.4,-0.3 m 0.1,-0.9 c -0.1,-0.1 0,-0.5 0.2,-0.5 0.7,-0.2 0.7,0.6 0.4,0.7 -0.1,0 -0.4,-0.1 -0.6,-0.2 m 0.2,-1 c 0,-0.3 0.7,-0.2 0.7,0.1 -0.1,0.2 -0.7,0.1 -0.7,-0.1 M 268.9,162 c 1.3,-1 2.4,-1.8 3.7,-2.8 0,0 0.2,0.4 0.1,0.5 -0.2,0.2 -0.7,0.5 -0.7,0.5 0,0 -1.7,1.4 -2.8,2.1 -0.2,-0.1 -0.2,-0.3 -0.3,-0.3 m 2.5,3.9 c 0,-0.1 0.3,-0.3 0.4,-0.4 0.5,-0.4 0.9,-0.8 1.3,-1.2 -0.3,0.1 -0.6,0.3 -0.9,0.5 -0.4,0.3 -0.8,0.5 -1.1,0.9 -0.2,0 -0.4,-0.2 -0.4,-0.3 0,-0.1 0.2,-0.3 0.4,-0.4 0.2,-0.2 0.9,-0.9 1.2,-1.2 -0.5,0.2 -1.7,1.4 -1.9,1.4 -0.1,0 -0.3,-0.1 -0.3,-0.3 0,-0.4 0.8,-0.7 0.8,-1 -0.2,0 -0.8,0.6 -0.9,0.6 -0.1,0 -0.2,-0.1 -0.2,-0.3 0,-0.4 0.9,-0.8 0.9,-1.2 -0.2,0.1 -1,0.8 -1.2,0.8 -0.3,0 -0.4,-0.9 0.5,-1.4 0.6,-0.4 3.4,-2.5 3.8,-2.6 0.2,0 0.6,0.5 0.7,0.7 0.1,0.2 0.4,0.6 0.7,1.1 0.2,0.6 0.6,1.2 0.6,1.8 -0.3,0.3 -3.8,2.8 -3.9,2.8 -0.1,0 -0.5,-0.1 -0.5,-0.3 m 0.7,1.4 c 0.1,-0.1 0.2,-0.2 0.3,-0.3 0.3,-0.2 0.6,-0.5 0.9,-0.8 -0.4,0.1 -1,0.3 -1.1,0.6 -0.1,0.1 -0.1,0.3 -0.2,0.3 -0.1,0 -0.2,-0.1 -0.1,-0.3 0.1,-0.3 0.7,-0.6 0.9,-0.7 0.9,-0.7 1,-0.8 1.9,-1.5 0.6,-0.4 1,-0.8 1.7,-1.1 0.3,-0.1 0.5,0.3 0.3,0.5 -0.1,0.3 -0.6,0.5 -0.8,0.7 -0.6,0.4 -0.9,0.6 -1.5,1 -0.6,0.5 -0.9,0.8 -1.5,1.3 -0.3,0.1 -0.5,0.4 -0.8,0.3 m 0.6,0.3 c 1.2,-1 2.5,-2 3.8,-2.8 0.2,-0.1 1.5,1.9 2,2.7 0.1,0.2 0.4,0.6 0.3,1 -0.1,0.3 -4.3,1.7 -4.4,1.6 -0.2,-0.3 -1.1,-1.7 -1.7,-2.5 m 1.1,3.2 c 0.3,-0.3 0.8,-0.5 0.9,-0.1 0.1,0.4 0.2,2.9 0.2,3.4 0,0.5 -0.1,1.6 -0.1,1.8 0,0.2 -0.2,1.2 -0.3,1.6 -0.1,0.4 -0.4,1.6 -0.6,1.9 -0.1,0.3 -0.4,0.8 -0.7,0.8 -0.3,0 -0.4,-0.4 -0.5,-0.7 -0.1,-0.3 -0.3,-1.4 -0.4,-2.1 0,-0.8 0.2,-2.7 0.4,-3.4 0.1,-1.2 0.8,-2.9 1.1,-3.2 m -18.5,-9.1 c 0.4,0 11.7,4.7 17,10 0.2,0.2 0.2,0.4 0,0.5 -0.1,0.1 -0.3,-0.3 -0.4,-0.4 -0.4,-0.4 -0.9,-0.9 -1.4,-1.2 0.1,0.2 1.6,1.8 1.7,1.9 0.1,0.1 0.2,0.7 -0.1,0.7 -0.1,0 -0.2,-0.2 -0.3,-0.3 -0.4,-0.4 -0.9,-0.9 -1.3,-1.3 0.2,0.3 1,1.4 1.2,1.5 0.2,0.3 0.6,0.6 0.2,1 -0.2,0 -0.2,-0.2 -0.3,-0.3 -0.2,-0.2 -0.8,-1 -1,-1 0,0.2 1.7,1.7 1.2,2.5 -0.2,0 -0.3,-0.2 -0.4,-0.4 -0.7,-0.9 -4.8,-5.3 -6.5,-6.7 -1.7,-1.5 -9.1,-6 -9.4,-6.2 -0.2,-0.2 -0.3,-0.3 -0.2,-0.3 m 20.9,27.3 c 0,-0.2 0.1,-0.2 0.2,-0.3 -0.3,-0.1 -0.7,0.3 -1.2,0.3 -0.4,0 -0.9,0 -1,-0.3 0,-0.3 0.5,-0.2 0.6,-0.4 -0.5,-0.1 -1,0.2 -1.6,0.2 -0.3,0 -0.6,-0.2 -0.8,-0.4 0,-0.1 0,-0.2 0,-0.3 -0.5,-0.1 -1.5,-0.1 -1.2,-0.8 -0.1,-0.2 -0.3,-0.1 -0.5,-0.1 -0.2,0 -0.4,-0.2 -0.5,-0.3 -0.1,-0.1 -1.5,-2 -1.6,-2.2 -0.1,-0.2 -0.6,-0.8 -0.2,-0.9 0.2,-0.1 3.5,1.8 6.7,3.1 0.3,0.1 0.3,0.3 0.3,0.4 0,0.1 -0.3,0.3 -0.4,0.3 -0.2,0 -0.5,0 -0.6,-0.1 -0.2,-0.1 -2.8,-1 -3.1,-1.1 0,0.2 0.6,0.4 0.7,0.5 0.5,0.3 1.2,0.6 1.8,0.8 0.6,0.2 1.1,0.4 1.8,0.5 0.4,0.1 1.9,0.3 1.9,0.7 0.1,0.6 -1,0.8 -1.3,0.4 m 1.5,-1.8 c 0.2,0.4 2.5,1.2 2.5,1.4 0,0.2 -0.4,0.3 -0.8,0.4 -0.4,0.1 -1.2,-0.4 -1.8,-0.8 -1.8,-1.3 -3.2,-3.3 -3.5,-3.8 -0.1,-0.2 -0.4,-0.5 -0.1,-0.6 0.4,0.3 2.9,3.4 6.4,3.4 0.3,0 0.9,0.7 0.6,0.9 -0.6,0.2 -2.9,-0.7 -3.3,-0.9 m 9.3,3.1 c -0.2,0 -4.2,0 -5.9,-0.1 0,-0.2 -0.3,-1.5 0,-1.6 0.1,0 4.7,0 6.4,-0.1 h 0.5 v 1.9 c 0,-0.1 -0.8,-0.1 -1,-0.1 m -7.9,6.2 c 0.3,-0.6 1.1,-1.7 1.1,-1.7 0.1,0 0.6,-0.1 0,0.8 -0.2,0.2 -0.3,0.4 -0.4,0.6 -0.3,0.5 -0.7,1.2 -0.8,1.2 -0.4,-0.2 -0.1,-0.7 0.1,-0.9 m 3.6,-0.1 c -0.1,-0.1 -0.1,-0.4 0,-0.5 0.2,-0.2 1.5,0.1 1.6,0.1 0.1,0 0.1,0.1 0.1,0.2 0,0.4 -0.2,0.4 -0.4,0.5 -0.1,-0.1 -1.2,-0.3 -1.3,-0.3 m 1.9,-0.7 c -0.1,0.2 -0.5,0.1 -0.8,0 -0.5,0 -0.8,-0.1 -0.8,-0.2 0,0 0,-0.1 -0.1,-0.1 0.1,-0.4 0.9,-0.1 1.2,0 0.3,0 0.6,0 0.5,0.3 m 0,0.5 c 0.1,-0.2 0.1,-0.5 0.1,-0.6 0.1,-0.2 0.4,-0.1 0.5,0.1 0,0.1 -0.1,0.5 -0.1,0.7 -0.1,0.5 -0.2,0.9 -0.3,1.5 -0.1,0.2 -0.1,0.6 -0.3,0.6 -0.2,0 -0.3,-0.1 -0.3,-0.2 0.1,-0.4 0.3,-1.4 0.3,-1.4 0.1,-0.3 0.1,-0.5 0.1,-0.7 M 282,196 c -0.2,0.4 -0.4,0.9 -0.6,1.4 -0.1,0.2 -0.2,0.6 -0.4,0.5 -0.3,0 -0.1,-0.5 0.1,-0.9 0.2,-0.4 0.4,-0.8 0.5,-1.3 0.1,-0.2 0.2,-0.6 0.4,-0.6 0.5,0 0.1,0.7 0,0.9 m -1.3,1.5 c 0,0.1 -0.1,0.2 -0.2,0.2 -0.2,0 -0.9,-0.2 -0.9,-0.4 0.1,-0.4 1.1,0.1 1.1,0.2 m -0.8,-0.7 c -0.1,-0.6 0.9,-0.3 0.9,-0.3 0.1,0 0.2,0 0.2,0.2 0,0.2 -0.2,0.4 -0.3,0.4 -0.1,0 -0.4,-0.1 -0.4,-0.1 -0.2,0.1 -0.4,-0.2 -0.4,-0.2 m 1.5,-1.1 c -0.2,-0.1 -0.7,0 -0.6,-0.3 0,-0.2 0.1,-0.2 0.2,-0.3 0.4,-0.3 1.1,0.4 0.4,0.6 m 0,0.4 c 0,0.2 -0.1,0.5 -0.3,0.4 -0.2,-0.1 -0.6,-0.1 -0.7,-0.4 0,-0.1 0.1,-0.3 0.2,-0.3 0.2,-0.1 0.7,0.1 0.8,0.3 m -17.6,31.7 c -0.1,-0.1 -1,-1.5 -1.2,-1.8 -0.2,-0.3 -1.1,-2 -1.4,-2.5 -0.2,-0.4 -1.8,-3.9 -2.4,-6.4 -0.5,-2.3 -0.6,-4.4 -0.5,-5.4 0.4,-5.6 0.6,-5.4 1,-7.5 0,-0.1 1.4,1.9 1.9,2.7 1.6,2.5 5.9,6.1 6.2,6.3 0.3,0.2 0.6,0.3 0.4,0.6 -0.1,0.3 -0.9,2.4 -0.9,2.7 -0.1,0 -0.2,-0.1 -0.2,-0.2 -0.2,-0.2 -0.4,-0.5 -0.7,-0.8 -1,-0.9 -2.4,-2.8 -2.6,-3.1 -0.2,-0.3 -2.1,-2.9 -2.4,-3.4 -0.3,-0.5 -0.6,-1.1 -0.8,-1.1 0,0 -0.4,0 -0.3,2.6 0,2.6 0.3,8.7 5.6,16.1 0,0 0.2,0.3 -0.2,0.7 -0.2,0.2 -0.5,0.4 -0.7,0.6 0,0 -0.1,0 -0.2,0 -0.2,0.3 -0.4,0 -0.6,-0.1 m 25.7,14.6 c 0,0 -0.2,-10.8 -0.2,-10.8 0,-0.2 -0.3,-0.2 -0.6,-0.2 0,0 -3.8,-0.1 -4.6,-0.2 -0.9,-0.1 -3.6,-0.6 -5.3,-1.2 -4.9,-1.7 -8.3,-4.4 -8.9,-4.9 -4,-3.6 -6.4,-7.5 -7.6,-10.1 -1.2,-2.5 -1.5,-3.3 -1.6,-3.8 -0.1,-0.2 -0.1,-0.5 -0.4,-0.6 -0.2,0.1 -0.1,0.4 -0.1,0.6 0.1,0.5 0.5,1.6 0.5,1.8 0.5,1.3 1.1,2.6 1.8,3.7 0.2,0.4 0.9,1.5 0.9,1.8 -0.1,-0.1 -1.2,-1.8 -1.6,-2.6 -0.3,-0.6 -1,-2.3 -1.2,-2.4 -0.2,0.6 0.1,1.1 0.3,2 0.2,0.9 1.1,3.5 1.4,4.1 0.3,0.6 1,1.7 1.6,2.4 0.2,0.3 0.5,0.6 0.6,1 -0.2,-0.1 -1.8,-2.2 -2.2,-2.7 0.1,0.4 0,0.3 0.3,1.1 1,2.2 3,3.9 3.3,4.1 0.2,0.2 1.3,1.3 1.4,1.4 0.1,0.1 1.5,1.2 1.5,1.4 -0.5,-0.3 -1,-0.6 -1.4,-1 -0.4,-0.4 -1.8,-1.7 -2.4,-2.4 -0.3,-0.2 -0.2,0.1 -0.2,0.1 1.8,2.3 5,5.4 9.8,7.3 8.2,3.5 12.2,4.3 14.9,10.1 z m 0.3,-20.3 c 0.7,0 1.6,0 2.3,-0.1 0.1,-0.1 0,-0.1 0,-0.2 -0.8,0 -1.5,0 -2.3,0 v -0.6 c 0.4,0 2.2,0 2.2,-0.3 0,-0.2 -1.6,0.1 -2.2,-0.1 v -0.5 c 0.4,-0.1 1.9,-0.1 1.9,-0.3 0,-0.2 -1.5,0 -1.9,-0.1 v -0.6 c 0.5,-0.1 2.3,-0.1 2.3,-0.3 0,-0.2 -1.6,-0.1 -2.3,-0.1 v -0.7 c 0.6,0 2.3,0.1 2.3,-0.1 0,-0.2 -1.8,-0.1 -2.3,-0.2 v -0.7 c 0.3,0 1.9,0.1 1.9,-0.1 0,-0.2 -1.6,-0.2 -1.9,-0.2 0,-0.1 0,-0.4 0,-0.6 0.6,-0.1 2.3,0 2.3,-0.2 0,-0.2 -1.8,-0.1 -2.3,-0.2 v -0.6 c 0.3,-0.1 2,-0.1 2,-0.3 0,-0.2 -1.6,-0.1 -2,-0.2 v -0.6 c 0.7,-0.1 2.3,0.1 2.3,-0.2 0,-0.2 -1.7,-0.1 -2.3,-0.2 v -0.7 c 0.3,0 2.1,0 2.1,-0.2 0,-0.2 -1.7,-0.2 -2.1,-0.2 v -0.6 c 0.3,0.1 1.8,-0.1 1.8,-0.2 0,-0.1 -1.5,-0.1 -1.8,-0.2 v -0.6 c 0.8,0 1.7,0 2.3,-0.2 0,-0.1 0.1,-0.2 0.1,-0.2 0,0 -2.1,0.1 -2.4,0 v -0.6 c 1.3,0.1 4.2,-0.3 4.3,-0.3 0.2,0 0.9,-0.3 1.3,-0.1 0.2,0.7 -1.8,0.9 -2.3,0.9 0.1,0.3 1.7,0.1 2,0.1 0.4,0 0.4,0.2 0.5,0.5 -0.2,0.2 -1.9,0.3 -1.9,0.5 0.2,0.2 1.6,0 1.8,0 0.1,0.1 0.2,0.2 0.2,0.5 -0.4,0.5 -1.5,0.1 -1.9,0.6 0.2,0.1 1.8,-0.1 1.9,0.1 0.1,0.1 0.1,0.4 0,0.5 -0.1,0.2 -2,0.3 -2,0.5 0,0.1 1.7,-0.1 1.9,0 0.1,0.1 0.2,0.2 0.2,0.4 -0.1,0.3 -0.8,0.3 -1.2,0.4 -0.2,0 -0.5,0.1 -0.5,0.2 0,0.2 1.6,0 1.7,0 0.1,0.1 0.2,0.2 0.2,0.4 -0.1,0.4 -1.1,0.3 -1.4,0.6 0,0.2 0.2,0.1 0.3,0.1 0.4,0 0.7,-0.1 1,-0.2 0.2,0.1 0.2,0.3 0.2,0.5 -0.1,0.2 -2.1,0.5 -2.1,0.6 0,0.2 0.5,0.1 0.6,0 0.5,-0.1 1,-0.2 1.5,-0.2 0.1,0.1 0.2,0.4 0.2,0.5 0,0.1 -1.2,0.4 -1.3,0.6 0.1,0.1 0.2,0.1 0.4,0.1 0.6,0 1.3,-0.5 1.3,0.4 -0.3,0.2 -1.7,0.4 -2,0.6 0.1,0.2 0.4,0.1 0.7,0.1 0.5,-0.1 1,-0.2 1.5,-0.2 0.1,0.1 0.4,0.3 0.3,0.5 -0.1,0.2 -2.2,0.4 -2.2,0.6 0.1,0.1 0.4,0 0.6,0 0.4,0 1.7,-0.3 1.8,-0.3 0.1,0 0.4,0.4 0.3,0.5 -0.1,0.1 -0.2,0.1 -0.4,0.1 -0.5,0.1 -1.1,0.3 -1.7,0.4 -0.1,0 -0.3,0 -0.3,0.1 0.1,0.1 0.3,0.1 0.4,0 0.4,0 2.4,-0.5 2.5,0.1 -0.5,0.3 -1.3,0.4 -1.9,0.6 -0.1,0 -0.3,0 -0.3,0.1 0.1,0.2 2.4,-0.4 2.6,-0.4 0.1,0 0.6,0.3 0.5,0.5 0,0.1 -0.6,0.2 -0.7,0.2 -0.8,0.1 -1.6,0.3 -2.4,0.4 0,0.1 0.1,0.1 0.1,0.2 0.9,-0.1 1.9,-0.3 2.9,-0.4 0.5,0 1,-0.2 1.2,0.3 -0.3,0.2 -3.2,0.7 -3.4,0.9 0.1,0.2 0.3,0.1 0.4,0.1 0.9,-0.1 1.8,-0.3 2.6,-0.5 0.3,-0.1 0.7,-0.3 1,-0.2 0.1,0 1.2,0.3 0.7,0.5 -0.4,0.2 -3.9,0.9 -4,0.9 -0.1,0 -0.4,0 -0.4,0.2 0.5,0.2 5.2,-1.1 5.6,-1.1 0.2,0 0.9,0.1 1.4,0 -0.1,0.2 -4.5,1.4 -5.3,1.5 0,0.1 0.1,0.2 0.1,0.3 2,-0.3 5.3,-1.5 5.9,-1.7 1.7,-0.8 3.6,-2 4.5,-2.8 4.6,-3.9 6.2,-6.5 7.6,-8.3 1.3,-1.8 1.9,-2.8 1.9,-2.8 0.1,0.4 -0.1,0.7 -0.2,1.2 -0.2,0.5 -1,2.7 -1.2,3.2 -0.2,0.5 -0.8,1.5 -1,1.9 -0.2,0.5 -0.8,1.3 -1.1,1.8 -1.1,1.6 -4.4,5.9 -5.3,6.6 -0.9,0.7 -1.2,1.1 -3.3,2.6 -2.1,1.5 -8.3,3.8 -13.8,4 -1.8,0 -2,0.1 -2.7,0.1 -0.2,0 -0.2,-0.5 -0.1,-0.6 0.7,0 3,-0.1 3.1,-0.3 0,-0.2 -2.4,-0.1 -3,-0.1 -0.1,-0.1 -0.1,-0.6 0,-0.6 0.6,0 2.1,0 2.2,-0.4 0,-0.2 -1.5,0 -2.2,-0.1 -0.2,-0.1 -0.1,-0.5 0.1,-0.6 0.3,0 0.4,0 0.6,0 0.3,0 2.1,-0.2 2.1,-0.4 0,-0.2 -2.6,0 -2.8,-0.1 -0.2,-0.1 -0.1,-0.6 0.1,-0.7 0.6,-0.1 2.6,-0.2 2.6,-0.3 0,-0.2 -2.4,0 -2.6,0 -0.2,-0.1 -0.2,-0.6 0,-0.7 0.1,0 2.6,0 2.6,-0.3 0,-0.3 -2.8,0.2 -2.8,-0.3 0,-0.4 2.3,-0.3 2.3,-0.6 0,-0.2 -1.4,0 -2.1,0 -0.2,-0.1 -0.2,-0.6 0,-0.7 0.8,0 2.3,0 2.3,-0.2 0,-0.2 -1.7,-0.2 -2.3,-0.2 -0.2,-0.1 -0.1,-0.4 0,-0.5 0.1,-0.2 2.1,0.1 2.2,-0.2 0.1,-0.3 -1.7,-0.2 -2.3,-0.3 v -0.4 z m 0,-12.5 c 0.7,-0.1 1.7,-0.1 2.5,-0.2 0.7,-0.1 1.5,-0.2 2.2,-0.3 0.3,0 0.7,-0.3 0.9,0 -0.2,0.4 -0.7,0.4 -1.2,0.5 -1.3,0.2 -3.1,0.3 -4.5,0.3 m 6.3,-1.1 c -0.3,-0.3 0.1,6.2 1.3,9.1 1.3,3.1 3.7,5.3 7.1,4.8 2.2,-0.4 5.4,-3.2 5.5,-3.3 0.1,-0.2 -0.4,0.1 -0.4,0.1 -2.7,0.6 -3.3,-0.9 -3.3,-1.4 0,-0.3 0.4,-0.4 0.4,-0.7 0,-0.3 -0.2,-0.6 -0.5,-0.7 -0.4,-0.1 -0.8,0.1 -1.1,0.3 -0.9,0.4 -1.3,0.4 -2,0.6 -0.8,0.2 -1.6,0.3 -1.9,0.2 -0.3,-0.1 -0.6,-0.6 -0.6,-0.8 0,-0.3 0.1,-0.5 0.1,-0.7 0,-0.6 -0.2,-0.8 -0.5,-1.1 -0.2,-0.2 -0.3,-0.4 -0.5,-0.6 -0.3,-0.1 -0.7,-0.1 -0.9,-0.2 -0.1,-0.3 -0.1,-0.8 0,-1 0.1,-0.6 -2.2,-4.1 -2.7,-4.6 m 10.4,7.3 c 0.2,-0.3 2,-1.6 2.3,-1.7 0.2,-0.1 0.5,0.7 0.6,0.9 -0.3,0.4 -1.8,1.5 -2.2,1.7 -0.2,-0.3 -0.5,-0.6 -0.7,-0.9 m 12.6,-5.8 c 0,0 0.2,-0.2 0.1,0.2 -0.2,1.5 -2,5.1 -2.5,6.1 -0.5,1 -3.9,5.7 -4.1,5.9 -0.2,0.2 -2.6,2.8 -3.6,3.6 -1,0.8 -2.3,1.7 -3.4,2.3 -0.7,0.4 -5,2.3 -8.1,2.8 -3.9,0.6 -7.7,0.4 -7.7,0.3 0,-0.1 0.4,-0.1 0.5,-0.1 1.3,-0.1 4.7,-0.2 5.4,-0.3 0.7,-0.1 2.6,-0.4 3.4,-0.6 0.7,-0.2 3.1,-1 4,-1.3 0.8,-0.3 2.5,-1.3 3.4,-1.8 0.9,-0.6 2.3,-1.7 3,-2.3 0.7,-0.5 4.2,-4.6 4.9,-5.6 0.7,-1 2.8,-4.5 3,-4.9 0.2,-0.4 1.2,-2.8 1.7,-4.3 m -28.6,31.5 c -0.2,0 -0.5,-0.1 -0.6,-0.2 0,-0.2 0.6,-0.2 0.8,-0.2 0,0.1 -0.1,0.2 -0.2,0.4 m 0.5,-0.8 c -0.2,0 -1,-0.1 -1,-0.3 0,-0.1 1.1,-0.3 1.4,-0.3 -0.2,0.2 -0.3,0.4 -0.4,0.6 m 0.4,-0.9 c -0.1,0 -1.5,0 -1.5,-0.4 0,-0.3 1.7,-0.3 2,-0.3 -0.2,0.2 -0.4,0.4 -0.5,0.7 m 0.8,-1 c -0.6,0 -2.9,0 -2.2,-0.6 0.8,0 2,-0.1 2.8,-0.2 -0.1,0.2 -0.5,0.7 -0.6,0.8 m 1.1,-1.1 c -0.6,0.3 -1.6,0.1 -2.4,0.1 -0.3,0 -0.9,0 -0.9,-0.2 0,-0.3 1.5,-0.3 1.8,-0.4 0.8,-0.1 1.7,0 2.3,-0.3 -0.4,0.3 -0.7,0.6 -0.8,0.8 m 1.3,-1.1 c -0.8,0.2 -1.7,0.4 -2.7,0.3 -0.1,0 -1.9,0 -1.9,-0.2 0,-0.3 3.9,-0.5 4.6,-0.6 0.3,-0.1 0.8,-0.2 1.2,-0.2 -0.2,0 -0.9,0.5 -1.2,0.7 m 1.7,-1.1 c -0.2,0.1 -1.4,0.2 -1.8,0.2 -0.1,0 -2.4,0.2 -3,0.2 -0.4,0 -1.6,0 -1.6,-0.2 -0.1,-0.4 1.4,-0.4 2.1,-0.4 2.7,0 5.4,-0.6 6.1,-0.8 -0.5,0.3 -1.7,0.9 -1.8,1 m 7.8,-3.3 c -4.6,1.7 -5.7,2 -6.4,2.1 -0.3,0 -0.6,0.1 -1,0.2 -0.3,0 -1.8,0.3 -2.3,0.4 -0.6,0.1 -4.1,0.3 -4.3,0.1 -0.2,-0.2 -0.5,-0.5 0.4,-0.5 0.6,0 1.3,0 2,0 0.8,-0.1 3.9,-0.4 4,-0.6 -0.9,-0.1 -4.2,0.4 -5,0.3 -0.1,0 -1.6,0.1 -1.5,-0.3 0,-0.3 0.4,-0.3 0.6,-0.3 0.2,0 2.3,0 3.1,-0.2 0,0 0.2,0 0.2,-0.1 0,-0.1 0,-0.1 -0.2,-0.1 -0.3,0 -2,0.1 -2.6,0 -0.1,0 -1,0.1 -1,-0.2 -0.1,-0.4 0.5,-0.4 0.9,-0.4 1.7,0 3.5,-0.1 5,-0.4 0.3,0 2.5,-0.4 3.1,-0.6 0.1,0 0.3,0 0.3,-0.2 -0.7,0.1 -4.1,0.8 -8.7,0.8 -0.3,0 -0.7,0 -0.7,-0.2 0,-0.2 0.7,-0.3 0.8,-0.3 0.6,0 2.5,-0.1 2.6,-0.1 0.8,0 2.3,-0.2 4.3,-0.6 2,-0.3 2,-0.4 3.2,-0.8 1.2,-0.4 3.8,-1.3 5.1,-2 1.9,-1.1 5,-3.3 7.4,-6.6 0.7,-1.1 3.2,-4.2 4.5,-7.1 0.4,-0.7 0.6,-1.5 1,-2.2 h 0.1 c 0.1,0.3 -0.1,0.6 -0.1,0.8 -0.4,1.8 -1.9,4.4 -2.1,4.8 -0.2,0.4 -1.6,2.4 -1.7,2.7 -0.2,0.3 -0.7,0.8 -0.9,1.4 0.3,0 0.6,-0.5 0.8,-0.7 0.2,-0.3 1.3,-1.7 1.8,-2.5 0.5,-0.8 1.5,-2.9 1.7,-3.3 0.2,-0.4 0.1,-0.4 0.3,-0.4 0.1,0.2 0,0.5 -0.1,0.7 -0.2,0.6 -0.5,1.2 -0.8,1.8 -0.3,0.6 -1.6,2.3 -1.6,3 0.1,0 1.5,-2.3 1.7,-2.4 0.1,0.2 -0.4,1.4 -0.8,2.2 -0.4,0.8 -3.4,4.5 -3.6,4.8 -0.2,0.2 -0.7,0.7 -0.9,1.1 0.1,0 0.2,-0.1 0.3,-0.2 1.3,-0.9 3.3,-4 3.7,-4.3 -0.1,0.5 -1.5,2.6 -2.2,3.5 -0.8,0.7 -5.2,5 -10.4,6.9 m 10.9,-4.4 c -0.3,-0.2 -0.5,-0.5 -0.7,-0.6 l -0.1,-0.1 c 0,-0.1 0,-0.2 0.4,-0.7 5.1,-6.3 5.1,-13.6 5.1,-17.8 0,-0.3 -0.2,-0.9 -0.3,-0.9 -0.1,0 -0.4,0.4 -0.5,0.5 -0.1,0.1 -4.7,6.4 -5.5,7.1 -0.7,0.8 -0.6,0.7 -1.1,0.9 -0.2,-0.8 -0.5,-1.7 -0.8,-2.5 -0.1,-0.2 -0.2,-0.4 -0.2,-0.5 0,-0.2 0.3,-0.4 0.6,-0.6 1.9,-1.4 6.8,-6.3 8,-8.8 0,0 0,0 0,0 0.1,0.4 0.2,0.8 0.3,1.3 0.8,2.7 0.7,5.7 0.6,6.5 -0.1,0.9 0.1,6.4 -2.8,11.8 -0.2,0.4 -1,1.8 -1.4,2.4 -0.3,0.6 -0.7,1.1 -1.1,1.7 -0.1,0.2 -0.4,0.4 -0.5,0.4 0.1,-0.1 0,-0.1 0,-0.1 m -4.5,-12.6 c 0.3,-0.2 0.7,-0.6 0.9,-0.1 -0.4,0.3 -0.8,0.7 -1.2,1.1 0.5,-0.1 1,-0.4 1.4,-0.6 0,0.1 0,0.2 0.1,0.3 -0.4,0.5 -0.9,0.9 -1.3,1.4 0.3,0 0.5,-0.1 0.8,-0.2 0.1,-0.1 0.3,-0.2 0.4,-0.3 0,0.2 -0.1,0.4 -0.2,0.5 -1.1,1.7 -3,1.9 -3.9,1.4 -0.3,-0.1 -0.7,-0.5 -0.7,-0.7 0,-0.2 3.1,-2.4 3.7,-2.8 m -0.3,-3.4 c -0.2,0.3 -0.4,0.6 -0.7,1 -0.3,0.3 -4.4,3.3 -5,3.6 -0.3,0.2 -0.7,0.3 -1.1,0.3 0,-0.2 6.3,-4.9 6.9,-5.3 v 0 c 0.2,0.1 0,0.2 -0.1,0.4 m 1.1,-2.5 c 0.4,0.2 -0.2,0.5 -0.4,0.7 -3,2.2 -6,4.4 -9,6.6 -0.2,0.1 -0.4,0.5 -0.7,0.2 0,-0.1 9.7,-7.3 10.1,-7.5 m -0.6,-0.3 v 0 c 0.1,0.1 -0.1,0.2 -0.2,0.3 -2.3,1.7 -8.5,6.3 -9.2,6.8 -0.1,0.1 -0.2,0.2 -0.3,0.1 0,-0.3 0.3,-0.4 0.4,-0.6 1.1,-0.7 8.9,-6.3 9.3,-6.6 m 2.4,-17.4 c 0,0 0.9,-0.8 2.2,-0.9 1.3,-0.1 2.4,0.5 3.5,1.9 0.5,0.7 1.1,1.6 1.3,2.8 0,0.1 0,0.2 0,0.3 0,0.4 -1.1,-0.1 -1.7,-0.1 -1,0 -2.3,0.9 -3.2,1.7 -0.6,0.5 -2,1.8 -2.8,2.5 -0.8,0.7 -10,8.7 -22.8,8.7 -15.1,0 -24.3,-10.2 -25.2,-11 -0.9,-0.8 -2.2,-1.8 -3.3,-1.8 -0.6,0 -1.7,0.4 -1.7,0.1 0,-0.1 0,-0.2 0,-0.3 0.2,-1.2 0.8,-2.1 1.3,-2.8 1,-1.3 2.2,-2 3.5,-1.9 1.3,0.1 2.2,0.9 2.2,0.9 1.4,1 10.9,10.3 22.9,10.3 12.8,0 22.3,-9.3 23.5,-10.2 0.1,0 0.2,-0.1 0.3,-0.2 m -11.7,5.7 c 0,0.2 -0.9,0.5 -1.1,0.5 -0.9,0.3 -1.5,0.6 -2.4,0.8 -0.5,0.2 -1,0.3 -1.5,0.4 -0.7,0.1 -1.4,0.3 -2.1,0.4 v 0.2 c 1.9,-0.2 3.9,-0.7 5.5,-1.2 0.5,-0.1 0.8,-0.2 1.2,-0.4 0.2,-0.1 0.5,-0.2 0.6,0 -0.1,0.3 -0.4,0.4 -0.7,0.5 -0.3,0.1 -0.6,0.2 -0.8,0.3 -0.5,0.2 -1.1,0.4 -1.7,0.6 -0.6,0.2 -1.2,0.3 -1.8,0.5 -0.5,0.1 -0.9,0.2 -1.4,0.3 -0.1,0 -0.4,0 -0.3,0.2 1.4,-0.1 2.8,-0.5 4,-0.8 0,0.2 -0.2,0.2 -0.2,0.2 -1.1,0.4 -2.4,0.8 -3.7,1.1 -1.2,0.2 -2.5,0.5 -3.8,0.6 -1.8,0.1 -3.8,0.1 -5.5,-0.2 -0.4,-0.1 -2.7,-0.5 -3.5,-0.8 -0.3,-0.1 -3.9,-1.5 -4.7,-1.9 0,-0.1 0.2,-0.3 0.3,-0.4 0.9,0.2 3.3,0.9 3.6,0.8 -0.1,-0.3 -2.5,-0.9 -3.2,-1.2 0,-0.1 0.2,-0.3 0.2,-0.4 3,0.7 6.7,1.5 10.3,1.6 1.5,0.1 3.1,-0.1 4.5,-0.2 0.9,-0.1 1.7,-0.3 2.5,-0.4 0.4,-0.1 0.8,-0.1 1.2,-0.2 0.5,-0.1 0.9,-0.2 1.4,-0.3 0.5,-0.1 1,-0.3 1.5,-0.5 0.1,0 0.2,0 0.3,0 0.1,0 0.2,-0.1 0.3,-0.1 0.1,0 0.3,-0.1 0.4,-0.1 0.2,-0.1 0.6,0 0.6,0.1 m -16,0.8 c 0.1,-0.4 0.3,-0.4 0.5,-0.4 0.1,0 1.4,0.2 1.6,0.3 0,0.2 0,0.4 -0.2,0.5 -0.6,0 -1.6,-0.2 -1.7,-0.2 -0.2,0 -0.2,0 -0.2,-0.2 m 0.6,-0.6 c -0.3,0 -0.4,-0.2 -0.4,-0.3 -0.1,-0.1 0,-0.2 0,-0.3 0.1,-0.2 1.8,0 1.8,0.2 0.1,0.2 0,0.3 0,0.4 0,0.2 -1.1,0.1 -1.4,0 m 1.6,-1.7 c -0.4,0.2 -1.2,0 -1.7,-0.1 -0.2,0 -0.2,-0.5 0.1,-0.4 0.3,0 1.3,0 1.5,0.1 0.2,0 0.1,0.3 0.1,0.4 m 0.1,1.4 c 0,-0.4 0,-0.6 0.1,-1 0,-0.3 0,-0.7 0.2,-0.8 0.5,-0.2 0.3,0.5 0.3,0.9 0,0.4 -0.1,0.7 -0.1,1 0,0.3 0,1.1 -0.3,1.2 -0.6,0.2 -0.3,-0.8 -0.2,-1.3 m -1.8,-1.2 c 0.2,0 1.5,0 1.6,0.3 0,0.2 0,0.4 -0.2,0.5 -0.3,0 -1.7,-0.2 -1.7,-0.4 0.1,-0.1 0.1,-0.5 0.3,-0.4 m 4.6,2 c 0.1,0 0.2,0.1 0.3,0.2 0.1,0.4 -0.2,0.4 -0.6,0.4 -0.3,0 -0.7,0 -0.9,0 -0.3,0 -0.5,0 -0.5,-0.2 0,-0.1 0,-0.4 0.1,-0.4 0.1,0 1.4,0 1.6,0 m -1.4,-1.1 c -0.2,-0.1 -0.1,-0.3 -0.1,-0.5 0,-0.2 1.6,-0.1 1.8,0 0.1,0.1 0.1,0.2 0,0.4 -0.2,0.1 -1.6,0.2 -1.7,0.1 m 1.2,0.1 c 0.1,0 0.5,0.1 0.5,0.4 0,0.1 -0.1,0.2 -0.1,0.3 -0.1,0.1 -0.8,0.1 -1,0 -0.1,0 -0.7,0 -0.8,-0.1 -0.1,-0.1 0,-0.4 0.1,-0.5 0.1,-0.1 0.4,0 0.5,0 0.2,0 0.7,0 0.8,-0.1 m 0.8,-1.7 c 0.2,0 0.2,0.4 0.2,0.7 0,0.3 0.3,2 0.2,2.3 -0.1,0.5 -0.5,0.1 -0.5,-0.9 -0.1,-0.8 -0.4,-2 0.1,-2.1 m -1.9,0.1 c 0.3,0 1.2,-0.1 1.5,0 0.1,0.1 0.1,0.4 -0.1,0.5 -0.2,0.1 -1.4,0 -1.5,-0.2 -0.1,-0.1 0,-0.3 0.1,-0.3 m 8.7,-0.6 c -0.3,0.1 -0.7,0.3 -0.7,-0.1 0,-0.2 0.7,-0.5 1,-0.5 0,0 0.2,0 0.2,0 0,0 0.2,0 0.2,0.1 0,0.2 -0.4,0.4 -0.7,0.5 m 0.9,0.1 c 0,0.1 0.1,0.2 0.1,0.4 0,0.2 -1.1,0.6 -1.2,0.6 -0.1,0 -0.3,-0.3 -0.3,-0.5 0,-0.1 0.2,-0.2 0.5,-0.3 0.4,-0.2 0.7,-0.4 0.9,-0.2 m -2,2.1 c -0.1,-0.4 -0.3,-0.7 -0.4,-1 -0.1,-0.2 -0.2,-0.4 -0.3,-0.7 -0.1,-0.2 -0.2,-0.8 0.3,-0.5 0.1,0.1 0.2,0.5 0.3,0.6 0.2,0.5 0.3,0.9 0.5,1.4 0.1,0.3 0.5,0.9 0,0.9 -0.2,0 -0.2,0 -0.3,-0.2 -0.1,-0.1 -0.1,-0.5 -0.1,-0.5 m -1.2,1.1 c -0.2,-0.1 -0.2,-0.4 -0.1,-0.5 0.1,-0.1 1,-0.3 1.1,-0.3 0.1,0 0.3,0.4 0.2,0.5 -0.3,0.1 -0.6,0.3 -1.2,0.3 m -0.2,-0.7 c -0.1,0 -0.2,-0.2 -0.2,-0.5 0,-0.2 0.7,-0.3 1.2,-0.4 0.2,0.1 0.3,0.5 0.2,0.6 -0.2,0.2 -1.1,0.4 -1.2,0.3 m 0.7,-1.6 c 0,0.2 0.1,0.3 0,0.4 -0.1,0.1 -0.2,0.1 -0.3,0.2 -0.2,0.1 -0.5,0.1 -0.6,0.1 -0.1,0 -0.4,-0.4 -0.3,-0.6 0.1,-0.1 0.7,-0.2 0.9,-0.3 0.1,0 0.2,0.2 0.3,0.2 m -1.2,-0.2 c -0.1,0.1 -0.3,-0.2 -0.3,-0.3 0,-0.1 1.1,-0.6 1.1,-0.2 0.2,0.4 -0.7,0.4 -0.8,0.5 m -1,0.9 c -0.1,-0.3 -0.2,-0.6 -0.2,-1 0,-0.1 -0.1,-0.4 0.1,-0.4 0.3,0 0.3,0.6 0.4,0.8 0.2,0.6 0.4,1.5 0.5,2.2 -0.1,0.2 -0.4,0.1 -0.5,0 0,-0.2 -0.3,-1.6 -0.3,-1.6 m 0.1,1.9 c -0.3,0.2 -1.4,0.2 -1.6,0.2 -0.2,0 -0.2,-0.3 -0.2,-0.3 0,-0.2 0.1,-0.2 0.3,-0.2 0.2,0 1.3,-0.2 1.4,-0.1 0.1,0 0.1,0.4 0.1,0.4 m -1.6,-0.6 c -0.3,0 -0.3,-0.3 -0.3,-0.5 0,-0.1 0.7,-0.2 0.8,-0.3 0.1,0 0.8,-0.1 0.8,0.1 0,0.3 0.1,0.4 0,0.5 -0.2,0.1 -1.4,0.2 -1.3,0.2 m 1.3,-1.3 c 0,0.2 -0.5,0.2 -0.7,0.2 -0.3,0 -0.7,0.1 -0.8,0 -0.1,-0.1 -0.3,-0.5 0,-0.6 0.1,0 0.3,-0.1 0.5,-0.1 0.4,0 0.8,-0.2 1,0 0,0.2 0,0.3 0,0.5 m -0.3,-0.8 c -0.1,0 -0.8,0.2 -0.9,0.1 -0.1,0 -0.5,0.1 -0.5,-0.1 -0.2,-0.6 1.2,-0.6 1.3,-0.6 0.1,0.2 0.2,0.6 0.1,0.6 m 4.9,1.5 c 0,-0.2 0.3,-0.3 0.6,-0.4 0.3,-0.1 0.6,-0.3 0.7,-0.3 0.1,0 0.3,0.1 0.3,0.2 0,0.2 -0.4,0.3 -0.6,0.4 -0.3,0.1 -0.6,0.3 -0.8,0.3 -0.2,0 -0.2,-0.1 -0.2,-0.2 m 0.8,-2.3 c -0.2,-0.2 -0.3,-0.5 -0.4,-0.7 -0.1,-0.2 0.3,-0.5 0.7,0.2 0.3,0.5 0.5,0.8 0.8,1.3 0.1,0.2 0.6,0.8 0.2,0.9 -0.2,0 -0.3,-0.2 -0.4,-0.3 -0.2,-0.1 -0.9,-1.4 -0.9,-1.4 m 0.3,1.3 c -0.2,0.2 -1.1,0.5 -1.3,0.4 -0.2,0 -0.3,-0.2 -0.2,-0.4 0,-0.2 0.3,-0.2 0.6,-0.4 0.3,-0.1 0.6,-0.3 0.8,-0.1 0.1,0.2 0.1,0.5 0.1,0.5 m 0.6,-7.8 c -1.1,0 -0.8,-0.1 -0.8,-0.3 0,-0.3 0.4,-0.3 0.6,-0.4 0.1,0 0.6,-0.2 0.7,-0.3 0.3,-0.1 0.5,-0.3 0.8,-0.4 0.1,-0.1 0.3,-0.2 0.3,-0.3 -0.4,0.1 -1.2,0.3 -1.3,0.3 -0.5,0 -1.9,0.5 -2,0.5 -0.3,-0.4 0.2,-0.9 0.5,-0.9 2.4,0.1 4.1,-1.4 6.5,-3.4 v 0 c 0.2,0.4 -3.4,5.2 -5.3,5.2 m 9.1,-2.2 c -0.3,0.2 -0.7,0.2 -1,0.4 0.3,0.7 -0.7,0.7 -1.2,0.8 -0.1,0.1 0,0.2 0,0.3 -0.5,0.7 -1.6,0.2 -2.4,0.1 0,0.2 0.6,0.1 0.6,0.4 0,0.3 -0.6,0.3 -0.9,0.3 -0.4,0 -0.9,-0.4 -1.2,-0.3 0,0.1 0.2,0.1 0.2,0.3 -0.3,0.3 -1.4,0.2 -1.4,-0.2 0,-0.3 1.5,-0.7 1.9,-0.8 0.7,-0.1 1.2,-0.3 1.8,-0.5 0.6,-0.2 1.3,-0.5 1.8,-0.8 0.3,-0.2 0.6,-0.3 0.8,-0.5 -0.2,0 -0.3,0.1 -0.5,0.2 -0.1,0 -2.9,1.1 -3.3,1 -0.1,0 -0.4,-0.2 -0.4,-0.3 0,-0.1 0.7,-0.9 0.7,-0.9 0.4,0 5,-2 5.4,-2.2 0.3,-0.2 1,-0.7 1.1,-0.4 0,0.3 -1.4,2.6 -2,3.1 m 10.3,-6.3 c -0.1,0.1 -0.4,0.5 -0.4,0.6 -0.2,0.4 -0.6,0.5 -1,0.8 0.2,0.7 -0.6,0.8 -1.1,1 0,0.1 0.2,0.1 0.2,0.2 0,0.2 -1.4,0.8 -1.5,0.9 0,0.2 0.1,0.2 0.1,0.3 -0.1,0.2 -0.3,0.4 -0.5,0.4 -0.3,0.1 -0.8,0 -1,0.2 0,0.1 0.1,0.1 0.1,0.3 -0.4,0.6 -1.6,0.4 -2.4,0.4 0.1,0.3 0.8,0.1 0.8,0.4 0,0.2 -0.5,0.4 -0.7,0.4 -0.5,0.1 -1.3,-0.1 -1.3,0 0.7,0.3 -0.6,0.7 -0.9,0.4 0.1,-0.2 0.7,-1 0.8,-1.2 0.2,0 0.6,-0.2 0.7,-0.2 0.4,-0.1 1.6,-0.7 1.7,-0.8 0.8,-0.4 1.6,-0.8 2.4,-1.3 -0.7,0.1 -3.8,1.7 -4.3,1.5 0.1,-0.3 0.3,-0.5 0.4,-0.7 0.2,-0.4 0.4,-0.8 1,-0.8 0.1,0 1.5,-0.6 1.8,-0.7 0.2,-0.1 4.3,-2.5 4.5,-2.6 0.3,-0.1 0.6,-0.4 0.9,-0.2 0,0.3 -0.1,0.5 -0.3,0.7 m 3.2,-6.8 c 0.1,0.4 -1.6,2.6 -2.2,3.3 0.1,0.1 0.2,0.1 0.2,0.2 0,0.2 -0.3,0.5 -0.5,0.7 -0.2,0.2 -4.8,4.2 -7.1,4.7 -0.8,0.2 -0.8,0 -0.9,-0.1 -0.2,-0.4 0.6,-1.1 1,-1.3 0.4,-0.2 4.3,-2.4 4.8,-2.9 0,0 0,0 0,0 -0.4,0.1 -1.9,0.9 -2.3,1.1 -0.4,0.2 -1,0.2 -0.8,0 0.1,-0.2 3.6,-2.5 4,-2.8 0.3,-0.3 3.3,-2.6 3.8,-2.9 m 1.7,-7.2 c 0.1,0.2 0,0.2 -0.1,0.6 -0.1,0.4 -1,2.9 -2.7,5.5 -1.1,1.7 -7.3,6.4 -7.9,6.5 0.5,-0.4 1.7,-2.5 1.9,-3 4.6,-3 5.6,-4.6 5.8,-4.9 0,0 -4.1,3.5 -4.8,3.6 -0.1,-0.3 0.7,-1.9 1,-2.2 0.2,-0.1 1.7,-1.1 2.5,-1.8 0.7,-0.7 3.3,-3.7 3.6,-3.9 0.2,-0.2 0.4,-0.5 0.7,-0.4 m -2.3,1.1 c -0.3,0.5 -3.5,4.5 -5.5,4.5 -0.3,0 0.4,-1.1 0.4,-1.1 0,0 1.8,-1.3 3.4,-3 0.7,-0.7 1.3,-1.6 1.3,-1.7 -0.1,-0.1 -2.1,1.8 -2.5,2.1 -0.3,0.2 -1.4,1.1 -1.6,0.9 -0.2,-0.2 0.7,-2.6 0.9,-2.8 0.1,-0.2 0.5,-0.7 0.7,-0.5 0.2,0.2 -0.4,1.1 -0.2,1.1 0.3,0.1 0.9,-1.5 1,-1.7 0.1,-0.2 0.4,-0.3 0.6,-0.3 0.2,0 -0.2,1 0.1,0.6 0.3,-0.4 0.7,-1.5 1.2,-1.4 0.3,0.1 -0.1,0.6 -0.1,0.8 1,-1.5 1.5,-1.7 1.6,-1.8 0.1,0 -0.1,0.5 0,0.5 0,0 0.2,-0.2 0.4,-0.6 0.4,-0.8 1.8,-1.7 2,-1.6 0.2,0.1 -3.1,5.2 -3.7,6 m -62.4,12.2 c 0.3,-0.2 0.6,0 0.9,0.2 0.2,0.1 4.3,2.5 4.5,2.6 0.3,0.2 1.7,0.7 1.8,0.7 0.5,0.1 0.8,0.5 1,0.8 0.1,0.2 0.3,0.4 0.4,0.7 -0.4,0.1 -3.5,-1.4 -4.3,-1.5 0.7,0.5 1.6,0.9 2.4,1.3 0.2,0.1 1.3,0.7 1.7,0.8 0.1,0 0.5,0.2 0.7,0.2 0.1,0.2 0.7,1 0.8,1.2 -0.3,0.3 -1.7,-0.1 -0.9,-0.4 0,0 -0.8,0.1 -1.3,0 -0.2,0 -0.7,-0.2 -0.7,-0.4 0,-0.3 0.6,-0.1 0.8,-0.4 -0.8,0 -2.1,0.2 -2.4,-0.4 0,-0.1 0.1,-0.1 0.1,-0.3 -0.2,-0.2 -0.7,-0.1 -1,-0.2 -0.2,-0.1 -0.3,-0.3 -0.5,-0.4 0,-0.1 0.1,-0.2 0.1,-0.3 -0.1,-0.1 -1.5,-0.7 -1.5,-0.9 0,-0.1 0.2,-0.1 0.2,-0.2 -0.5,-0.2 -1.3,-0.3 -1.1,-1 -0.4,-0.3 -0.8,-0.4 -1,-0.8 0,-0.1 -0.3,-0.5 -0.4,-0.6 -0.1,-0.2 -0.2,-0.4 -0.3,-0.7 m 1.1,-3.2 c 0.5,0.3 3.9,2.7 4,2.8 0.1,0.2 -0.4,0.2 -0.8,0 -0.4,-0.2 -2,-1 -2.3,-1.1 0,0 0,0 0,0 0.4,0.4 4.4,2.6 4.8,2.9 0.4,0.2 1.2,1 1,1.3 -0.1,0.1 0,0.3 -0.9,0.1 -2.3,-0.5 -6.9,-4.5 -7.2,-4.7 -0.2,-0.2 -0.6,-0.5 -0.5,-0.7 0,-0.2 0.1,-0.1 0.2,-0.2 -0.7,-0.7 -2,-2.3 -1.8,-2.7 0.5,0.3 3.1,2 3.5,2.3 m -4.8,-9.4 c 0.3,0.2 2.8,3.2 3.6,3.9 0.7,0.7 2.3,1.7 2.5,1.8 0.3,0.3 1.2,1.8 1,2.2 -0.7,0 -4.8,-3.6 -4.8,-3.6 0.2,0.3 1.2,1.9 5.8,4.9 0.2,0.5 1.4,2.6 1.9,3 -0.6,-0.1 -6.8,-4.8 -7.9,-6.5 -1.7,-2.5 -2.6,-5.1 -2.7,-5.5 -0.1,-0.4 -0.2,-0.4 -0.1,-0.6 0.2,-0.1 0.4,0.2 0.7,0.4 m 50.1,-3.1 c 0.5,0.3 0.9,0.6 1.5,1 0.1,0.1 0.9,0.5 0.7,0.8 -0.2,0.2 -0.5,-0.2 -0.6,-0.3 -0.6,-0.6 -1.1,-1.1 -1.6,-1.5 -0.1,0 -0.1,0 0,0 z m 1,-0.4 c 0,0 0,0 0,0 0.3,0.1 0.5,0.3 0.8,0.5 0.2,0.2 0.5,0.3 0.7,0.5 0.1,0.1 0.5,0.4 0.4,0.5 -0.1,0.3 -0.4,0 -0.5,-0.1 -0.5,-0.4 -1.1,-1 -1.4,-1.4 m -1.6,-3 c 0,-0.1 0,-0.1 0,0 0.1,0 0.2,0 0.3,0.1 0.2,0.1 0.4,0.2 0.4,0.4 -0.3,0 -0.6,-0.3 -0.7,-0.5 m 3,3.2 c 0,-0.1 0,-0.1 0,0 0.3,0 1,0.4 1,0.8 -0.2,0.2 -0.4,-0.1 -0.6,-0.2 -0.1,-0.3 -0.3,-0.5 -0.4,-0.6 m -3.8,-1.6 c 0.2,0.1 0.5,0.2 0.6,0.4 -0.2,0 -0.6,-0.2 -0.6,-0.4 m -1,2.1 c 0.3,-0.1 0.5,0.2 0.6,0.4 -0.3,0 -0.5,-0.1 -0.6,-0.4 m 1,3.6 c 0,0 0,-0.1 0,0 0.4,0.1 1,0.3 1.1,0.8 -0.3,0.1 -0.8,-0.4 -0.7,-0.3 0.2,0.2 -0.4,-0.3 -0.4,-0.5 m -2.7,-0.8 c 0.4,0.1 0.7,0.3 0.9,0.7 -0.2,-0.1 -1.1,-0.4 -0.9,-0.7 m 2.3,1.5 c 0,0 0.2,0.1 0.2,0.1 0.3,0.1 0.7,0.4 0.7,0.7 -0.3,0.1 -0.5,-0.1 -0.8,-0.3 -0.1,-0.1 -0.4,-0.5 -0.1,-0.5 m -0.2,-2.2 c -0.5,-0.1 -0.8,-0.4 -1.1,-0.7 v -0.1 0 c 0.3,0.1 1.1,0.6 1.1,0.8 m -1.5,2.3 c -0.5,-0.1 -0.9,-0.4 -1.2,-0.7 0.2,-0.3 0.6,0 0.8,0.2 0.3,0.2 0.4,0.4 0.4,0.5 m -0.1,-2.2 c 0,-0.1 0,-0.1 0,-0.2 0.4,0.2 0.9,0.3 1,0.8 -0.4,-0.2 -0.7,-0.4 -1,-0.6 m -32.1,60 c -0.6,-0.5 -1.2,-1.1 -1.8,-1.6 -0.5,-0.4 -0.8,-0.8 -1.2,-1.3 -0.1,-0.2 -0.7,-0.7 -0.7,-0.9 0,0 2.6,2.6 3,3 0.5,0.5 1.2,0.9 1.8,1.4 0.4,0.2 1.3,0.9 1.5,0.9 0.1,0 1.4,0.7 1.7,1.1 -0.8,-0.2 -1.5,-0.7 -2.2,-1.2 -0.8,-0.4 -1.5,-0.9 -2.1,-1.4 m 14.1,-25.7 c 0.5,0.1 1.1,0.2 1.5,0.3 v 0.1 c -0.6,0.1 -1.3,-0.2 -2,-0.2 -0.7,-0.1 -1.8,-0.2 -1.8,-0.4 0,-0.2 0.1,-0.1 0.2,-0.1 0.7,0 1.4,0.2 2.1,0.3 m -2.3,-1.2 c 0.1,-0.2 0.6,0 0.7,0 0.1,0 2.6,0.3 3.6,0.5 0,0 0,0.1 0,0.2 -1.2,-0.1 -2.5,-0.2 -3.5,-0.4 -0.1,0 -0.8,0 -0.8,-0.3 m 5.5,-5.9 c 0,0.3 -1.8,0 -2,0 v -0.1 c 0.2,-0.1 1.3,0 1.5,0 0.1,0 0.5,-0.2 0.5,0.1 m -0.6,0.9 c 0,0.2 -1.7,0 -2.2,0 0,-0.1 -0.1,-0.1 0,-0.2 0.6,0 2.2,0.1 2.2,0.2 m 1.2,-1.9 c 0,0.1 -2.5,0.2 -2.6,0 0,-0.2 0.1,-0.1 0.3,-0.1 0.6,0 2.3,-0.1 2.3,0.1 m -11,40.3 c 0,0.1 -0.9,-0.1 -1.5,-0.3 -0.7,-0.3 -1.5,-0.7 -2.1,-1 -0.4,-0.2 -1.7,-1 -2.5,-1.5 -0.6,-0.4 -1.2,-0.9 -1.7,-1.3 0,0 0,0 0,-0.1 1.1,0.7 6.7,3.7 7.6,4 0,0 0.2,0 0.2,0.2 m 8.3,-45.3 c -1,0 -2.3,0.1 -3.2,0 -0.1,-0.2 0.2,-0.2 0.3,-0.2 0.5,0.1 2.8,0.1 2.9,0.2 m -11.6,-19.8 c -0.2,0.1 -0.4,0.4 -0.7,0.3 0,-0.3 0.3,-0.5 0.5,-0.6 0.2,-0.2 0.4,-0.3 0.7,-0.2 -0.1,0.2 -0.3,0.3 -0.5,0.5 m 2.4,-1.8 c -0.2,0.2 -0.4,0.4 -0.7,0.4 0.1,-0.2 0.3,-0.3 0.4,-0.4 0.2,-0.1 0.4,-0.2 0.5,-0.3 0,0 0.1,0 0.1,0 0,0.1 -0.2,0.2 -0.3,0.3 m 0.8,0.3 c 0.1,0 0.1,0.1 0.1,0.2 -0.3,0.2 -0.6,0.5 -1.1,0.6 0.2,-0.4 0.7,-0.6 1,-0.8 m -2.6,2.2 c -0.2,0.2 -0.4,0.4 -0.7,0.3 0,-0.3 0.3,-0.5 0.6,-0.7 0.2,-0.1 0.3,-0.3 0.5,-0.1 0,0.2 -0.2,0.3 -0.4,0.5 m -1.3,4.7 c 0.1,-0.3 0.2,-0.9 0.4,-1.2 0.2,0.2 -0.1,1.5 -0.2,1.7 0,0.1 -0.4,2.5 -0.5,2.8 0,0.3 0,2 0,2.2 0,0.2 0.2,0.5 -0.1,0.5 -0.1,-0.1 -0.1,-0.1 -0.2,-0.4 -0.3,-1.7 0,-3.2 0,-3.4 0.3,-0.6 0.6,-1.9 0.6,-2.2 m 4.4,-6.2 c 0.4,0.1 -0.5,0.7 -0.8,0.7 0.1,-0.4 0.5,-0.5 0.8,-0.7 m -7,3.6 c 0,0 0,0 0,0 0,0 0,0 0,0 z m 3.8,-1.1 c 0,-0.2 0.1,-0.2 0.2,-0.4 0.2,-0.1 0.6,-0.5 0.9,-0.3 -0.2,0.4 -0.6,0.8 -1.1,0.7 m -0.1,-6.9 c 0,-0.3 0.4,-0.3 0.5,-0.4 0,0 0,0 0.1,0 -0.1,0.3 -0.3,0.3 -0.6,0.4 m 3.7,5.3 c 0.1,-0.1 0.2,0 0.2,0.1 0.1,0.2 -0.3,0.4 -0.5,0.4 -0.2,0.1 -0.3,0.3 -0.6,0.3 0.1,-0.4 0.6,-0.7 0.9,-0.8 m -2.6,-3.1 c -0.1,-0.3 0.5,-0.7 0.6,-0.4 0,0.1 -0.5,0.3 -0.6,0.4 m -2,-3.8 c 0,-0.1 0.4,-0.4 0.7,-0.4 -0.1,0.3 -0.4,0.5 -0.7,0.5 0,-0.1 0,-0.1 0,-0.1 m 9.7,0.9 c 0,0 0,0 0,0 0.7,-0.1 2.7,-0.1 2.9,0 0,0.2 -1.6,0.2 -2.1,0.2 -0.4,0 -0.7,0 -0.8,-0.2 m -3.9,19.7 c 0,-0.2 0.1,-0.2 0.2,-0.2 0.5,-0.1 1.3,0 1.8,0 v 0.1 c -0.4,0 -1.8,0.2 -2,0.1 m 4.6,5.1 c -0.6,0 -2.2,0.2 -2.2,0 0,-0.2 1.9,-0.3 2,-0.3 0.1,0.2 0.2,0.3 0.2,0.3 m -5,-6 c 0,-0.2 0.2,-0.2 0.3,-0.2 0.5,0 2,-0.1 2,0.1 0,0.2 -2.3,0.3 -2.3,0.1 m 1.1,2.6 c 0,-0.2 1.8,-0.2 2.2,-0.3 0,0 0.1,0.2 0.1,0.2 -0.5,0 -2.1,0.3 -2.3,0.1 m -0.4,-1 c 0.2,-0.2 1.8,-0.3 2.2,-0.2 0,0.1 0,0.1 0.1,0.2 -0.6,0 -2.2,0.3 -2.3,0 m 1.6,3.6 c 0.1,-0.3 2.2,-0.4 3,-0.2 -0.2,0.1 -0.4,0.2 -0.7,0.2 -0.4,0 -2.1,0.3 -2.3,0 m -0.8,-1.7 c 0,-0.2 2,-0.3 2.8,-0.3 v 0.1 c -0.1,0.1 -2.8,0.4 -2.8,0.2 m 0.4,0.9 c 0.1,-0.2 1.8,-0.3 2.2,-0.3 0,0.1 0,0.2 0.1,0.2 -0.6,0 -2.1,0.3 -2.3,0.1 m 6.4,47.1 c -1.2,0 -2.7,-0.1 -3.7,-0.4 v 0 c 0,0 0,0 0,0 1.2,0.1 2.6,0.3 3.9,0.2 0.3,0 0.7,0 1,0 0.3,0 0.6,-0.1 0.7,0.1 -0.1,0.1 -1.5,0.1 -1.9,0.1 m -5,-0.7 c -0.1,0.1 -0.3,0 -0.4,0 -0.4,-0.1 -1.8,-0.4 -2.1,-0.5 -1.6,-0.4 -3.1,-1 -4.5,-1.7 v 0 c 0,0 0,0 0,0 0.7,0.2 3.2,1.1 4.1,1.4 1,0.3 2.8,0.6 2.9,0.8 m 0.3,-68.7 v 0 c 0,-0.1 0,-0.1 0.1,-0.1 0.4,0 1.7,0 1.8,0.1 0,0.2 -1.7,0.1 -1.9,0 m -0.3,0.9 v -0.1 c 0.4,0 1,0 1.5,0 v 0.1 c -0.4,0.2 -1.1,0.1 -1.5,0 m 0.7,45.3 c -0.3,0.5 0,0 -0.4,0.5 -0.1,0.1 -2.7,-0.9 -2.7,-0.8 0,0 0.1,0.2 0.2,0.3 0.7,0.3 2.2,0.8 2.1,1.2 0,0.1 -0.1,0.3 -0.2,0.4 -0.2,0.1 -2.9,-1.5 -3,-1.3 0,0 0,0.2 0.3,0.5 0.3,0.2 2.3,1.1 2.3,1.4 0.1,0.2 0,0.2 -0.2,0.4 -0.1,0.1 -3.4,-2 -3.5,-1.9 0,0 -0.1,0.1 0,0.3 0,0 3.1,2 3,2.3 0,0.1 0,0.2 -0.2,0.2 0,0 -3.7,-2.5 -3.9,-2.3 -0.2,0.2 3.2,2.2 3.6,2.7 l -0.3,0.4 c -1.2,-0.7 -8,-5.7 -8.9,-6.4 0.4,-0.7 0.9,-1.4 1.3,-1.8 6.2,3.1 10.3,3.9 10.5,3.9 m -12.2,11.2 c 0,-0.1 0,-0.1 0,0 2.3,-0.1 2.6,-1.3 2.5,-1.7 -0.1,-0.3 -0.5,-0.5 -0.4,-0.7 0.1,-0.4 0.6,-0.7 1,-0.7 0.4,0 0.9,0.3 1.4,0.6 0.5,0.3 2.7,0.7 3.1,0.5 0.4,-0.2 0.6,-0.6 0.6,-0.8 0,-0.2 -0.1,-0.6 -0.1,-0.9 0.1,-0.3 0.8,-1.4 1,-1.6 0.1,-0.2 0.8,0 1,-0.2 0.1,-0.2 0,-0.7 0,-0.9 0.8,-1.1 1.7,-2.8 2.4,-4 0.1,0.1 0.1,3.3 0,5.1 -0.2,2.6 -0.6,3.7 -1.4,5.1 -0.8,1.3 -2.5,3.4 -5.4,2.8 -2.9,-0.7 -4.9,-1.9 -5.7,-2.6 m 1.6,-2.8 c -0.4,-0.2 -1.9,-1.3 -2.2,-1.7 0.2,-0.2 0.4,-0.6 0.6,-0.9 0.4,0.2 2,1.4 2.4,1.7 -0.3,0.3 -0.6,0.5 -0.8,0.9 m -2.8,-4.6 c -0.1,-0.1 -0.4,-0.6 -0.4,-0.7 0,0 0,0 0,-0.1 0.6,0.3 6.2,4.6 6.7,4.9 0.1,0.1 0.3,0.2 0.4,0.4 -0.4,0 -1.4,-0.4 -1.5,-0.5 -0.5,-0.2 -4.9,-3.4 -5.2,-4 m -0.5,3.1 c 0.6,0.4 1,0.8 1.6,1.2 0.5,0.4 1,0.8 1.6,1.2 0.2,0.1 0.5,0.3 0.5,0.4 0,0.2 -0.4,0.6 -0.7,0.7 -0.3,0.2 -1.3,0.5 -2.2,0 -0.3,-0.1 -1.6,-1.3 -1.8,-1.8 0.1,0 0.2,0.1 0.3,0.1 0.2,0.1 0.5,0.3 0.7,0.3 0,-0.1 -0.2,-0.2 -0.2,-0.3 -0.3,-0.3 -0.6,-0.6 -0.9,-0.9 0,-0.1 0,-0.3 0.1,-0.4 0.1,0 0.2,0.1 0.3,0.1 0.3,0.1 0.7,0.3 1,0.4 -0.3,-0.4 -0.7,-0.8 -1.2,-1.1 0.2,-0.5 0.6,-0.2 0.9,0.1 m 29.2,-7.4 c 2.6,-0.7 5.7,-1.9 8.8,-3.5 0.4,0.6 0.7,1 1.1,1.6 -2.2,1.7 -6.5,4.8 -8.8,6.4 -0.1,-0.1 -0.1,-0.3 -0.1,-0.4 0,-0.1 2.2,-1.6 2.4,-1.8 0.2,-0.2 0.4,-0.6 0.4,-0.6 -0.1,-0.1 -2.9,2.1 -3,2 -0.2,-0.1 -0.3,-0.3 -0.3,-0.4 0,-0.2 1.2,-0.9 2.4,-1.9 0.4,-0.4 0.1,-0.3 0.1,-0.3 -0.1,-0.1 -2.6,1.9 -2.8,1.8 -0.3,-0.1 -0.3,-0.4 -0.3,-0.5 0,-0.2 1.5,-1 1.9,-1.3 0.4,-0.3 0.5,-0.5 0.4,-0.6 0,-0.1 -2.2,1.3 -2.4,1.4 -0.2,0 -0.3,-0.4 -0.4,-0.4 -0.1,-0.1 2.3,-1.2 2.2,-1.5 -0.1,-0.1 -2.4,1.1 -2.5,1 -0.2,-0.3 -0.2,-0.3 -0.3,-0.6 -0.1,-0.1 0.8,-0.3 1.2,-0.4 m 11.7,0.6 c -2.2,1.6 -6.6,4.7 -8.7,6.3 -0.1,-0.1 -0.3,-0.3 -0.3,-0.5 0,-0.2 3.1,-2.2 3.1,-2.2 l -0.2,-0.2 c 0,0 -3.1,2.1 -3.2,2.1 -0.1,0 -0.2,-0.2 -0.2,-0.3 2.1,-1.6 6.5,-4.8 8.7,-6.3 0.2,0.3 0.5,0.7 0.8,1.1 m -1.2,-2.3 c 0.1,0 0.2,0 0.3,0 -0.1,0.2 -6.9,5.1 -9.1,6.7 -0.2,0.1 -0.4,0.3 -0.6,0.4 -0.1,-0.3 0.2,-0.5 0.3,-0.6 0.6,-0.4 8.7,-6.4 9.1,-6.5 m -2.2,-0.9 c -0.2,0.2 -0.4,0.3 -0.7,0.4 0.1,-0.2 0.3,-0.3 0.4,-0.4 0.2,-0.1 0.4,-0.2 0.5,-0.3 0,0 0.1,0 0.1,0 0.1,0.1 -0.2,0.2 -0.3,0.3 m 1,0.3 c 0.7,0.2 -0.8,1 -1.2,1 0.2,-0.5 0.7,-0.7 1.2,-1 m 1.5,2.4 c 0.1,-0.1 0.3,0 0.4,0.1 0.1,0.3 -0.5,0.5 -0.7,0.6 -0.3,0.2 -0.5,0.4 -0.9,0.5 0,-0.5 0.8,-1 1.2,-1.2 m -36.7,-1.6 c 0,-0.7 1.2,0.4 1.4,0.8 -0.6,0 -1,-0.4 -1.4,-0.8 m 1.2,-0.7 c 0.2,0.1 0.5,0.2 0.6,0.5 -0.2,0 -0.4,-0.1 -0.6,-0.3 -0.2,-0.1 -0.3,-0.3 -0.5,-0.4 0,0 0,0 0,-0.1 0.1,0 0.3,0.2 0.5,0.3 m 8.5,-58.3 c 2.7,-1.5 4.9,-2 7.5,-2 1.8,0 3.6,0.3 5.3,1 4,1.7 7.7,6.1 6.8,11.8 0,-0.4 -0.2,-2.8 -0.8,-4.8 -0.5,-1.5 -2.7,-4.9 -5.4,-6.3 -1.2,-0.6 -3.2,-1.1 -5,-1.3 -1.8,-0.2 -5,0.4 -6.1,0.9 -1.1,0.5 -1.4,0.6 -2,1 -0.2,0.1 -0.5,0.3 -0.6,0.1 -0.1,-0.2 0.3,-0.4 0.3,-0.4 m 1,0.7 c -0.1,-0.1 -0.4,-0.2 -0.3,-0.3 0.1,-0.2 0.3,-0.4 0.7,-0.4 0.4,0 0.8,0.8 1.1,1.3 0.5,1 0.7,2 0.7,2.3 0,0.3 0,0.4 -0.1,0.4 -0.2,0 -0.3,-0.5 -0.3,-0.8 -0.5,-1.3 -1.7,-2.4 -1.8,-2.5 m 9.3,11.6 c 0,0.6 -0.5,1.1 -1.2,1.1 -0.6,0 -1.2,-0.5 -1.2,-1.1 0,-0.6 0.5,-1.1 1.2,-1.1 0.6,0 1.2,0.5 1.2,1.1 m 1.5,9 c 0.5,0.5 0.7,1.3 0.7,2.1 0,1.1 -0.3,2.1 -1.1,2.8 -0.8,0.7 -2,1.2 -3.3,1.2 -2.7,0 -4.7,-1.8 -4.7,-4.1 0,-1.1 0.8,-2.5 1.4,-2.8 0.3,-0.1 1,-0.7 1.4,-0.3 0.2,0.2 -0.6,0.6 -0.6,0.6 0,0 -1.3,0.8 -1.4,2.5 -0.1,1.8 1.5,3.1 3.8,3.1 2.5,0 3.9,-1.4 3.9,-3.1 0,-0.8 -0.4,-1.7 -0.9,-2 -0.4,-0.4 -1.2,-0.8 -0.9,-0.9 0.2,0 1.2,0.4 1.7,0.9 m -1.1,-9 c 0,0.9 -0.7,1.6 -1.6,1.6 -0.9,0 -1.6,-0.7 -1.6,-1.6 0,-0.9 0.7,-1.6 1.6,-1.6 1.1,0 1.6,0.7 1.6,1.6 m -0.8,0 c 0,0.4 -0.4,0.7 -0.8,0.7 -0.4,0 -0.8,-0.3 -0.8,-0.7 0,-0.4 0.4,-0.7 0.8,-0.7 0.4,-0.1 0.8,0.3 0.8,0.7 m -1.5,16.2 c 0,0.2 -0.2,0.3 -0.4,0.3 -0.2,0 -0.4,-0.2 -0.4,-0.3 0,-0.2 0.2,-0.3 0.4,-0.3 0.2,0 0.4,0.1 0.4,0.3 m -7.7,-7.3 c 0.2,0 0.1,0.3 0,0.4 0,0.5 -0.1,1.1 -0.1,1.7 0,0.6 0.1,1.3 0.2,2 0.1,0.7 0.1,1.2 0.2,1.9 0.2,0.7 0.4,1.3 0.3,1.5 -0.2,0 -0.5,-0.9 -0.5,-1.2 0,-0.3 -0.4,-2.5 -0.4,-3.5 0,-0.4 0,-0.5 -0.1,-0.7 -0.3,-0.1 -0.8,0 -0.9,0.1 0,0.4 0.1,0.5 0.1,1.1 0.2,1.2 0,3.2 0,3.3 0,0.1 -0.1,0.7 -0.2,0.7 -0.2,0 -0.1,-0.5 -0.1,-0.8 0.1,-0.3 0,-2 0,-2.5 0,-0.9 -0.4,-2.8 -0.5,-3 0,-0.1 -0.2,-0.7 -0.1,-0.7 0.2,0 0.2,0.5 0.4,0.6 0.5,0 1.1,-0.1 1.2,-0.2 0.4,0.1 0.3,-0.7 0.5,-0.7 m -0.5,1.2 c 0.2,0 0.2,0.2 0.2,0.3 0,0.3 -1,0.4 -1,0.3 0,0 -0.2,-0.3 -0.2,-0.4 0.1,-0.3 0.9,-0.3 1,-0.2 m 0.9,7.7 c 0,0.4 -0.4,0.8 -0.8,0.8 -0.5,0 -0.8,-0.3 -0.8,-0.8 0,-0.4 0.4,-0.8 0.8,-0.8 0.4,0 0.8,0.3 0.8,0.8 m 0.4,0.1 c 0,0.6 -0.5,1.2 -1.2,1.2 -0.7,0 -1.2,-0.5 -1.2,-1.2 0,-0.6 0.5,-1.2 1.2,-1.2 0.7,0 1.2,0.5 1.2,1.2 m -0.3,-10 c 0,0 -0.4,1.9 -0.2,5.3 0.1,1 0.6,2.7 0.7,3.2 0.1,0.5 0.8,2.1 0.8,2.3 0,0.2 -1.6,1.3 -2.1,1.6 -0.8,-0.5 -1.5,-1.1 -2.1,-1.7 0.1,-0.7 0.3,-1 0.5,-2.1 0.4,-2.3 0,-4.4 -0.2,-5.2 -0.2,-0.8 -0.6,-2.2 -0.9,-3 1.2,-0.2 2.4,-0.4 3.5,-0.4 m 14,1.8 c 0.2,0 0.8,0.2 1.3,0.2 0.3,-0.1 0.3,-0.6 0.4,-0.6 0.2,0 0,0.6 -0.1,0.7 0,0.2 -0.5,2 -0.5,3 0,0.5 0,2.2 0,2.5 0.1,0.3 0.1,0.7 -0.1,0.8 -0.1,-0.1 -0.2,-0.6 -0.2,-0.7 0,-0.1 -0.3,-2.1 0,-3.3 0.1,-0.6 0.1,-0.7 0.2,-1.1 -0.2,-0.2 -0.7,-0.2 -0.9,-0.1 -0.1,0.2 -0.1,0.3 -0.1,0.7 0,1 -0.3,3.1 -0.4,3.5 0,0.3 -0.3,1.2 -0.5,1.2 -0.1,-0.2 0.1,-0.7 0.3,-1.5 0.1,-0.7 0.2,-1.2 0.2,-1.9 0.1,-0.7 0.1,-1.4 0.2,-2 0,-0.6 -0.1,-1.2 -0.1,-1.7 0,-0.1 -0.1,-0.4 0,-0.4 0.2,-0.1 0.1,0.7 0.3,0.7 m 1.2,0.6 c 0.1,0.1 -0.1,0.4 -0.2,0.4 0,0 -1,0 -1,-0.3 0,-0.1 0,-0.3 0.2,-0.3 0.1,-0.1 0.9,-0.1 1,0.2 m -1.1,6.7 c 0.5,0 0.8,0.3 0.8,0.8 0,0.4 -0.4,0.8 -0.8,0.8 -0.4,0 -0.8,-0.3 -0.8,-0.8 0,-0.5 0.3,-0.8 0.8,-0.8 m -0.1,-0.3 c 0.7,0 1.2,0.5 1.2,1.2 0,0.6 -0.5,1.2 -1.2,1.2 -0.7,0 -1.2,-0.5 -1.2,-1.2 0,-0.7 0.5,-1.2 1.2,-1.2 m -0.9,-8.8 c 1.2,0 2.3,0.3 3.5,0.4 -0.3,0.8 -0.9,2.5 -1,3.1 -0.2,1 -0.2,3.7 -0.1,5.1 0.1,0.7 0.4,1.4 0.5,2.1 -0.7,0.6 -1.4,1.2 -2.1,1.7 -0.6,-0.3 -2.1,-1.5 -2.1,-1.6 0,-0.1 0.6,-1.8 0.8,-2.3 0.1,-0.5 0.7,-2.2 0.7,-3.2 0.2,-3.5 -0.2,-5.3 -0.2,-5.3 m -13.3,29.2 c 0.2,0.1 1.3,0.2 1.3,0.2 0,0 0.3,-0.4 0.2,-0.6 -0.1,-0.2 -1.2,-0.3 -1.5,-0.3 -0.3,0 -0.4,0.4 -0.4,0.5 0,0.1 0.2,0.1 0.4,0.2 m -0.1,0.9 c 0.2,0 0.9,0.1 1.1,0.1 0.2,0 0.2,-0.2 0.3,-0.4 0,-0.2 -0.2,-0.3 -0.2,-0.3 0,0 -1.1,-0.2 -1.3,-0.2 -0.2,0 -0.3,0.1 -0.3,0.1 0,0 0,0.1 -0.1,0.3 -0.1,0.3 0.5,0.4 0.5,0.4 M 297.9,162 c -0.1,0.2 -0.1,0.5 -0.1,0.7 0,0.8 0.1,1.2 0.3,1.8 0,0.2 0.1,0.3 0.2,0.5 0.1,0.2 0,0.4 0.2,0.5 0.3,-0.2 0.4,-0.6 0.6,-1 0.2,-0.4 1.3,-2.6 1.5,-6.3 0.1,-1.1 -0.2,-4 -1.2,-5.5 -0.3,-0.5 -1.1,-1.9 -2.6,-3.2 -2,-1.7 -4.9,-2.5 -7.9,-2.4 -1,0 -3.4,0.3 -4.9,1.1 0.4,0.8 0.8,1.6 0.9,2 0.1,0.2 0.3,1.2 0.3,1.6 0.3,-0.2 0.6,-0.3 0.6,-0.3 0.2,-0.3 0.2,-1 0.2,-1.5 0,-0.6 -0.6,-1 -0.8,-1.4 -0.2,-0.4 0.4,-0.9 0.9,-0.9 0.4,0 0.7,0.7 0.8,1.4 0.1,0.6 -0.2,1.5 -0.3,2.1 0.3,-0.1 0.5,-0.1 0.8,-0.2 0,0 0.5,-1 0.6,-1.5 0.2,-0.6 -0.2,-1.1 -0.3,-1.6 -0.1,-0.5 0.7,-0.7 1.1,-0.6 0.4,0.2 0.5,0.9 0.4,1.6 -0.1,0.6 -0.5,1.4 -0.8,1.9 0.2,0 0.4,0 0.6,0 0.1,0 0.1,0 0.2,0 0.3,-0.3 0.7,-0.9 0.9,-1.3 0.3,-0.6 0,-1.2 0,-1.6 0,-0.5 0.8,-0.6 1.2,-0.4 0.4,0.2 0.3,1 0.1,1.6 -0.2,0.6 -0.8,1.2 -1.2,1.7 0.2,0 0.5,0.1 0.7,0.1 0.3,-0.2 0.8,-0.8 1.1,-1.1 0.4,-0.5 0.2,-1.1 0.3,-1.6 0.1,-0.5 0.9,-0.4 1.2,-0.1 0.3,0.3 0.1,1 -0.2,1.6 -0.3,0.6 -1.1,1.1 -1.5,1.5 0.2,0.1 0.5,0.2 0.7,0.3 0.4,-0.1 1,-0.6 1.3,-0.9 0.5,-0.4 0.4,-1.1 0.6,-1.5 0.2,-0.4 1,-0.2 1.2,0.1 0.3,0.4 -0.1,1 -0.6,1.5 -0.4,0.5 -1.3,0.8 -1.8,1.1 0.2,0.1 0.4,0.2 0.6,0.4 0.4,0 1.2,-0.4 1.6,-0.6 0.6,-0.3 0.7,-0.9 0.9,-1.3 0.3,-0.4 1,0 1.2,0.4 0.2,0.4 -0.3,1 -0.9,1.4 -0.5,0.4 -1.4,0.6 -2,0.8 0.2,0.2 0.4,0.4 0.6,0.6 v 0 c 0.4,0 1.1,-0.1 1.5,-0.2 0.6,-0.1 0.9,-0.8 1.2,-1.1 0.3,-0.3 1,0.2 1,0.7 0.1,0.4 -0.6,0.9 -1.2,1.1 -0.6,0.2 -1.3,0.2 -1.9,0.2 v 0 c 0.2,0.2 0.3,0.5 0.5,0.7 0.3,0.1 0.8,0 1.1,0 0.6,0 1,-0.6 1.4,-0.8 0.4,-0.2 0.9,0.4 0.9,0.9 0,0.5 -0.7,0.7 -1.4,0.8 -0.5,0.1 -1,0 -1.5,-0.1 v 0 c 0.1,0.3 0.3,0.5 0.4,0.8 0.3,0.1 0.6,0.1 0.8,0.1 0.5,0.1 0.9,-0.4 1.3,-0.5 0.4,-0.1 0.7,0.5 0.6,0.8 -0.1,0.4 -0.7,0.5 -1.3,0.5 -0.4,0 -0.8,-0.1 -1.2,-0.3 v 0 c 0.1,0.2 0.1,0.5 0.2,0.7 0.2,0.1 0.4,0.2 0.6,0.2 0.5,0.2 1,-0.1 1.4,-0.2 0.4,-0.1 0.6,0.6 0.4,1 -0.2,0.4 -0.8,0.4 -1.4,0.2 -0.3,-0.1 -0.6,-0.2 -0.9,-0.4 v 0 c 0,0.3 0.1,0.5 0.1,0.8 0.1,0.1 0.2,0.1 0.3,0.2 0.5,0.3 1,0 1.4,0 0.4,0 0.5,0.7 0.3,1.1 -0.2,0.3 -0.9,0.3 -1.4,0.1 -0.2,-0.1 -0.3,-0.2 -0.5,-0.3 0,0.3 0,0.3 0,0.5 0,0 0.1,0 0.1,0.1 0.4,0.3 1,0.2 1.3,0.3 0.4,0.1 0.4,0.7 0.2,1 -0.2,0.3 -0.8,0.1 -1.4,-0.2 0,-0.1 -0.1,-0.2 -0.2,-0.2 m -1.3,-6.8 z m -6,35.8 H 289 v -2.7 h 1.6 z m -0.4,-0.4 h -0.7 v -1.7 h 0.7 z m 0.8,0.8 h -2.7 v -3.5 h 2.7 z m -3,0.3 h 3.4 V 191 c 1.5,-0.1 3.1,-0.2 4.7,-0.2 0.4,0 0.8,0 1.2,0 v 0 c 0.1,0.2 -0.3,0.2 -0.5,0.2 -1.2,0.2 -4.3,0.3 -4.3,0.5 1.5,0.1 5.1,-0.2 5.1,0 0,0.2 -0.5,0.2 -0.7,0.3 -0.8,0.1 -1.7,0.2 -2.5,0.4 v 0.2 c 0.9,0 3.2,-0.3 3.3,-0.3 0.2,0 0.3,0.2 0.2,0.3 0,0.2 -3.6,0.7 -3.7,0.7 -0.1,0 -0.3,0 -0.3,0.2 1.2,0 2.5,-0.1 3.8,-0.3 0.3,0 0.6,-0.1 0.6,0.2 0,0.3 -3.5,0.8 -4.8,0.9 v 0.2 c 1.4,-0.1 3.1,-0.3 4.5,-0.5 0.2,0 0.5,-0.2 0.6,0 0,0.3 -0.4,0.3 -0.6,0.4 -1.3,0.4 -2.8,0.6 -4.3,0.8 -0.5,0.1 -1,0.1 -1.6,0.2 -2.6,0.3 -5.4,0.2 -7.9,0 -1,-0.1 -2,-0.3 -2.9,-0.5 -0.4,-0.1 -0.8,-0.2 -1.1,-0.3 0,-0.1 0.5,-0.9 0.6,-1.1 0.1,0 0.9,0.3 0.9,0 0,-0.2 -0.7,-0.2 -0.8,-0.3 0.1,-0.2 0.2,-0.4 0.2,-0.6 0.2,0 0.5,0.1 0.7,0 0.1,-0.3 -0.4,-0.2 -0.6,-0.2 0.1,-0.2 0.5,-1 0.6,-1.2 1.6,0.1 3.3,0 5,0.1 0.3,0 0.6,0 1,0 v 0.6 z m 3.4,-3.3 c 0,0 1.8,0 2.3,-0.1 0.6,0 1.8,0 2.4,0 0.4,0 1,-0.1 1.4,-0.1 0.2,0 0.7,0.1 0.4,0.4 -0.1,0.2 -1,0.1 -1.4,0.2 -0.7,0 -1.4,0.1 -2,0.1 0.1,0.3 0.4,0.3 0.7,0.3 0.4,0 0.8,0 1.2,-0.1 0.5,0 1,-0.1 1.4,0 0.2,0.5 -0.1,0.5 -0.1,0.7 -0.1,0.1 -0.5,0.1 -0.6,0.1 -1.8,0.1 -4,0.1 -5.7,0.2 v -1.7 m 24.5,39.6 c 0,0 4.1,-5.4 5.2,-12.4 1.1,-7 -0.5,-11.1 -0.5,-11.3 0,-0.1 -0.2,-0.6 0,-0.6 0.2,-0.1 0.3,0.5 0.3,0.6 0,0.2 1.6,4.3 0.5,11.3 -1.1,7 -5.2,12.4 -5.2,12.4 -0.1,0.1 -0.4,0.6 -0.5,0.5 -0.1,0 0.2,-0.4 0.2,-0.5 m -52.2,0.8 c -0.1,0.1 -0.4,-0.3 -0.5,-0.4 0,0 -4.1,-5.4 -5.2,-12.4 -1.1,-7 0.5,-11.1 0.5,-11.3 0,-0.1 0.2,-0.7 0.3,-0.6 0.2,0.1 0,0.6 0,0.6 0,0.2 -1.6,4.3 -0.5,11.3 1.1,7 5.2,12.4 5.2,12.4 0.1,0 0.3,0.3 0.2,0.4 m -0.3,-35 v 0 c -0.1,-0.1 -0.3,-0.1 -0.3,0 l -0.4,0.6 c -0.1,0.1 -0.2,0.1 -0.3,0 v 0 c -0.1,-0.1 -0.1,-0.2 0,-0.3 l 1.5,-2 c 0.1,-0.1 0.2,-0.1 0.3,0 l 0.2,0.2 c 0.1,0.1 0.2,0.2 0.3,0.3 0,0 0.3,0.5 -0.1,1 -0.4,0.5 -0.7,0.5 -1.2,0.2 m 0.9,-1.1 v 0 c -0.1,-0.1 -0.3,-0.1 -0.3,0 l -0.3,0.4 c -0.1,0.1 -0.1,0.2 0,0.2 0.1,0 0.2,0.1 0.3,0.1 0,0 0.1,0 0.3,-0.2 0.1,-0.1 0.2,-0.3 0,-0.5 m 0.4,3.3 c -0.2,0 -0.4,0 -0.6,-0.2 -0.2,-0.2 -0.3,-0.4 -0.3,-0.6 0,-0.3 0.2,-0.6 0.6,-1.1 0.4,-0.5 0.7,-0.8 1,-0.8 0.2,0 0.4,0 0.6,0.2 0.2,0.2 0.3,0.4 0.3,0.6 0,0.3 -0.2,0.6 -0.6,1.1 -0.5,0.5 -0.7,0.8 -1,0.8 m 1.1,-1.9 c 0,-0.1 0,-0.2 -0.1,-0.2 -0.1,-0.1 -0.2,-0.1 -0.2,-0.1 -0.2,0.1 -0.4,0.3 -0.7,0.7 -0.3,0.4 -0.5,0.6 -0.5,0.8 0,0.1 0,0.2 0.1,0.2 0.1,0.1 0.2,0.1 0.2,0.1 0.2,0 0.4,-0.3 0.7,-0.7 0.3,-0.4 0.5,-0.6 0.5,-0.8 m 0.4,3.2 c -0.2,0 -0.4,0 -0.6,-0.2 -0.2,-0.1 -0.3,-0.3 -0.3,-0.5 0,-0.2 0,-0.4 0.2,-0.5 l 1.2,-1.5 c 0.1,-0.1 0.2,-0.1 0.3,0 v 0 c 0.1,0.1 0.1,0.2 0,0.3 l -1.1,1.4 c -0.1,0.1 -0.2,0.3 -0.2,0.4 0,0 0,0.1 0.1,0.2 0.1,0.1 0.3,0.1 0.4,-0.1 l 1.3,-1.6 c 0.1,-0.1 0.2,-0.1 0.3,0 v 0 c 0.1,0.1 0.1,0.2 0,0.3 l -1.2,1.5 c -0.1,0.2 -0.3,0.3 -0.4,0.3 m 1.4,1.3 c -0.1,-0.1 -0.1,-0.2 -0.1,-0.3 l 0.3,-0.8 c 0,-0.1 0,-0.2 0,-0.3 -0.1,0 -0.2,0 -0.2,0.1 l -0.5,0.6 c -0.1,0.1 -0.2,0.1 -0.3,0 v 0 c -0.1,-0.1 -0.1,-0.2 0,-0.3 l 1.5,-2 c 0.1,-0.1 0.2,-0.1 0.3,0 l 0.2,0.2 c 0.1,0.1 0.2,0.2 0.3,0.3 0,0 0.3,0.5 0,1 -0.2,0.3 -0.4,0.4 -0.7,0.4 l -0.4,1.1 c -0.1,0.1 -0.2,0.2 -0.4,0 z m 1.1,-2.3 v 0 c -0.1,-0.1 -0.3,-0.1 -0.3,0 l -0.3,0.4 c -0.1,0.1 -0.1,0.2 0,0.3 0.1,0 0.2,0.1 0.3,0.1 0,0 0.1,0 0.3,-0.2 0.1,-0.2 0.2,-0.4 0,-0.6 m 0.4,3.4 c -0.1,-0.1 -0.1,-0.2 -0.1,-0.3 l 1.4,-2 c 0.1,-0.1 0.2,-0.1 0.3,-0.1 v 0 c 0.1,0.1 0.1,0.2 0.1,0.3 l -1.2,1.7 c -0.1,0.1 0,0.2 0.1,0.3 l 0.3,0.2 c 0.1,0.1 0.1,0.2 0.1,0.3 -0.1,0.1 -0.2,0.1 -0.3,0 z m 2.2,1.5 c -0.1,-0.1 -0.1,-0.2 -0.1,-0.3 l 0.1,-0.2 c 0,-0.1 0,-0.3 -0.1,-0.3 l -0.2,-0.1 c -0.1,-0.1 -0.2,0 -0.3,0 l -0.1,0.1 c -0.1,0.1 -0.2,0.1 -0.3,0 h -0.1 c -0.1,-0.1 -0.1,-0.2 0,-0.3 l 1.9,-1.8 c 0.1,-0.1 0.2,-0.1 0.3,0 v 0 c 0.1,0.1 0.1,0.2 0.1,0.3 l -0.9,2.4 c -0.1,0.2 -0.2,0.3 -0.3,0.2 z m 0.5,-2 c 0.1,-0.2 0,-0.2 0,0 l -0.6,0.5 c -0.1,0.1 -0.1,0.2 0,0.3 h 0.1 c 0.1,0.1 0.2,0 0.3,-0.1 z m 1.8,2 v 0 c -0.2,-0.1 -0.3,0 -0.3,0 l -0.4,0.6 c -0.1,0.1 -0.2,0.1 -0.3,0.1 v 0 c -0.1,-0.1 -0.1,-0.2 -0.1,-0.3 l 1.2,-2.2 c 0.1,-0.1 0.2,-0.1 0.3,-0.1 l 0.3,0.2 c 0.1,0.1 0.2,0.2 0.3,0.3 0,0 0.4,0.5 0.1,1 -0.3,0.6 -0.6,0.7 -1.1,0.4 m 0.7,-1.1 v 0 c -0.1,-0.1 -0.3,0 -0.3,0.1 l -0.3,0.5 c -0.1,0.1 -0.1,0.2 0,0.2 0.1,0 0.2,0.1 0.3,0.1 0,0 0.1,0 0.3,-0.3 0.1,-0.3 0.2,-0.5 0,-0.6 m 0.8,3.3 c -0.1,-0.1 -0.2,-0.2 -0.1,-0.3 v -0.2 c 0,-0.1 0,-0.2 -0.1,-0.3 l -0.2,-0.1 c -0.1,-0.1 -0.2,0 -0.3,0.1 l -0.1,0.1 c -0.1,0.1 -0.2,0.1 -0.3,0.1 h -0.1 c -0.1,-0.1 -0.1,-0.2 0,-0.3 l 1.7,-1.9 c 0.1,-0.1 0.2,-0.1 0.3,-0.1 v 0 c 0.1,0.1 0.2,0.2 0.1,0.3 l -0.6,2.5 c 0,0.1 -0.1,0.2 -0.3,0.1 z m 0.4,-2.1 c 0,-0.1 0,-0.1 0,0 l -0.6,0.6 c -0.1,0.1 0,0.2 0.1,0.3 h 0.1 c 0.1,0.1 0.2,0 0.2,-0.1 z m 2,0.4 c -0.1,0 -0.2,0 -0.3,0.1 l -0.9,1.9 c -0.1,0.1 -0.2,0.1 -0.3,0.1 v 0 c -0.1,0 -0.1,-0.2 -0.1,-0.3 l 0.9,-1.9 c 0.1,-0.1 0,-0.2 -0.1,-0.3 h -0.1 c -0.1,0 -0.2,-0.2 -0.1,-0.3 0,-0.1 0.2,-0.1 0.3,-0.1 l 0.9,0.4 c 0.1,0 0.1,0.2 0.1,0.3 0,0.2 -0.2,0.2 -0.3,0.1 z m 0.7,3.1 c -0.1,0 -0.2,-0.2 -0.2,-0.3 l 0.1,-0.8 c 0,-0.1 0,-0.2 -0.1,-0.3 -0.1,0 -0.2,0 -0.2,0.1 l -0.3,0.7 c 0,0.1 -0.2,0.2 -0.3,0.1 v 0 c -0.1,0 -0.2,-0.2 -0.1,-0.3 l 1,-2.3 c 0,-0.1 0.2,-0.2 0.3,-0.1 l 0.3,0.1 c 0.1,0 0.3,0.1 0.4,0.2 0,0 0.4,0.4 0.2,0.9 -0.1,0.3 -0.3,0.5 -0.6,0.6 l -0.1,1.1 c -0.1,0.3 -0.2,0.3 -0.4,0.3 z m 0.5,-2.5 v 0 c -0.2,-0.1 -0.3,0 -0.3,0.1 l -0.2,0.4 c 0,0.1 0,0.2 0,0.2 0.1,0 0.2,0 0.3,0 0,0 0.1,0 0.2,-0.3 0.1,-0.1 0.2,-0.3 0,-0.4 m 0.4,2.8 c -0.1,0 -0.2,-0.2 -0.1,-0.3 l 0.9,-2.3 c 0,-0.1 0.2,-0.2 0.3,-0.1 v 0 c 0.1,0 0.2,0.2 0.1,0.3 l -0.9,2.3 c 0,0.1 -0.2,0.2 -0.3,0.1 z m 0.9,0.3 c -0.1,0 -0.2,-0.2 -0.1,-0.3 l 0.8,-2.4 c 0,-0.1 0.2,-0.2 0.3,-0.1 l 0.8,0.2 c 0.1,0 0.2,0.2 0.1,0.3 0,0.1 -0.2,0.2 -0.3,0.1 l -0.3,-0.1 c -0.1,0 -0.2,0 -0.3,0.1 l -0.1,0.4 c 0,0.1 0,0.2 0.1,0.3 l 0.2,0.1 c 0.1,0 0.2,0.2 0.1,0.3 0,0.1 -0.2,0.2 -0.3,0.1 l -0.2,-0.1 c -0.1,0 -0.2,0 -0.3,0.1 l -0.1,0.4 c 0,0.1 0,0.2 0.1,0.3 l 0.3,0.1 c 0.1,0 0.2,0.2 0.1,0.3 0,0.1 -0.2,0.2 -0.3,0.1 z m 2.5,0.7 c -0.1,0 -0.2,-0.1 -0.2,-0.3 l 0.6,-2.4 c 0,-0.1 0.1,-0.2 0.3,-0.2 v 0 c 0.1,0 0.2,0.1 0.2,0.3 l -0.5,2 c 0,0.1 0,0.2 0.2,0.3 l 0.3,0.1 c 0.1,0 0.2,0.1 0.2,0.2 0,0.1 -0.1,0.2 -0.3,0.2 z m 1.5,0.4 c -0.1,0 -0.2,-0.1 -0.2,-0.2 l 0.4,-2.4 c 0,-0.1 0.1,-0.2 0.2,-0.2 l 0.8,0.1 c 0.1,0 0.2,0.1 0.2,0.2 0,0.1 -0.1,0.2 -0.2,0.2 l -0.3,-0.1 c -0.1,0 -0.2,0.1 -0.2,0.2 l -0.1,0.4 c 0,0.1 0.1,0.2 0.2,0.2 h 0.2 c 0.1,0 0.2,0.1 0.2,0.2 0,0.1 -0.1,0.2 -0.2,0.2 h -0.2 c -0.1,0 -0.2,0.1 -0.2,0.2 l -0.1,0.4 c 0,0.1 0.1,0.2 0.2,0.2 l 0.3,0.1 c 0.1,0 0.2,0.1 0.2,0.2 0,0.1 -0.1,0.2 -0.2,0.2 z m 2.7,0.2 c -0.1,0.1 -0.3,0.2 -0.6,0.1 -0.3,0 -0.4,-0.1 -0.5,-0.3 -0.1,-0.2 -0.2,-0.3 -0.1,-0.6 h 0.2 c 0.1,0 0.2,0.1 0.2,0.2 0,0 0,0 0.1,0.1 0,0 0.1,0.1 0.2,0.1 0.1,0 0.2,0 0.2,-0.1 0.1,-0.1 0.1,-0.2 0.1,-0.3 0,-0.3 0,-0.4 -0.2,-0.5 l -0.1,-0.1 c -0.1,-0.1 -0.3,-0.2 -0.3,-0.2 0,0 -0.2,-0.2 -0.2,-0.6 0,-0.3 0.1,-0.5 0.3,-0.6 0.1,-0.1 0.3,-0.1 0.5,-0.1 0.2,0 0.4,0.1 0.5,0.2 0.1,0.2 0.2,0.4 0.1,0.7 h -0.2 c -0.1,0 -0.2,-0.1 -0.2,-0.2 0,0 0,0 -0.1,-0.1 0,-0.1 -0.1,-0.1 -0.2,-0.1 -0.1,0 -0.2,0 -0.2,0.1 -0.1,0.1 -0.1,0.1 -0.1,0.3 0,0.2 0,0.3 0.2,0.4 l 0.1,0.1 c 0.1,0.1 0.3,0.2 0.3,0.2 0,0 0.2,0.2 0.2,0.7 0,0.3 -0.1,0.5 -0.2,0.6 m 2.6,0.1 c -0.1,0.1 -0.3,0.2 -0.6,0.2 -0.3,0 -0.4,-0.1 -0.6,-0.2 -0.1,-0.1 -0.2,-0.3 -0.2,-0.6 h 0.2 c 0.1,0 0.2,0.1 0.2,0.2 0,0 0,0 0.1,0.1 0,0 0.1,0.1 0.2,0.1 0.1,0 0.2,0 0.2,-0.1 0.1,-0.1 0.1,-0.2 0.1,-0.3 0,-0.3 0,-0.4 -0.3,-0.5 l -0.2,-0.1 c -0.1,0 -0.3,-0.1 -0.4,-0.2 0,0 -0.2,-0.2 -0.2,-0.6 0,-0.3 0.1,-0.5 0.2,-0.6 0.1,-0.1 0.3,-0.2 0.5,-0.2 0.2,0 0.4,0.1 0.5,0.2 0.2,0.2 0.2,0.4 0.2,0.6 H 289 c -0.1,0 -0.2,-0.1 -0.2,-0.2 0,0 0,0 -0.1,-0.1 0,-0.1 -0.1,-0.1 -0.2,-0.1 -0.1,0 -0.2,0 -0.2,0.1 -0.1,0.1 -0.1,0.2 -0.1,0.3 0,0.2 0,0.3 0.2,0.4 l 0.1,0.1 c 0.1,0 0.3,0.1 0.4,0.2 0,0 0.3,0.2 0.3,0.7 0.3,0.3 0.3,0.5 0.1,0.6 m 2,-0.1 c -0.1,0.1 -0.3,0.2 -0.5,0.2 -0.3,0 -0.5,-0.1 -0.6,-0.2 -0.2,-0.2 -0.2,-0.5 -0.3,-1.2 0,-0.7 0,-1 0.1,-1.3 0.1,-0.1 0.3,-0.3 0.6,-0.3 0.2,0 0.4,0 0.5,0.2 0.2,0.1 0.2,0.3 0.3,0.6 h -0.2 c -0.1,0 -0.2,-0.1 -0.2,-0.2 v -0.1 c 0,-0.1 -0.1,-0.1 -0.2,-0.1 -0.1,0 -0.2,0 -0.2,0.1 -0.1,0.1 -0.1,0.4 -0.1,1 0,0.5 0.1,0.8 0.2,1 0,0.1 0.1,0.1 0.2,0.1 0.1,0 0.2,-0.1 0.2,-0.1 0,-0.1 0.1,-0.2 0.1,-0.3 h 0.5 c -0.2,0.3 -0.3,0.5 -0.4,0.6 m 0.9,0.1 c -0.1,0 -0.2,-0.1 -0.2,-0.2 l -0.2,-2.5 c 0,-0.1 0.1,-0.2 0.2,-0.2 v 0 c 0.1,0 0.2,0.1 0.2,0.2 l 0.2,2.5 c 0.1,0.1 0,0.2 -0.2,0.2 z m 1,-0.1 c -0.1,0 -0.2,-0.1 -0.2,-0.2 l -0.3,-2.5 c 0,-0.1 0.1,-0.2 0.2,-0.2 l 0.8,-0.1 c 0.1,0 0.2,0.1 0.2,0.2 0,0.1 -0.1,0.2 -0.2,0.2 h -0.3 c -0.1,0 -0.2,0.1 -0.2,0.2 l 0.1,0.4 c 0,0.1 0.1,0.2 0.2,0.2 h 0.2 c 0.1,0 0.2,0.1 0.2,0.2 0,0.1 -0.1,0.2 -0.2,0.2 h -0.2 c -0.1,0 -0.2,0.1 -0.2,0.2 l 0.1,0.4 c 0,0.1 0.1,0.2 0.2,0.2 h 0.3 c 0.1,0 0.2,0.1 0.2,0.2 0,0.1 -0.1,0.2 -0.2,0.2 z m 2.8,-0.5 c -0.1,0 -0.2,0 -0.3,-0.1 l -0.8,-1.2 c -0.1,-0.1 -0.1,-0.1 -0.1,0 l 0.3,1.3 c 0,0.1 -0.1,0.2 -0.2,0.3 v 0 c -0.1,0 -0.2,-0.1 -0.2,-0.2 l -0.5,-2.4 c 0,-0.1 0.1,-0.2 0.2,-0.2 0.1,0 0.3,0 0.3,0.1 l 0.8,1.2 c 0.1,0.1 0.1,0.1 0.1,0 l -0.3,-1.3 c 0,-0.1 0.1,-0.2 0.2,-0.2 v 0 c 0.1,0 0.2,0.1 0.2,0.2 l 0.5,2.4 c 0,0 0,0.1 -0.2,0.1 m 2,-0.6 c -0.1,0.2 -0.2,0.3 -0.4,0.3 -0.3,0.1 -0.5,0 -0.6,-0.1 -0.2,-0.2 -0.3,-0.5 -0.5,-1.1 -0.2,-0.7 -0.2,-1 -0.1,-1.3 0.1,-0.2 0.2,-0.3 0.5,-0.4 0.2,-0.1 0.4,0 0.5,0 0.2,0.1 0.3,0.3 0.4,0.5 l -0.2,0.1 c -0.1,0 -0.2,0 -0.3,-0.1 0,0 0,0 -0.1,-0.1 -0.1,-0.1 -0.1,-0.1 -0.2,0 -0.1,0 -0.2,0.1 -0.2,0.2 0,0.2 0,0.4 0.1,1 0.1,0.5 0.2,0.8 0.3,0.9 0.1,0.1 0.1,0.1 0.2,0 0.1,0 0.2,-0.1 0.2,-0.2 0,-0.1 0,-0.2 0,-0.3 l 0.4,-0.1 c 0.1,0.3 0.1,0.5 0,0.7 m 0.9,-0.1 c -0.1,0 -0.2,0 -0.3,-0.1 l -0.8,-2.4 c 0,-0.1 0,-0.2 0.1,-0.3 l 0.8,-0.2 c 0.1,0 0.2,0 0.3,0.1 0,0.1 0,0.2 -0.1,0.3 l -0.3,0.1 c -0.1,0 -0.2,0.2 -0.1,0.3 l 0.1,0.4 c 0,0.1 0.2,0.2 0.3,0.1 l 0.2,-0.1 c 0.1,0 0.2,0 0.3,0.1 0,0.1 0,0.2 -0.1,0.3 l -0.2,0.1 c -0.1,0 -0.2,0.2 -0.1,0.3 l 0.1,0.4 c 0,0.1 0.2,0.2 0.3,0.1 l 0.3,-0.1 c 0.1,0 0.2,0 0.3,0.1 0,0.1 0,0.2 -0.1,0.3 z m 2.5,-1.1 c -0.1,0.1 -0.2,0.3 -0.5,0.4 -0.2,0.1 -0.4,0.1 -0.6,0 -0.2,-0.1 -0.3,-0.2 -0.4,-0.5 l 0.2,-0.1 c 0.1,0 0.2,0 0.3,0.1 0,0 0,0 0.1,0.1 0.1,0 0.1,0 0.2,0 0.1,0 0.2,-0.1 0.2,-0.2 0,-0.1 0,-0.2 0,-0.3 -0.1,-0.3 -0.2,-0.3 -0.4,-0.3 h -0.2 c -0.1,0 -0.3,0 -0.4,-0.1 0,0 -0.3,-0.1 -0.4,-0.5 -0.1,-0.2 -0.1,-0.5 0,-0.7 0.1,-0.2 0.2,-0.3 0.4,-0.3 0.2,-0.1 0.4,-0.1 0.5,0 0.2,0.1 0.3,0.3 0.4,0.5 l -0.2,0.1 c -0.1,0 -0.2,0 -0.3,-0.1 0,0 0,0 -0.1,-0.1 -0.1,0 -0.1,0 -0.2,0 -0.1,0 -0.1,0.1 -0.2,0.1 0,0.1 0,0.2 0,0.3 0.1,0.2 0.1,0.3 0.4,0.3 h 0.2 c 0.1,0 0.3,0 0.4,0.1 0,0 0.3,0.1 0.5,0.5 0.2,0.3 0.2,0.5 0.1,0.7 m 1.6,-0.5 c -0.1,0.1 -0.2,0 -0.3,-0.1 l -1.1,-2.2 c -0.1,-0.1 0,-0.2 0.1,-0.3 l 0.7,-0.3 c 0.1,0 0.2,0 0.3,0.1 0.1,0.1 0,0.2 -0.1,0.3 l -0.3,0.2 c -0.1,0 -0.1,0.2 -0.1,0.3 l 0.2,0.4 c 0.1,0.1 0.2,0.1 0.3,0.1 l 0.2,-0.1 c 0.1,0 0.2,0 0.3,0.1 0.1,0.1 0,0.2 -0.1,0.3 l -0.2,0.1 c -0.1,0.1 -0.1,0.2 -0.1,0.3 l 0.2,0.4 c 0,0.1 0.2,0.1 0.3,0.1 l 0.3,-0.1 c 0.1,-0.1 0.2,0 0.3,0.1 0.1,0.1 0,0.2 -0.1,0.3 z m 1,-3.4 c -0.1,0.1 -0.1,0.2 -0.1,0.3 l 1,1.8 c 0.1,0.1 0,0.2 -0.1,0.3 v 0 c -0.1,0.1 -0.2,0 -0.3,-0.1 l -1,-1.8 c -0.1,-0.1 -0.2,-0.1 -0.3,-0.1 h -0.1 c -0.1,0.1 -0.2,0 -0.3,-0.1 -0.1,-0.1 0,-0.2 0.1,-0.3 l 0.9,-0.5 c 0.1,-0.1 0.2,0 0.3,0.1 0.1,0.2 0.1,0.3 -0.1,0.4 z m 2.6,1.4 c -0.1,0.1 -0.2,0 -0.3,-0.1 l -1.3,-2.1 c -0.1,-0.1 0,-0.2 0.1,-0.3 v 0 c 0.1,-0.1 0.2,0 0.3,0.1 l 1.1,1.8 c 0.1,0.1 0.2,0.1 0.3,0.1 l 0.3,-0.2 c 0.1,-0.1 0.2,0 0.3,0.1 0.1,0.1 0,0.2 -0.1,0.3 z m 2.2,-1.5 c -0.1,0.1 -0.2,0 -0.3,0 l -0.1,-0.1 c -0.1,-0.1 -0.2,-0.1 -0.3,0 l -0.2,0.1 c -0.1,0.1 -0.1,0.2 -0.1,0.3 l 0.1,0.2 c 0,0.1 0,0.2 -0.1,0.3 v 0 c -0.1,0.1 -0.2,0 -0.2,-0.1 l -0.9,-2.4 c 0,-0.1 0,-0.3 0.1,-0.3 v 0 c 0.1,-0.1 0.2,-0.1 0.3,0 l 1.9,1.7 c 0,0.1 0,0.2 -0.2,0.3 z m -1.6,-1.3 c -0.1,-0.1 -0.1,-0.1 0,0 l 0.2,0.8 c 0,0.1 0.2,0.1 0.3,0.1 h 0.1 c 0.1,-0.1 0.1,-0.2 0,-0.3 z m 3.2,0.2 c -0.2,0.2 -0.4,0.2 -0.6,0.1 -0.3,-0.1 -0.5,-0.3 -0.9,-0.9 -0.4,-0.6 -0.6,-0.8 -0.5,-1.1 0,-0.2 0.1,-0.4 0.3,-0.5 0.2,-0.1 0.4,-0.2 0.5,-0.1 0.2,0 0.4,0.2 0.5,0.4 l -0.2,0.1 c -0.1,0.1 -0.2,0.1 -0.3,0 0,0 -0.1,-0.1 -0.3,0 -0.1,0.1 -0.1,0.1 -0.1,0.2 0,0.2 0.2,0.4 0.5,0.8 0.3,0.4 0.5,0.7 0.6,0.7 0.1,0 0.1,0 0.2,0 0.2,-0.1 0.1,-0.3 0,-0.5 l -0.1,-0.2 c -0.1,-0.1 -0.2,-0.1 -0.2,-0.1 -0.1,0 -0.2,0 -0.2,-0.1 -0.1,-0.1 0,-0.2 0.1,-0.3 l 0.3,-0.2 c 0.1,-0.1 0.2,0 0.3,0 l 0.3,0.5 c 0.3,0.6 0.2,1 -0.2,1.2 m 1.1,-0.8 c -0.1,0.1 -0.2,0 -0.3,0 l -1.5,-2 c -0.1,-0.1 -0.1,-0.2 0,-0.3 v 0 c 0.1,-0.1 0.2,0 0.3,0 l 1.2,1.7 c 0.1,0.1 0.2,0.1 0.3,0 l 0.3,-0.2 c 0.1,-0.1 0.2,-0.1 0.3,0 0.1,0.1 0,0.2 0,0.3 z m 1.8,-1.6 c 0,0.2 -0.1,0.4 -0.3,0.5 -0.2,0.2 -0.4,0.2 -0.6,0.1 -0.3,-0.1 -0.5,-0.3 -0.9,-0.9 -0.4,-0.5 -0.6,-0.8 -0.6,-1.1 0,-0.2 0.1,-0.4 0.3,-0.5 0.2,-0.2 0.4,-0.2 0.6,-0.1 0.3,0.1 0.5,0.3 0.9,0.9 0.5,0.5 0.7,0.8 0.6,1.1 m -1.6,-1.6 c -0.1,0 -0.2,0 -0.2,0 -0.1,0.1 -0.1,0.1 -0.1,0.2 0,0.2 0.2,0.4 0.5,0.8 0.3,0.4 0.5,0.6 0.7,0.7 0.1,0 0.2,0 0.2,0 0.1,-0.1 0.1,-0.1 0.1,-0.2 0,-0.2 -0.2,-0.4 -0.5,-0.8 -0.3,-0.4 -0.5,-0.6 -0.7,-0.7 m 2.5,1.2 c -0.1,0.1 -0.2,0 -0.3,0 l -1.5,-2 c -0.1,-0.1 -0.1,-0.2 0,-0.3 v 0 c 0.1,-0.1 0.2,0 0.3,0 l 1.5,2 c 0.1,0.1 0.1,0.2 0,0.3 z m 1.7,-1.3 c -0.1,0.1 -0.2,0.1 -0.3,0 l -0.7,-0.5 c -0.1,-0.1 -0.2,-0.1 -0.3,0 -0.1,0 0,0.2 0,0.2 l 0.5,0.6 c 0.1,0.1 0.1,0.2 0,0.3 v 0 c -0.1,0.1 -0.2,0.1 -0.3,0 l -1.5,-2 c -0.1,-0.1 -0.1,-0.2 0,-0.3 l 0.2,-0.2 c 0.1,-0.1 0.3,-0.2 0.4,-0.2 0,0 0.5,-0.2 0.9,0.3 0.2,0.3 0.3,0.5 0.2,0.8 l 0.9,0.6 c 0.1,0.2 0.1,0.3 0,0.4 z m -2,-1.6 v 0 c -0.1,0.1 -0.2,0.2 -0.1,0.3 l 0.3,0.4 c 0.1,0.1 0.2,0.1 0.2,0.1 0.1,0 0.1,-0.2 0.2,-0.3 0,0 0,-0.1 -0.1,-0.3 -0.2,-0.2 -0.3,-0.4 -0.5,-0.2 m 2.6,1.2 c -0.1,0.1 -0.2,0 -0.3,0 l -1.4,-2 c -0.1,-0.1 0,-0.2 0,-0.3 l 0.7,-0.5 c 0.1,-0.1 0.2,0 0.3,0 0.1,0.1 0,0.2 -0.1,0.3 l -0.3,0.2 c -0.1,0.1 -0.1,0.2 0,0.3 l 0.2,0.3 c 0.1,0.1 0.2,0.1 0.3,0 l 0.2,-0.1 c 0.1,-0.1 0.2,0 0.3,0 0.1,0.1 0,0.2 0,0.3 l -0.2,0.1 c -0.1,0.1 -0.1,0.2 0,0.3 l 0.2,0.3 c 0.1,0.1 0.2,0.1 0.3,0 l 0.3,-0.2 c 0.1,-0.1 0.2,0 0.3,0 0.1,0.1 0,0.2 0,0.3 z m 7,-33 c -0.3,0.2 -7.7,4.7 -9.4,6.2 -1.7,1.5 -5.8,5.8 -6.5,6.7 -0.1,0.1 -0.2,0.3 -0.4,0.4 -0.5,-0.8 1.2,-2.3 1.2,-2.5 -0.2,0 -0.8,0.8 -1,1 -0.1,0.1 -0.2,0.3 -0.3,0.3 -0.3,-0.4 0,-0.8 0.2,-1 0.2,-0.2 1,-1.3 1.2,-1.5 -0.5,0.4 -0.9,0.9 -1.3,1.3 -0.1,0.1 -0.2,0.3 -0.3,0.3 -0.2,0 -0.2,-0.5 -0.1,-0.7 0.1,-0.1 1.5,-1.7 1.7,-1.9 -0.4,0.3 -0.9,0.8 -1.3,1.2 -0.1,0.1 -0.3,0.4 -0.4,0.4 -0.2,-0.1 -0.1,-0.4 0,-0.5 5.2,-5.2 16.5,-10 17,-10 0.1,0 0,0.2 -0.3,0.3 m -35.2,5.7 c -0.4,0.1 -3.8,0.5 -4.6,0.6 -0.2,-0.2 -0.2,-0.7 -0.6,-0.8 -0.1,0 -0.3,0 -0.5,0 -1,0.1 -1.9,0.2 -2.7,0.3 -0.2,0 -0.3,0 -0.5,0.1 v 0 c 0,0 -0.2,-0.2 -0.2,-0.4 0,-0.1 -1,-1.5 -1.4,-2.1 -0.2,-0.3 -0.5,-0.6 -0.6,-1 -0.1,-0.2 0,-0.5 0,-0.7 0,-0.2 -0.3,-0.4 -0.4,-0.5 -0.2,-0.1 -0.4,0 -0.5,-0.2 -0.1,-0.1 -0.1,-0.4 -0.2,-0.5 -0.2,-0.6 -0.5,-1 -0.7,-1.5 -0.1,-0.2 -0.9,-1.6 -1.2,-1.7 -0.1,-0.1 -0.4,0 -0.6,0 -0.3,-0.1 -0.4,-0.7 -0.8,-0.7 -0.3,0 -1.1,0.7 -1.3,0.8 -1.1,0.8 -3.2,2.3 -3.3,2.6 -0.1,0.3 0.2,0.6 0.2,0.6 0,0 0.4,0.3 0.5,0.5 0,0.2 0,0.3 0,0.5 0,0.2 1.2,2 2.2,2.7 0.2,0.1 0.5,0.2 0.5,0.3 0,0.2 -0.2,0.4 -0.1,0.6 0.1,0.4 0.6,0.5 0.9,0.8 0.3,0.3 0.5,0.8 0.8,1.2 0.3,0.4 0.4,0.6 0.7,1 0,0 -0.6,1.2 -1.7,0.3 -6.4,-5.3 -18.6,-10.4 -19.8,-10.9 -0.4,-0.2 -0.6,-0.3 -0.7,-0.3 0,0.1 1.2,1.9 1.9,3.3 0.2,0.5 1.8,3.2 1.9,3.5 -0.5,0 -1.1,-0.6 -1.2,-0.6 -0.1,0.1 0.1,0.6 0.2,1.1 0.2,0.5 1.1,3.8 2.8,6.3 0.2,0.3 0.3,0.5 0.2,0.6 -0.2,0.2 -1.3,-0.6 -1.4,-0.5 0,0 -0.1,0.1 0,0.4 0.1,0.4 0.9,2 3.4,5.7 -0.1,0.1 -0.4,0 -0.6,0.2 -0.2,0.2 0.2,0.5 0.4,0.8 0.2,0.3 1.5,2 1.6,2.2 0.1,0.2 1.8,1.9 2.6,2.5 0.8,0.6 2.7,1.6 3.2,1.8 0.6,0.3 2.4,0.8 2.9,0.9 0.5,0.1 0.9,0.1 1.1,0.2 0.2,0.1 0.6,0.4 0.9,0.6 2.7,1.4 4.5,1.5 6.2,1.2 0.9,-0.1 1.4,-0.2 1.8,0 0.4,0.2 1.5,1.2 1.7,1.4 0,0 -0.6,1.3 -0.9,1.8 -0.5,1 -2.7,4.6 -2.9,4.9 -0.2,0.3 -0.5,1 -0.8,0.9 -0.1,0 -3.5,-1.9 -4.1,-2.4 -0.7,-0.5 -5.7,-4.2 -6.6,-4.9 -0.6,-0.5 -3.4,-2.2 -6.1,1.4 -2,3.3 -2.3,6.6 1.8,9.8 0.5,0.4 1.6,2.1 1.2,3.8 0,0.2 -0.2,0.4 -0.1,0.6 0.1,0.2 3.4,-2.6 3.7,-6 1.7,1.4 3.5,2.7 5.4,3.8 -0.2,0.3 -0.5,0.7 -0.7,1 -0.2,0.3 -0.5,0.7 -0.7,0.8 -0.2,0.1 -0.8,0.1 -0.9,0.4 -0.1,0.3 0.1,0.6 0,1 0,0.2 -0.3,0.5 -0.4,0.7 -0.2,0.3 -0.3,0.5 -0.5,0.6 -0.2,0.1 -0.3,0.1 -0.6,0.2 -0.1,0 -0.2,0.1 -0.4,0.2 -0.1,0.1 -0.3,0.1 -0.4,0.1 -0.4,0.2 -0.4,0.6 -0.2,1 0.1,0.2 0.2,0.3 0.2,0.4 0.2,0.3 0.4,0.4 0.5,0.6 0.2,0.4 1.9,2.7 1.5,3.4 -0.1,0.3 -0.4,0.3 -0.8,0.3 -0.4,0 -0.6,-0.3 -0.8,-0.4 0.2,-0.4 0.7,-1.3 0.6,-1.6 -0.1,-0.3 -0.3,-0.3 -0.6,-0.6 -0.4,-0.3 -4.8,-4.5 -5.1,-5 -0.3,-0.5 -1.5,-2 -1.9,-2.5 -0.4,-0.5 -1.6,-2.6 -1.8,-2.6 -0.2,0 -0.6,0.7 -0.6,0.8 0,0.1 -0.2,0.6 -0.3,0.7 -0.5,1.7 -1.5,5.9 -0.7,11.8 0.9,6.6 4.3,11.6 5.6,13.1 0.1,0.2 0.3,0.4 0.5,0.3 0.7,-0.2 1.8,-1.3 2.2,-1.7 0.2,-0.1 0.3,0 0.3,0 0,0 0.1,0.1 0.1,0.1 1.9,1.9 4.6,4 8.2,5.5 1.1,0.4 2.1,0.8 3.1,1.2 5.9,2.3 9.8,3.6 12.1,10.7 0.1,0.4 0.1,0.4 0.2,0.4 0.1,0 0.2,-0.3 0.2,-0.4 2.2,-7.3 6,-8.6 12.1,-11 1,-0.4 2,-0.8 3.1,-1.2 3.6,-1.5 6.3,-3.5 8.2,-5.5 0.4,0.4 1.5,1.5 2.2,1.7 0.2,0.1 0.3,0 0.4,-0.2 1.3,-1.5 4.8,-6.2 5.8,-13.2 0.8,-5.8 -0.1,-10.1 -0.7,-11.8 -0.1,-0.3 -0.5,-1.5 -0.7,-1.5 -0.3,0 -0.5,0.2 -0.7,0.6 -0.2,0.2 -0.4,0.5 -0.6,0.8 -2.9,4.7 -8.4,8.8 -8.6,9.3 -0.2,0.4 0.3,1 0.5,1.5 -0.2,0.1 -0.5,0.3 -0.8,0.4 -0.3,0.1 -0.9,-0.5 -0.9,-0.7 0,-0.4 0.4,-0.7 0.6,-1 0.4,-0.4 0.6,-0.8 0.8,-1.4 0.1,-0.3 0.5,-1.1 0.6,-1.2 0.1,-0.1 0.5,-0.9 0.4,-1 0,-0.2 -0.2,-0.5 -0.4,-0.5 -0.2,-0.1 -1,-0.3 -1.2,-0.4 -0.3,-0.1 -1,-1.1 -1.1,-1.4 0,-0.3 0.2,-0.7 0,-1 -0.1,-0.2 -0.6,-0.2 -0.9,-0.3 -0.2,-0.1 -1,-1.3 -1.2,-1.6 3.4,-2 5.1,-3.6 5.6,-3.9 v 0 c 0.2,3 3.6,6.2 3.7,6 0.1,-0.1 -0.1,-0.4 -0.2,-0.8 -0.1,-0.4 0,-2.3 1.2,-3.5 4.1,-3.2 3.7,-6.5 1.8,-9.8 -2.2,-2.9 -4.4,-2.4 -5.5,-1.8 -1,0.5 -4.4,3.3 -5.2,3.9 -1.3,1 -4.8,3.3 -5.7,3.6 -0.1,0 -0.6,0 -0.7,-0.2 -0.5,-0.5 -2.2,-2.9 -3,-4.5 -0.6,-1.2 -1.4,-2.6 -1.1,-3 0.1,-0.2 1.6,-1.2 2.1,-1.3 0.4,-0.1 1.3,0.2 2.2,0.3 1,0.1 4.2,-0.7 5.1,-1.4 0.9,-0.7 0.7,-0.5 0.8,-0.5 0.1,-0.1 0.8,-0.1 1.2,-0.2 5.1,-0.8 9.2,-5.5 9.9,-6.6 0.7,-1.1 0.9,-1.4 0.8,-1.7 -0.1,-0.3 -0.4,-0.1 -0.6,-0.2 0.6,-1 1.7,-2.3 2,-2.8 0.2,-0.5 1,-1.5 1.3,-2.3 0.2,-0.5 0.3,-0.8 0.2,-1 -0.2,-0.2 -1.2,0.7 -1.4,0.4 -0.2,-0.2 0.6,-0.9 2.1,-4 1.3,-2.6 1.2,-3.7 1.1,-3.9 -0.1,-0.2 -1,0.4 -1.2,0.5 0.6,-1.2 1.3,-2.3 1.9,-3.4 0.7,-1.4 1.9,-3.3 1.9,-3.3 0,-0.1 -0.2,0.1 -0.7,0.3 -1.2,0.6 -13.4,5.6 -19.8,10.9 -0.3,0.2 -0.9,0.4 -1.4,0 0.4,-0.6 0.7,-0.9 0.8,-1.1 0.1,-0.2 0.5,-0.9 0.9,-1.2 0.3,-0.3 0.8,-0.3 0.9,-0.8 0,-0.2 -0.2,-0.4 -0.1,-0.6 0,-0.2 0.3,-0.2 0.5,-0.3 0.2,-0.1 0.8,-0.6 0.9,-0.8 0.2,-0.2 1.2,-1.3 1.3,-1.9 0,-0.2 0,-0.3 0,-0.5 0.1,-0.2 0.3,-0.3 0.5,-0.5 0.1,-0.1 0.2,-0.4 0.2,-0.6 0,-0.2 -0.4,-0.3 -0.6,-0.5 -1.1,-0.8 -3.2,-2.3 -3.4,-2.5 -0.2,-0.1 -0.4,-0.4 -0.7,-0.4 -0.4,0 -0.4,0.6 -0.8,0.7 -0.2,0.1 -0.5,0 -0.6,0 -0.3,0.1 -0.8,1.1 -1,1.3 -0.2,0.3 -0.9,1.5 -0.9,1.8 -0.1,0.3 -0.1,0.4 -0.2,0.5 -0.1,0.1 -0.4,0.1 -0.5,0.2 -0.1,0.1 -0.3,0.3 -0.4,0.5 0,0.2 0,0.5 0,0.7 -0.1,0.3 -0.5,0.8 -0.7,1.1 -0.2,0.3 -1.2,1.8 -1.3,2 -0.1,0.2 -0.3,0.5 -0.3,0.5 -0.6,-0.1 -1.2,-0.3 -1.7,-0.3 -0.5,0 -1.9,-0.2 -1.9,-0.2 -0.6,-0.1 -0.7,0.4 -0.9,0.7 -1.3,-0.2 -2.4,-0.3 -3.5,-0.4 -0.2,0 -0.3,-0.4 -0.3,-0.6 0,-0.2 0,-3.6 0,-4.2 0,-0.1 0.1,0 0.1,0 3.1,4.3 6.2,4.2 7.1,3.7 0.6,-0.7 1.9,-2.9 2.6,-5.1 0.4,-1.4 0.6,-3 0.6,-4.3 -0.1,-1.7 -0.7,-7.9 -7.3,-10.5 -6.5,-2.6 -11.9,0.4 -13.1,1 -0.4,0.2 -0.7,0.4 -0.7,0.5 -0.1,0.2 0.3,0.6 0.4,0.6 0.2,0.1 0.4,0 0.7,0 0.2,0 1.1,0.7 1.4,1.4 0.3,0.7 0.7,1.8 0.6,2.3 -0.1,0.4 -1.2,0.9 -2.1,2.9 -0.7,-0.7 -1.2,1 -1.4,1.5 -0.2,0.4 -0.7,2.7 -0.6,3 0.1,0.4 0.1,0.4 0.3,0.6 -0.4,1 -1.1,2.2 -1.2,2.6 -0.1,0.4 -0.6,1.1 -0.7,2.2 0.9,0.4 4.2,0.9 9.9,-1.3 0,0.9 0,3.3 0,3.3 0.4,0.3 0.4,0.3 0.4,0.4 m 2.5,-4.5 c 0,-0.1 -0.1,-0.3 -0.2,-0.3 -0.1,0 -0.2,0.1 -0.2,0.3 v 10.9 c 0,0.1 0.1,0.3 0.2,0.3 0.1,0 0.2,-0.1 0.2,-0.3 z m -0.8,0.4 c 0,-0.1 -0.1,-0.2 -0.3,-0.1 -0.2,0.1 -1,0.5 -1,0.7 v 10 c 0,0.1 0.1,0.2 0.3,0.3 0.2,0 0.7,0.1 0.8,0 0.1,0 0.2,-0.1 0.2,-0.3 z m -0.7,66.9 c 0,-0.2 -0.3,-18.4 -0.3,-18.4 0,-0.1 -0.1,-1.7 -0.2,-2 -0.1,-0.3 -0.5,-0.3 -0.8,-0.3 -2,0 -3.3,-0.3 -4.2,-0.5 -0.3,-0.1 -0.2,0.5 0,0.5 0.6,0 1.5,0.2 2,0.3 -0.1,0.1 -0.1,0.2 -0.1,0.3 -0.4,0 -2.3,-0.5 -2,0.3 0.2,0.5 1.5,0.4 1.9,0.6 0,0 0,0.1 0,0.2 -0.5,0 -1.3,-0.1 -1.8,-0.2 -0.2,0.1 -0.2,0.3 -0.2,0.6 0.1,0 1.8,0.2 1.8,0.5 -0.5,0.1 -1.4,-0.1 -1.8,0 0,0.1 0,0.3 0,0.5 0.2,0.2 1.7,0.2 1.7,0.4 -0.4,0.2 -1.3,0 -1.7,0.1 0,0.2 0,0.4 0,0.6 0.2,0.1 1.6,0.1 1.5,0.3 -0.2,0.1 -1.3,0.1 -1.6,0.1 0,0.3 0,0.5 0,0.7 0.2,0.1 1.5,0 1.5,0.3 -0.2,0.1 -1.3,0 -1.5,0 0,0.2 -0.1,0.4 -0.1,0.7 0.3,-0.1 1.5,0 1.5,0.3 -0.1,0.1 -1.3,0.1 -1.6,0 0,0.2 -0.1,0.4 -0.1,0.6 0.1,0.2 1.6,0 1.6,0.2 0,0.2 -1.6,0.1 -1.7,0.1 0,0.2 -0.1,0.4 -0.1,0.7 0.3,0 1.7,0.1 1.6,0.3 -0.3,0.1 -1.3,-0.1 -1.7,0 -0.1,0.2 -0.2,0.4 -0.3,0.6 0.4,0.1 1.4,0.2 1.8,0.3 0,0.2 -0.2,0.1 -0.3,0.1 -0.1,0 -1.3,-0.2 -1.6,-0.2 -0.1,0.2 -0.2,0.4 -0.3,0.6 0.2,0.1 2,0.3 1.9,0.5 -0.6,0.1 -1.5,-0.2 -2.1,-0.2 -0.1,0.3 -0.3,0.4 -0.4,0.6 0.5,0.1 1.5,0.3 2,0.5 v 0.1 c -0.7,0 -1.6,-0.3 -2.2,-0.3 0,0.1 -0.4,0.4 -0.4,0.5 0,0.2 2.3,0.4 2.4,0.6 0,0.2 -2.4,-0.3 -2.6,-0.2 -0.2,0.2 -0.4,0.3 -0.6,0.5 0.4,0.2 2.7,0.6 3,0.6 v 0.3 c -0.3,0 -2.5,-0.4 -3.3,-0.6 -0.2,0.2 -0.4,0.3 -0.6,0.5 0.2,0.1 3.5,0.6 3.9,0.8 v 0.1 c -1.5,-0.1 -2.9,-0.3 -4.2,-0.7 -0.4,0.1 -1,0.1 -1.4,0.2 1.5,0.4 3,0.8 4.5,1.1 -0.1,0 -0.1,0.1 -0.1,0.2 -0.4,-0.1 -4.2,-0.9 -4.5,-1 -0.1,0 -0.2,-0.1 -0.4,-0.2 -0.3,-0.1 -3.3,0.2 -7.6,-3 -3.8,-2.9 -7.5,-7.7 -8.2,-8.6 -0.2,-0.2 -0.3,-0.5 -0.5,-0.6 0,0.6 0.1,0.8 0.3,1.2 0.2,0.5 3.9,7.1 5.8,9.2 1.5,1.7 3.8,3.9 6.3,5.4 2.2,1.3 6.2,2.9 8.7,3.3 1.9,0.3 6.4,0.5 6.7,0.5 0.6,0.1 0.7,-0.3 0.7,-0.5 m -23.6,-29.9 c -1.6,-1.7 -4.2,-3.8 -4.5,-3.6 -0.2,0.2 0.5,0.6 0.7,0.7 0.1,0.1 3.1,2.8 3.3,3 0.3,0.3 0.5,0.7 0.6,0.9 0.2,0.2 0.6,-0.3 -0.1,-1 m -5.8,-0.5 c -0.2,0.2 0.5,0.6 0.6,0.7 0,0 2.9,2.5 3.1,4.4 0,0.2 0,0.5 0.2,0.4 0.1,-0.1 0.3,0 0.2,-0.5 -0.1,-0.7 -0.5,-1.7 -0.9,-2.2 -0.3,-0.2 -3,-3.1 -3.2,-2.8 m -0.5,-1.4 c -0.1,0.2 0.5,0.6 0.6,0.7 0,0 4,3 4.3,4.9 0,0.2 0.1,0.5 0.2,0.4 0.1,0 0.3,0 0.2,-0.5 -0.1,-0.7 -0.7,-1.6 -1.3,-2.2 -0.6,-0.6 -3.8,-3.6 -4,-3.3 m -0.1,-1.2 c -0.3,0.1 0.6,0.8 0.7,0.9 0.3,0.2 4.5,3.8 4.9,5 0.1,0.2 0.1,0.4 0.2,0.4 0.1,0 0.3,0 0.2,-0.5 -0.2,-0.6 -0.6,-1.1 -1.6,-2.2 -1.1,-1.1 -4,-3.8 -4.4,-3.6 m 0.5,-0.8 c -0.3,0.1 0.6,0.8 0.7,0.9 0.3,0.2 4.2,3.5 5,4.7 0.1,0.2 0.1,0.4 0.2,0.3 0.2,0 0.2,-0.1 0.1,-0.5 -0.1,-0.3 -0.7,-1 -1.8,-2 -0.9,-0.9 -3.8,-3.5 -4.2,-3.4 m 53.8,4.5 c 0.1,-0.2 0.4,-0.6 0.6,-0.9 0.2,-0.2 3.1,-2.9 3.3,-3 0.1,-0.1 0.8,-0.5 0.7,-0.7 -0.2,-0.2 -2.9,2 -4.5,3.6 -0.7,0.7 -0.4,1.3 -0.1,1 m 2.7,1.5 c -0.5,0.5 -0.8,1.6 -0.9,2.2 -0.1,0.5 0.1,0.4 0.2,0.5 0.1,0.1 0.1,-0.3 0.2,-0.4 0.2,-1.9 3.1,-4.4 3.1,-4.4 0.1,-0.1 0.7,-0.6 0.6,-0.7 -0.2,-0.4 -2.9,2.5 -3.2,2.8 m -0.3,-0.9 c -0.6,0.6 -1.2,1.5 -1.3,2.2 -0.1,0.5 0.1,0.5 0.2,0.5 0.1,0 0.2,-0.3 0.2,-0.4 0.4,-1.9 4.3,-4.9 4.3,-4.9 0.1,-0.1 0.8,-0.5 0.6,-0.7 -0.2,-0.4 -3.4,2.6 -4,3.3 m -0.3,-1 c -1.1,1 -1.4,1.5 -1.6,2.2 -0.1,0.5 0.1,0.5 0.2,0.5 0.1,0 0.2,-0.2 0.2,-0.4 0.3,-1.2 4.5,-4.7 4.9,-5 0.2,-0.1 1,-0.8 0.7,-0.9 -0.5,-0.2 -3.3,2.5 -4.4,3.6 m -0.4,-0.9 c -1.1,1 -1.7,1.7 -1.7,2 -0.1,0.3 0,0.4 0.1,0.5 0.2,0 0.1,-0.1 0.2,-0.3 0.7,-1.2 4.6,-4.4 5,-4.7 0.2,-0.1 1,-0.8 0.7,-0.9 -0.5,-0.2 -3.3,2.4 -4.3,3.4 m -25.5,10.2 v -0.3 m -19.5,-1.5 c 2.2,1.6 6.7,4.7 8.9,6.3 0,0.1 -0.1,0.4 -0.2,0.4 -0.1,0.1 -3.4,-2.3 -3.4,-2.3 l -0.2,0.3 c 0,0 2.5,1.7 3.4,2.4 0.1,0.1 -0.3,0.4 -0.3,0.4 -2.2,-1.6 -6.7,-4.8 -8.9,-6.4 0.1,-0.4 0.5,-0.7 0.7,-1.1 m 0.2,-1.1 c 0.5,-0.1 8.8,6 9.4,6.5 0.2,0.1 0.4,0.3 0.3,0.6 -0.3,0 -0.5,-0.2 -0.6,-0.4 -0.2,-0.1 -8.5,-6.2 -8.8,-6.5 -0.2,0 -0.4,0 -0.3,-0.2 m -2,2.6 c 0.1,0 0.1,0 0,0 v 0 c 1.7,1.1 8.6,6.2 9.3,6.7 0.2,0.1 0.5,0.3 0.4,0.6 -0.1,0.1 -0.2,-0.1 -0.3,-0.1 -0.7,-0.6 -7,-5.3 -9.4,-7.2 z m -0.1,1 c -0.3,-0.2 -0.9,-0.5 -0.4,-0.7 3.3,2.4 6.6,4.9 9.9,7.3 0.1,0.1 0.2,0.1 0.2,0.3 -0.2,0.2 -0.5,-0.1 -0.7,-0.2 -2.3,-1.8 -8.3,-6.2 -9,-6.7 m 2.2,-1.1 c -0.1,-0.1 -0.1,-0.3 0,-0.4 0.2,-0.2 1.4,0.8 1.6,1.2 -0.6,0.1 -1.3,-0.5 -1.6,-0.8 m 18.6,-33 c 0,-0.3 0.2,-0.6 0.2,-0.6 -2.7,-0.1 -4.9,-2.1 -4.9,-4.6 0,-1.1 0.4,-2.1 1.1,-2.8 -0.6,-0.1 -1.6,0.1 -1.8,0.1 -0.3,0.1 -0.4,0.3 -0.4,0.4 -0.1,0.8 -0.2,2.3 0,4.3 0.2,2 1.1,4.3 1.6,5.5 0,0 0,0.1 0,0.2 0,0.1 -2.4,2 -2.8,2 -0.3,-0.1 -1.7,-1.3 -1.8,-1.4 -0.1,0 -0.2,0.1 -0.3,0.1 -0.5,0.1 -0.9,0 -1.2,0.1 -0.2,0 -0.5,0 -0.6,0.2 0.7,2.4 1.8,4.8 3,6.8 0.2,0.3 0.4,0.7 0.6,0.8 0.3,0.2 0.8,0.5 2.3,0.4 1.3,-0.1 2.8,0 3.9,-0.1 v 0 -0.4 h 1.6 V 177 c -0.1,0 -0.5,-0.2 -0.5,-0.5 m 1.3,0.1 c 0,0 0.2,0.2 1.2,0.1 l -0.1,0.2 h -1.3 c 0,0 -0.4,0.1 -0.4,0.4 0,0.4 0.4,0.3 0.4,0.3 h 1.3 l -0.1,0.3 h -1.2 c 0,0 -0.4,-0.1 -0.4,0.3 0,0.3 0.1,0.5 0.3,0.5 h 1.4 l -0.1,0.3 h -1.3 c -0.1,0 -0.3,0.1 -0.3,0.3 0,0.2 0.1,0.4 0.3,0.4 h 1.4 l -0.1,0.2 h -1.2 c -0.2,0 -0.3,0.1 -0.3,0.3 0,0.2 0.1,0.5 0.4,0.5 h 1.3 l -0.1,0.2 h -1.2 c -0.2,0 -0.4,0.2 -0.4,0.4 0,0.2 -0.1,0.4 0.4,0.4 h 1.3 l -0.1,0.2 h -1.2 c -0.2,0 -0.3,0 -0.3,0.3 0,0.3 0.2,0.4 0.4,0.4 h 1.1 l -0.1,0.2 h -1 c -0.2,0 -0.4,-0.1 -0.4,0.4 0,0.4 0.1,0.4 0.4,0.4 h 1 l 0.1,0.3 h -1.1 c -0.2,0 -0.4,0 -0.4,0.4 0,0.4 0.2,0.4 0.4,0.4 h 1.1 l 0.1,0.3 h -1.2 c -0.2,0 -0.4,0 -0.4,0.4 0,0.4 0.1,0.4 0.4,0.4 h 1.1 l 0.1,0.3 c 0,0 -0.9,0 -1.1,0 -0.2,0 -0.5,0.2 -0.5,0.4 0,0.2 0.3,0.3 0.4,0.3 h 1.3 l 0.1,0.3 h -1.8 v 0.2 h 1.5 v 0.4 c 1.6,0.1 3.4,-0.1 5,-0.1 0.4,0 1.2,0.1 1.2,-0.3 0,-0.2 -0.6,-0.2 -0.8,-0.2 -0.9,-0.1 -1.6,0 -2.4,-0.1 0,-0.1 0,-0.2 0,-0.3 0.7,0 2.8,-0.1 2.9,-0.1 0.4,0 0.7,0 0.6,-0.4 -0.7,-0.1 -1.5,-0.1 -2.2,-0.2 0,-0.1 0,-0.2 0,-0.2 0.5,0 1.1,0 1.6,0 0.5,0 1.3,0.1 1,-0.5 -0.6,-0.1 -1.4,-0.1 -2,-0.2 0,-0.1 0,-0.2 0,-0.3 0.4,0 1.1,-0.1 1.6,0 0.4,0 1.1,0.2 0.9,-0.4 -0.6,-0.2 -1.4,-0.1 -2,-0.3 0,-0.1 0.1,-0.1 0.2,-0.3 0.3,0 2.6,0.1 2.5,-0.4 0,0 -0.1,-0.1 0,-0.1 -1.1,-0.3 -2.5,-0.1 -3.7,-0.4 v 0.1 c 0,0 3.7,0 3.8,0 0.1,0 0.3,-0.2 0.3,-0.3 -0.1,-0.1 -0.8,-0.2 -0.9,-0.3 -0.7,-0.2 -1.6,-0.1 -2.3,-0.2 0,-0.1 0,-0.2 0.1,-0.2 0.9,0 2.1,0.1 3,0 0.3,0 0.7,0 0.7,-0.3 0,-0.2 -1,-0.3 -1.2,-0.4 -0.7,-0.1 -1.3,-0.2 -2.1,-0.1 -0.3,0 -2.7,-1.9 -2.8,-2.2 -0.1,-0.3 0.5,-1.4 0.5,-1.4 0.2,-0.4 0.3,-0.9 0.4,-1.1 0,-0.1 0.1,-0.2 0.1,-0.3 0.2,-0.6 0.6,-2 0.6,-2.8 0.1,-2 0.1,-3.4 0,-4.1 -0.1,-0.6 -0.5,-0.7 -1.3,-0.8 -0.8,-0.1 -0.4,0.4 -0.4,0.4 0.5,0.7 0.8,1.6 0.8,2.5 0,2.3 -1.9,4.2 -4.4,4.6 0,0 -0.2,0 -0.1,0.2 -0.3,0.1 -0.3,0.4 -0.3,0.4 m 19.1,1 c 0,0.1 -0.7,1.2 0.7,0.3 1.4,-0.8 2.4,-1 2.4,-1 -1.3,1.2 -4,2.1 -4,2.1 l -1.3,1.9 c 0.6,0 5,-2.1 5.7,-2.8 0.7,-0.7 2.6,-4.3 3,-5.1 0.3,-0.8 0,-0.9 -0.3,-0.6 -0.3,0.2 -1.4,1.1 -2,1.6 -0.6,0.6 -3.2,2.1 -3.2,2.1 -0.2,0.3 -1,1.5 -1,1.5 m -46.5,-7.2 c -0.4,-0.8 -1.4,-3.7 -1.3,-3.8 0.2,-0.1 0.6,0 0.7,0.2 0.3,0.3 0.4,0.9 0.6,1.2 0,-0.1 0,-0.4 0.2,-0.4 0.7,0 0.7,1.5 1.5,1.8 0,-0.1 -0.2,-0.3 -0.1,-0.5 0.3,0 0.5,0.2 0.7,0.4 0.3,0.3 1.4,2.2 1.4,2.5 -0.5,0.1 -2.7,-1.9 -2.9,-2 0.1,0.3 2.9,2.8 3.3,3.1 0.2,0.3 0.9,1.9 1,2.2 0,0.1 0.1,0.2 0.1,0.3 -0.4,-0.1 -4.9,-4.3 -5.2,-5 m -9.3,-9.1 c 0.2,-0.1 1.6,0.9 2,1.6 0.2,0.4 0.4,0.7 0.4,0.6 0,0 -0.2,-0.5 0,-0.5 0.2,0 0.7,0.3 1.6,1.8 0,-0.3 -0.4,-0.8 -0.1,-0.8 0.5,-0.1 0.9,1.1 1.2,1.4 0.3,0.4 0,-0.6 0.1,-0.6 0.2,0 0.5,0.1 0.6,0.3 0.1,0.2 0.7,1.8 1,1.7 0.2,0 -0.4,-0.9 -0.2,-1.1 0.2,-0.2 0.6,0.3 0.7,0.5 0.1,0.2 1.1,2.6 0.9,2.8 -0.2,0.2 -1.3,-0.7 -1.6,-0.9 -0.4,-0.4 -2.5,-2.2 -2.5,-2.1 -0.1,0.1 0.6,1 1.3,1.7 1.6,1.7 3.4,3 3.4,3 0,0 0.6,1.1 0.4,1.1 -2,0 -5.2,-4 -5.5,-4.5 -0.8,-0.7 -4.1,-5.8 -3.7,-6 m 14.8,15 c 0,0 -2.6,-1.6 -3.2,-2.1 -0.6,-0.6 -1.8,-1.4 -2,-1.6 -0.3,-0.2 -0.6,-0.2 -0.3,0.6 0.3,0.8 2.3,4.4 3,5.1 0.7,0.7 5.1,2.7 5.7,2.8 l -1.2,-1.9 c 0,0 -2.7,-0.9 -4,-2.1 0,0 1,0.2 2.4,1 1.4,0.8 0.7,-0.2 0.7,-0.3 -0.1,-0.2 -0.9,-1.3 -1.1,-1.5 m 10,-4.2 c 0.2,0 -0.5,-0.1 -0.5,0.4 0,0.4 -0.1,4 -0.4,4.9 -0.3,0.9 -0.7,2.2 -0.5,2.3 0.2,0.1 0.4,0.2 0.6,-0.3 0.2,-0.5 1.4,-4.1 1.2,-6.5 0,-0.8 -0.4,-0.8 -0.4,-0.8 m 21.4,0.7 c -0.2,2.3 1,5.9 1.2,6.5 0.2,0.5 0.4,0.4 0.6,0.3 0.2,-0.1 -0.2,-1.3 -0.5,-2.3 -0.3,-0.9 -0.4,-4.5 -0.4,-4.9 0,-0.4 -0.6,-0.4 -0.5,-0.4 0.1,0.1 -0.3,0.1 -0.4,0.8"
   class="st1" />
		<g
   id="g18">
			<line
   id="line14"
   y2="583.29999"
   x2="441.60001"
   y1="583.29999"
   x1="140.39999"
   class="st0" />
			<rect
   id="rect16"
   height="2.7"
   width="301.20001"
   class="st0"
   y="582"
   x="140.39999" />
		</g>
		<rect
   id="rect20"
   height="28.299999"
   width="6.1999998"
   class="st0"
   y="639.90002"
   x="247.10001" />
		<path
   id="path22"
   d="m 276.9,639.9 h -11.6 v 28.3 h 6.2 v -8.5 h 4.7 c 6.4,0 11.5,-3.4 11.5,-10 0.1,-5.8 -4,-9.8 -10.8,-9.8 m -0.4,14.3 h -4.9 v -8.7 h 4.8 c 3.1,0 5.1,1.5 5.1,4.3 0,2.5 -1.8,4.4 -5,4.4"
   class="st0" />
		<path
   id="path24"
   d="m 319.7,639.9 h -11.6 v 28.3 h 6.2 v -8.5 h 4.7 c 6.4,0 11.5,-3.4 11.5,-10 0,-5.8 -4.1,-9.8 -10.8,-9.8 m -0.4,14.3 h -4.9 v -8.7 h 4.8 c 3.1,0 5.1,1.5 5.1,4.3 -0.1,2.5 -1.9,4.4 -5,4.4"
   class="st0" />
		<path
   id="path26"
   d="m 346.1,639.7 h 5.8 l 12.1,28.6 h -6.5 l -2.6,-6.4 h -12 l -2.6,6.4 h -6.4 z m 6.5,16.7 -3.8,-9.2 -3.8,9.2 z"
   class="st0" />
		<path
   id="path28"
   d="m 371.8,639.9 h 13 c 3.6,0 6.4,1 8.3,2.9 1.6,1.6 2.4,3.8 2.4,6.5 v 0.1 c 0,4.6 -2.5,7.5 -6.1,8.8 l 6.9,10.1 H 389 l -6.1,-9.1 h -0.1 -4.8 v 9.1 h -6.2 z m 12.6,13.8 c 3,0 4.8,-1.6 4.8,-4 v -0.1 c 0,-2.7 -1.9,-4.1 -4.9,-4.1 H 378 v 8.1 h 6.4 z"
   class="st0" />
		<rect
   id="rect30"
   height="28.299999"
   width="6.1999998"
   class="st0"
   y="639.90002"
   x="406" />
		<path
   id="path32"
   d="m 434.9,651.3 c -4.9,-1.3 -6.1,-1.9 -6.1,-3.8 0,-1.4 1.3,-2.5 3.6,-2.5 2.3,0 4.9,1.1 7.4,2.8 l 3.2,-4.7 c -2.9,-2.3 -6.4,-3.6 -10.5,-3.6 -5.8,0 -9.9,3.4 -9.9,8.6 0,5.6 3.7,7.3 9.4,8.7 4.7,1.2 5.7,2.1 5.7,3.6 0,1.7 -1.5,2.7 -4.1,2.7 -3.2,0 -5.9,-1.3 -8.5,-3.4 l -3.7,4.4 c 3.4,3 7.7,4.5 12,4.5 6.1,0 10.4,-3.2 10.4,-8.8 0.1,-4.9 -3.1,-7 -8.9,-8.5"
   class="st0" />
		<path
   id="path34"
   d="m 180,654.8 c -12.5,-8.6 -19.2,-13.1 -25.5,-17.8 -3,5 -4.8,10.9 -4.8,17.2 0,11.4 5.7,21.4 14.5,27.4 3.7,-7.3 8.6,-15.3 15.8,-26.8"
   class="st0" />
		<path
   id="path36"
   d="m 212.7,661.4 c -5.1,5.4 -13.3,6.2 -19.2,2.5 -1.1,-0.7 -9.2,-6.3 -9.2,-6.3 -9,12.6 -13.6,19 -18.5,24.8 5,3.1 10.9,4.8 17.3,4.8 17.8,0 32.3,-14 33.1,-31.6 -0.8,2.2 -2,4.2 -3.5,5.8"
   class="st0" />
		<path
   id="path38"
   d="m 206.5,642.7 c -1.1,-0.7 -8.2,-5.5 -8.2,-5.5 -5.8,8.6 -6.7,9.8 -11.2,16.2 0,0 7.7,5 8.9,5.7 4,2.5 9.3,1.7 12.4,-1.7 1.2,-1.3 2.1,-3 2.4,-4.7 0.6,-3.2 -0.4,-7.5 -4.3,-10"
   class="st0" />
		<path
   id="path40"
   d="m 182.6,650.6 c 4.2,-6.7 8,-12.7 14,-21.7 0,0 12.5,8.3 13.6,9.1 1.3,0.9 2.3,1.9 3,2.8 -5.1,-11.7 -16.8,-19.8 -30.4,-19.8 -10.8,0 -20.4,5.2 -26.5,13.2 6.9,3.9 14.8,9 26.3,16.4"
   class="st0" />
		<path
   id="path42"
   d="m 151.6,630.2 c 0,-2.3 -1.9,-4.2 -4.2,-4.2 -2.3,0 -4.2,1.9 -4.2,4.2 0,2.3 1.9,4.2 4.2,4.2 2.3,0 4.2,-1.9 4.2,-4.2"
   class="st0" />
		<path
   id="path44"
   d="m 154.5,618 2,-1.4 c 1.2,-0.8 2.4,-0.7 3.1,0.3 v 0 c 0.8,1.1 0.3,2.3 -0.8,3.1 l -1,0.7 1.2,1.6 -0.9,0.6 z m 3.8,1.3 c 0.7,-0.5 0.8,-1.1 0.4,-1.7 v 0 c -0.4,-0.6 -1.1,-0.6 -1.7,-0.1 l -1,0.7 1.3,1.8 z"
   class="st0" />
		<path
   id="path46"
   d="m 162.7,616.3 v 0 c -0.7,-1.6 -0.1,-3.5 1.7,-4.2 1.7,-0.8 3.5,0 4.2,1.6 v 0 c 0.7,1.6 0.1,3.4 -1.7,4.2 -1.7,0.7 -3.5,0 -4.2,-1.6 m 4.8,-2.2 v 0 c -0.5,-1.1 -1.7,-1.7 -2.8,-1.2 -1.1,0.5 -1.5,1.7 -1,2.8 v 0 c 0.5,1.1 1.7,1.6 2.8,1.2 1.1,-0.4 1.5,-1.7 1,-2.8"
   class="st0" />
		<polygon
   id="polygon48"
   points="173.3,614.5 176.5,613.8 176.7,614.8 172.5,615.7 171.2,609.7 172.2,609.5 "
   class="st0" />
		<polygon
   id="polygon50"
   points="178.5,608.4 180.4,611 181.9,608.2 183.2,608.2 181,612 181.1,614.4 180,614.5 179.9,612.1 177.2,608.5 "
   class="st0" />
		<polygon
   id="polygon52"
   points="185.8,608.3 190.7,608.8 190.6,609.8 188.7,609.6 188.1,614.7 187,614.6 187.6,609.5 185.6,609.3 "
   class="st0" />
		<polygon
   id="polygon54"
   points="198.4,611.9 195.1,610.9 194.6,612.4 197.6,613.3 197.3,614.2 194.4,613.3 193.9,614.9 197.2,615.9 197,616.9 192.6,615.5 194.4,609.6 198.7,611 "
   class="st0" />
		<path
   id="path56"
   d="m 200.9,615.2 v 0 c 0.8,-1.6 2.7,-2.2 4.3,-1.3 1,0.5 1.4,1.2 1.7,2 l -1,0.4 c -0.2,-0.6 -0.5,-1.2 -1.2,-1.5 -1,-0.6 -2.2,-0.1 -2.8,0.9 v 0 c -0.6,1.1 -0.3,2.3 0.7,2.9 0.7,0.4 1.2,0.3 1.9,0.1 l 0.3,0.9 c -0.9,0.3 -1.7,0.3 -2.7,-0.2 -1.6,-0.8 -2.1,-2.7 -1.2,-4.2"
   class="st0" />
		<polygon
   id="polygon58"
   points="209.6,619.9 211.9,621.8 213.5,619.9 214.3,620.6 210.4,625.3 209.6,624.6 211.2,622.6 209,620.7 207.3,622.7 206.5,622 210.4,617.3 211.3,618 "
   class="st0" />
		<polygon
   id="polygon60"
   points="216.9,630 220.2,627.4 220.9,628.2 216,632 215.5,631.2 216.8,625.9 213.4,628.6 212.7,627.7 217.6,624 218.2,624.7 "
   class="st0" />
		
			<rect
   id="rect62"
   height="1.1"
   width="6.0999999"
   class="st0"
   transform="matrix(0.8784,-0.4779,0.4779,0.8784,-275.9983,182.4277)"
   y="633.20001"
   x="217.5" />
		<path
   id="path64"
   d="m 221.6,642.8 c -0.5,-0.4 -0.9,-0.9 -1.2,-1.6 -0.6,-1.8 0.3,-3.5 1.9,-4.1 v 0 c 1.6,-0.6 3.4,0.2 4.1,2 0.6,1.8 -0.3,3.5 -1.9,4.1 v 0 c -0.7,0.2 -1.3,0.2 -2,0 l -0.3,0.9 -1,-0.4 z m 0.4,-1 0.5,-1.3 1,0.4 -0.6,1.3 c 0.4,0.1 0.8,0.1 1.2,-0.1 v 0 c 1.1,-0.4 1.8,-1.5 1.4,-2.7 -0.4,-1.2 -1.6,-1.6 -2.7,-1.3 v 0 c -1.1,0.4 -1.8,1.5 -1.4,2.7 0.1,0.5 0.3,0.8 0.6,1"
   class="st0" />
		<path
   id="path66"
   d="m 224.7,646.6 3.5,-0.4 0.1,1.1 -3.5,0.4 c -1.1,0.1 -1.7,0.8 -1.6,1.7 0.1,1 0.8,1.5 1.9,1.3 l 3.5,-0.4 0.1,1.1 -3.5,0.4 c -1.8,0.2 -2.9,-0.7 -3,-2.3 -0.1,-1.6 0.7,-2.7 2.5,-2.9"
   class="st0" />
		<polygon
   id="polygon68"
   points="227.5,660 227.8,656.5 226.2,656.4 226,659.5 225,659.4 225.3,656.3 223.6,656.2 223.3,659.7 222.4,659.6 222.7,655.1 228.9,655.5 228.5,660.1 "
   class="st0" />
		<polygon
   id="polygon70"
   points="159.5,686.2 160.4,686.8 156.8,691.8 155.9,691.2 "
   class="st0" />
		<polygon
   id="polygon72"
   points="152.3,682.3 149.3,685.3 148.5,684.5 152.9,680.2 153.5,680.9 152.8,686.3 155.9,683.3 156.7,684 152.3,688.3 151.6,687.6 "
   class="st0" />
		<path
   id="path74"
   d="m 150.4,678.5 -1,-0.1 c 0.1,-0.8 0,-1.4 -0.4,-2.1 -0.4,-0.6 -0.9,-0.7 -1.2,-0.5 v 0 c -0.4,0.2 -0.4,0.6 0,1.7 0.5,1.3 0.5,2.1 -0.4,2.7 v 0 c -0.9,0.6 -2,0.2 -2.6,-0.8 -0.5,-0.7 -0.7,-1.5 -0.6,-2.3 h 1 c 0,0.7 0.1,1.3 0.4,1.7 0.3,0.5 0.8,0.7 1.2,0.4 v 0 c 0.4,-0.3 0.4,-0.6 0,-1.7 -0.5,-1.3 -0.4,-2.1 0.4,-2.6 v 0 c 1,-0.6 2,-0.3 2.7,0.8 0.4,0.9 0.6,1.9 0.5,2.8"
   class="st0" />
		<polygon
   id="polygon76"
   points="141.8,674.6 139.8,670 140.8,669.6 141.5,671.4 146.3,669.3 146.7,670.3 142,672.4 142.7,674.2 "
   class="st0" />
		
			<rect
   id="rect78"
   height="1.1"
   width="6.0999999"
   class="st0"
   transform="matrix(0.9654,-0.2608,0.2608,0.9654,-168.5883,59.9561)"
   y="664.79999"
   x="138.60001" />
		<polygon
   id="polygon80"
   points="137.7,662.2 137.1,657.3 138.1,657.2 138.4,659.1 143.5,658.5 143.6,659.5 138.5,660.2 138.7,662.1 "
   class="st0" />
		<path
   id="path82"
   d="m 140.5,654 -3.5,-0.2 0.1,-1.1 3.5,0.2 c 1.1,0.1 1.8,-0.5 1.9,-1.4 0.1,-1 -0.5,-1.6 -1.6,-1.7 l -3.5,-0.2 0.1,-1.1 3.5,0.2 c 1.8,0.1 2.7,1.2 2.6,2.8 -0.3,1.6 -1.3,2.6 -3.1,2.5"
   class="st0" />
		<polygon
   id="polygon84"
   points="137.9,645 139.2,640.2 140.1,640.4 139.7,642.3 144.6,643.6 144.4,644.6 139.4,643.4 138.9,645.2 "
   class="st0" />
		<path
   id="path86"
   d="m 169.3,691.3 2.4,0.7 c 2.5,0.7 3.3,2.3 2.8,4.1 v 0 c -0.5,1.8 -2.2,2.8 -4.7,2.1 l -2.3,-0.7 z m 1.1,5.1 c 0.9,0.3 1.7,0.1 1.9,-0.8 v 0 c 0.3,-0.9 -0.2,-1.5 -1.2,-1.7 l -0.3,-0.1 -0.7,2.6 z"
   class="st0" />
		<polygon
   id="polygon88"
   points="183.8,695.5 180.4,695.3 180.4,696 183.5,696.1 183.4,697.7 180.3,697.5 180.3,698.2 183.7,698.4 183.6,700.2 178.1,699.9 178.4,693.5 183.9,693.7 "
   class="st0" />
		<path
   id="path90"
   d="m 192,692.7 2.8,-0.8 c 1.6,-0.5 3,-0.1 3.4,1.4 v 0 c 0.5,1.5 -0.4,2.6 -2.1,3.1 l -0.7,0.2 0.5,1.7 -2.1,0.6 z m 3.5,2.3 c 0.5,-0.2 0.8,-0.5 0.7,-0.9 v 0 c -0.1,-0.4 -0.5,-0.6 -1.1,-0.4 l -0.6,0.2 0.4,1.4 z"
   class="st0" />
		<path
   id="path92"
   d="m 201.6,689 1.9,-1.1 5.6,4.3 -2,1.2 -0.7,-0.6 -2,1.1 0.1,0.9 -2,1.1 z m 3.4,2.8 -1.3,-1.1 0.3,1.6 z"
   class="st0" />
		<path
   id="path94"
   d="m 207.9,685 2.3,-2.2 c 0.8,-0.8 1.6,-1.1 2.2,-1 0.5,0 1,0.2 1.5,0.7 v 0 c 0.6,0.7 0.7,1.5 0.4,2.3 l 2.6,0.6 -1.8,1.7 -2.1,-0.5 v 0 l -0.3,0.3 1.3,1.3 -1.6,1.5 z m 4.3,0.2 c 0.4,-0.4 0.4,-0.7 0.2,-1 v 0 c -0.3,-0.3 -0.7,-0.2 -1,0.1 l -0.7,0.6 0.9,0.9 z"
   class="st0" />
		
			<rect
   id="rect96"
   height="6.4000001"
   width="2.2"
   class="st0"
   transform="matrix(0.5912,-0.8065,0.8065,0.5912,-458.9854,453.1467)"
   y="676.09998"
   x="216.5" />
		<path
   id="path98"
   d="m 222.1,676.7 -0.7,-1.6 c 0.8,-0.4 1.3,-1 1.7,-1.7 0.2,-0.3 0.2,-0.5 0,-0.6 v 0 c -0.2,-0.1 -0.3,0.1 -0.8,0.6 -0.9,1.2 -1.8,2.1 -3,1.5 v 0 c -1.1,-0.5 -1.5,-1.8 -0.8,-3.4 0.5,-1.1 1.2,-1.8 2.1,-2.2 l 0.9,1.6 c -0.7,0.4 -1.2,0.9 -1.4,1.5 -0.1,0.3 -0.1,0.5 0,0.5 v 0 c 0.2,0.1 0.3,0 0.7,-0.6 1,-1.3 1.9,-2.1 3.1,-1.6 v 0 c 1.2,0.6 1.5,2 0.7,3.5 -0.6,1.2 -1.5,2.1 -2.5,2.5"
   class="st0" />
	</g>
</g>
<g
   transform="translate(-137,-141.7)"
   id="Calque_2">
</g>
</svg>
